<svg width="623" height="356" viewBox="0 0 623 356" fill="none" xmlns="http://www.w3.org/2000/svg">
<path opacity="0.1" d="M90.9548 179.528C98.2185 207.575 113.582 231.819 137.861 243.572C188.334 267.996 302.165 255.4 387.12 240.94C431.066 233.461 469.692 212.822 497.751 183.777L90.9548 179.528Z" fill="#6C63FF"/>
<path opacity="0.1" d="M536.457 47.5097H489.844C487.632 47.5097 485.817 45.8719 485.817 43.8707C485.817 41.8695 487.632 40.2275 489.844 40.2275H497.906C495.69 40.2275 493.879 38.5898 493.879 36.5844C493.879 34.579 495.69 32.9454 497.906 32.9454H492.152C489.936 32.9454 488.121 31.3076 488.121 29.3022C488.121 27.2968 489.936 25.6632 492.152 25.6632H516.481C511.083 23.3946 504.772 21.7819 497.5 20.9338C431.158 13.2339 407.472 18.3268 399.117 23.5617C388.703 30.1681 377.135 34.7521 365.02 37.0732C324.089 44.7063 247.543 53.8894 178.164 34.1486C143.682 24.3179 118.052 40.9085 102.693 68.6417H544.553C543.976 60.5824 542.249 53.1374 539.079 46.624C538.328 47.203 537.406 47.5148 536.457 47.5097V47.5097Z" fill="#6C63FF"/>
<path opacity="0.1" d="M87.0032 120.987C85.2127 137.298 85.8214 153.784 88.8097 169.919L498.065 183.451C509.331 171.777 518.902 158.583 526.501 144.254L87.0032 120.987ZM248.869 155.893H240.811C243.027 155.893 244.842 157.535 244.842 159.537C244.842 161.538 243.027 163.176 240.811 163.176H194.197C191.985 163.176 190.17 161.538 190.17 159.537C190.17 157.535 191.985 155.893 194.197 155.893H202.259C200.043 155.893 198.232 154.256 198.232 152.254C198.232 150.253 200.043 148.611 202.259 148.611H196.501C194.285 148.611 192.47 146.974 192.47 144.972C192.47 142.971 194.285 141.329 196.501 141.329H243.115C245.331 141.329 247.142 142.967 247.142 144.972C247.142 146.978 245.331 148.611 243.115 148.611H248.869C251.085 148.611 252.896 150.249 252.896 152.254C252.896 154.26 251.085 155.893 248.869 155.893Z" fill="#6C63FF"/>
<path opacity="0.1" d="M544.57 68.8921L97.7628 78.7102C92.3265 91.3401 88.7219 105.62 87.0618 120.419H536.742C539.668 111.761 541.84 102.866 543.232 93.8344C544.574 85.1401 545.109 76.7299 544.57 68.8921ZM177.78 101.083H169.722C171.938 101.083 173.753 102.725 173.753 104.726C173.753 106.727 171.938 108.369 169.722 108.369H123.108C120.896 108.369 119.081 106.727 119.081 104.726C119.081 102.725 120.896 101.083 123.108 101.083H131.17C128.954 101.083 127.143 99.4453 127.143 97.4441C127.143 95.4429 128.954 93.8009 131.17 93.8009H125.412C123.196 93.8009 121.381 92.1632 121.381 90.162C121.381 88.1607 123.196 86.5188 125.412 86.5188H172.026C174.242 86.5188 176.053 88.1566 176.053 90.162C176.053 92.1674 174.242 93.8009 172.026 93.8009H177.78C179.996 93.8009 181.807 95.4429 181.807 97.4441C181.807 99.4453 179.996 101.083 177.78 101.083Z" fill="#6C63FF"/>
<path opacity="0.1" d="M313.94 343.329C417.17 343.329 500.854 335.637 500.854 326.149C500.854 316.661 417.17 308.969 313.94 308.969C210.711 308.969 127.026 316.661 127.026 326.149C127.026 335.637 210.711 343.329 313.94 343.329Z" fill="#6C63FF"/>
<g opacity="0.1">
<path opacity="0.1" d="M439.245 135.719C439.331 135.555 439.407 135.386 439.471 135.213C439.943 133.901 439.734 132.46 439.739 131.064C439.738 130.599 439.782 130.135 439.868 129.677C439.482 130.503 439.295 131.407 439.32 132.318C439.316 133.442 439.45 134.62 439.245 135.719Z" fill="black"/>
<path opacity="0.1" d="M499.391 186.288C499.231 186.588 499.161 186.928 499.19 187.266C500.135 186.334 502.268 186.882 503.012 185.683C503.185 185.386 503.253 185.04 503.204 184.701C502.234 185.62 500.102 185.073 499.391 186.288Z" fill="black"/>
<path opacity="0.1" d="M493.248 193.433C493.168 193.85 493.089 194.297 492.989 194.732C495.548 195.53 498.504 193.479 498.922 190.888C497.906 192.881 495.397 194.214 493.248 193.433Z" fill="black"/>
</g>
<path opacity="0.1" d="M443.414 333.665C442.197 333.711 435.281 333.665 435.281 333.665C435.18 333.559 435.085 333.448 434.997 333.331C436.765 332.729 440.588 331.827 443.414 333.665Z" fill="black"/>
<path opacity="0.1" d="M463.198 333.665C461.981 333.711 455.065 333.665 455.065 333.665C454.963 333.559 454.868 333.448 454.78 333.331C456.541 332.729 460.363 331.827 463.198 333.665Z" fill="black"/>
<path d="M425.705 196.583C427.783 196.583 429.468 195.442 429.468 194.034C429.468 192.627 427.783 191.486 425.705 191.486C423.626 191.486 421.941 192.627 421.941 194.034C421.941 195.442 423.626 196.583 425.705 196.583Z" fill="#575A89"/>
<path d="M303.03 335.896C374.278 335.896 432.036 278.19 432.036 207.007C432.036 135.823 374.278 78.1172 303.03 78.1172C231.782 78.1172 174.024 135.823 174.024 207.007C174.024 278.19 231.782 335.896 303.03 335.896Z" fill="url(#paint0_linear)"/>
<path d="M370.719 271.777C370.719 292.124 338.704 273.515 304.381 273.515C270.057 273.515 235.341 291.355 235.341 271.009C235.341 259.406 246.406 243.271 262.279 231.552C274.239 222.72 288.925 216.395 303.678 216.395C318.85 216.395 333.711 223.242 345.566 232.643C360.529 244.495 370.719 260.422 370.719 271.777Z" fill="#444053"/>
<path d="M345.562 232.634C327.318 229.889 294.32 226.543 262.28 231.544C274.239 222.712 288.925 216.386 303.678 216.386C318.846 216.386 333.707 223.234 345.562 232.634Z" fill="#F6F8FB"/>
<path opacity="0.05" d="M235.341 116.023C235.341 116.023 196.48 140.845 196.798 179.67C197.116 218.496 235.341 116.023 235.341 116.023Z" fill="black"/>
<path opacity="0.1" d="M534.739 321.991C540.958 321.991 546 321.14 546 320.09C546 319.041 540.958 318.189 534.739 318.189C528.519 318.189 523.477 319.041 523.477 320.09C523.477 321.14 528.519 321.991 534.739 321.991Z" fill="#6C63FF"/>
<path opacity="0.1" d="M105.562 353.615C111.781 353.615 116.823 352.764 116.823 351.714C116.823 350.664 111.781 349.813 105.562 349.813C99.3422 349.813 94.3003 350.664 94.3003 351.714C94.3003 352.764 99.3422 353.615 105.562 353.615Z" fill="#6C63FF"/>
<path opacity="0.1" d="M170.934 356C177.154 356 182.196 355.149 182.196 354.099C182.196 353.049 177.154 352.198 170.934 352.198C164.715 352.198 159.673 353.049 159.673 354.099C159.673 355.149 164.715 356 170.934 356Z" fill="#6C63FF"/>
<path d="M257.165 190.106C259.62 189.969 271.174 189.1 278.513 184.917C279.692 184.225 281.023 183.833 282.389 183.777C284.723 183.71 287.407 184.683 285.689 190.131C282.904 199.043 266.733 209.07 256.697 208.514C247.046 207.98 235.596 204.094 228.035 190.432C227.311 189.118 226.954 187.633 227.003 186.133C227.09 183.376 228.094 179.921 233.275 183.773C240.275 188.974 253.556 189.96 256.22 190.106C256.535 190.123 256.85 190.123 257.165 190.106V190.106Z" fill="#444053"/>
<path d="M349.999 190.106C352.454 189.969 364.008 189.1 371.347 184.917C372.525 184.225 373.857 183.833 375.223 183.777C377.556 183.71 380.241 184.683 378.522 190.131C375.737 199.043 359.567 209.07 349.531 208.514C339.879 207.98 328.43 204.094 320.869 190.432C320.145 189.118 319.788 187.633 319.836 186.133C319.924 183.376 320.928 179.921 326.109 183.773C333.109 188.974 346.39 189.96 349.054 190.106C349.369 190.123 349.684 190.123 349.999 190.106V190.106Z" fill="#444053"/>
<path d="M0.7 260.5C0.7 257.9 1.4 255.3 2.8 252.7L73.9 112.9C77.1 106.1 82.6 102.7 90.4 102.7C94.4 102.7 98.6 104.2 103 107.2C107.6 110 109.9 113.5 109.9 117.7C109.9 119.1 109.4 120.8 108.4 122.8L50.8 238H85.9V206.5C85.9 202.5 87.8 199.5 91.6 197.5C95.4 195.3 100 194.2 105.4 194.2C110.8 194.2 115.4 195.3 119.2 197.5C123 199.5 124.9 202.5 124.9 206.5V238H139C142.8 238 145.8 239.8 148 243.4C150.2 247 151.3 251.3 151.3 256.3C151.3 260.9 150 265.1 147.4 268.9C145 272.5 142.2 274.3 139 274.3H124.9V309.7C124.9 313.5 123 316.5 119.2 318.7C115.4 320.9 110.8 322 105.4 322C100.2 322 95.6 320.9 91.6 318.7C87.8 316.5 85.9 313.5 85.9 309.7V274.3H13.9C10.1 274.3 6.9 273.1 4.3 270.7C1.9 268.1 0.7 264.7 0.7 260.5Z" fill="url(#paint1_linear)"/>
<path d="M462.7 246.5C462.7 243.9 463.4 241.3 464.8 238.7L535.9 98.9C539.1 92.1 544.6 88.7 552.4 88.7C556.4 88.7 560.6 90.2 565 93.2C569.6 96 571.9 99.5 571.9 103.7C571.9 105.1 571.4 106.8 570.4 108.8L512.8 224H547.9V192.5C547.9 188.5 549.8 185.5 553.6 183.5C557.4 181.3 562 180.2 567.4 180.2C572.8 180.2 577.4 181.3 581.2 183.5C585 185.5 586.9 188.5 586.9 192.5V224H601C604.8 224 607.8 225.8 610 229.4C612.2 233 613.3 237.3 613.3 242.3C613.3 246.9 612 251.1 609.4 254.9C607 258.5 604.2 260.3 601 260.3H586.9V295.7C586.9 299.5 585 302.5 581.2 304.7C577.4 306.9 572.8 308 567.4 308C562.2 308 557.6 306.9 553.6 304.7C549.8 302.5 547.9 299.5 547.9 295.7V260.3H475.9C472.1 260.3 468.9 259.1 466.3 256.7C463.9 254.1 462.7 250.7 462.7 246.5Z" fill="url(#paint2_linear)"/>
<defs>
<linearGradient id="paint0_linear" x1="303.03" y1="78.1172" x2="303.03" y2="335.896" gradientUnits="userSpaceOnUse">
<stop stop-color="#8A5BF2"/>
<stop offset="1" stop-color="#4A39BE"/>
</linearGradient>
<linearGradient id="paint1_linear" x1="81" y1="14" x2="81" y2="323" gradientUnits="userSpaceOnUse">
<stop stop-color="#8A5BF2"/>
<stop offset="1" stop-color="#4B3ABF"/>
</linearGradient>
<linearGradient id="paint2_linear" x1="543" y1="0" x2="543" y2="309" gradientUnits="userSpaceOnUse">
<stop stop-color="#8A5BF2"/>
<stop offset="1" stop-color="#4B3ABF"/>
</linearGradient>
</defs>
</svg>
