<svg width="23" height="23" viewBox="0 0 23 23" fill="none" xmlns="http://www.w3.org/2000/svg">
<path d="M19.6313 3.36869C17.4581 1.1955 14.5734 0 11.5 0C8.42656 0 5.54188 1.1955 3.36869 3.36869C1.1955 5.54188 0 8.42656 0 11.5C0 14.5734 1.1955 17.4581 3.36869 19.6313C5.54188 21.8045 8.42656 23 11.5 23C14.5734 23 17.4581 21.8045 19.6313 19.6313C21.8045 17.4581 23 14.5734 23 11.5C23 8.42656 21.8045 5.54188 19.6313 3.36869ZM18.7069 18.7069C16.7805 20.6332 14.2201 21.6932 11.5 21.6932C8.77988 21.6932 6.21949 20.6332 4.29314 18.7069C0.319444 14.7332 0.319444 8.26683 4.29314 4.29314C6.21949 2.36679 8.77988 1.30682 11.5 1.30682C14.2201 1.30682 16.7805 2.36679 18.7069 4.29314C22.6806 8.26683 22.6806 14.7332 18.7069 18.7069Z" fill="#F0F0F0"/>
<path d="M16.5675 6.43263C16.311 6.1761 15.8996 6.1761 15.643 6.43263L11.4999 10.5757L7.35684 6.43263C7.10031 6.1761 6.68891 6.1761 6.43238 6.43263C6.17586 6.68915 6.17586 7.10056 6.43238 7.35708L10.5755 11.5002L6.43238 15.6433C6.17586 15.8998 6.17586 16.3112 6.43238 16.5677C6.55822 16.6936 6.72763 16.7613 6.89219 16.7613C7.05675 16.7613 7.22615 16.6984 7.352 16.5677L11.4951 12.4246L15.6382 16.5677C15.764 16.6936 15.9334 16.7613 16.098 16.7613C16.2674 16.7613 16.432 16.6984 16.5578 16.5677C16.8143 16.3112 16.8143 15.8998 16.5578 15.6433L12.4244 11.5002L16.5675 7.35708C16.824 7.10056 16.824 6.68915 16.5675 6.43263Z" fill="#F0F0F0"/>
</svg>
