<svg width="512" height="365" viewBox="0 0 512 365" fill="none" xmlns="http://www.w3.org/2000/svg">
<g clip-path="url(#clip0)">
<path d="M473.773 -112.707L753.738 105.045L596.118 307.698C535.987 385.008 424.569 398.934 347.259 338.804V338.804C269.949 278.673 256.023 167.256 316.153 89.9458L473.773 -112.707Z" fill="url(#paint0_linear)"/>
<path d="M508.199 -94.5373L726.631 75.3554L563.702 284.834C516.787 345.152 429.858 356.018 369.54 309.103V309.103C309.222 262.189 298.356 175.259 345.27 114.941L508.199 -94.5373Z" fill="url(#paint1_linear)"/>
<path d="M274.08 191.131C274.08 191.131 276.391 189.476 278.781 190.498C278.781 190.498 278.113 191.92 275.134 191.902L274.08 191.131Z" fill="#6C63FF"/>
<path d="M273.793 191.227C273.793 191.227 273.176 194 275.056 195.8C275.056 195.8 276.099 194.626 274.914 191.895L273.793 191.227Z" fill="#6C63FF"/>
<path d="M270.738 188.703C270.738 188.703 270.823 186.362 276.125 186.934C276.125 186.934 276.208 188.44 274.385 189.224C272.563 190.008 271.69 189.445 270.738 188.703Z" fill="#6C63FF"/>
<path d="M270.411 188.698C270.411 188.698 268.207 189.5 270.386 194.37C270.386 194.37 271.843 193.985 272.028 192.009C272.213 190.033 271.407 189.38 270.411 188.698Z" fill="#6C63FF"/>
<path d="M267.299 185.502C267.299 185.502 266.853 181.67 272.253 181.858C272.253 181.858 272.768 185.321 268.285 186.388L267.299 185.502Z" fill="#6C63FF"/>
<path d="M263.571 181.301C263.571 181.301 264.144 176.919 269.587 178.008C269.587 178.008 269.751 181.773 264.498 182.305L263.571 181.301Z" fill="#6C63FF"/>
<path d="M260.797 176.915C260.797 176.915 261.871 172.618 267.258 173.691C267.258 173.691 266.144 177.556 261.183 177.685L260.797 176.915Z" fill="#6C63FF"/>
<path d="M258.157 172.631C258.157 172.631 259.198 168.176 264.395 169.307C264.395 169.307 262.836 173.555 258.52 173.368L258.157 172.631Z" fill="#6C63FF"/>
<path d="M256.404 168.532C256.404 168.532 257.128 163.112 261.974 164.119C261.974 164.119 260.766 169.071 256.783 169.301L256.404 168.532Z" fill="#6C63FF"/>
<path d="M254.717 163.562C254.717 163.562 255.624 158.094 260.543 159.486C260.543 159.486 258.832 164.687 255.085 164.3L254.717 163.562Z" fill="#6C63FF"/>
<path d="M253.612 158.927C253.612 158.927 255.172 153.434 258.942 153.436C258.942 153.436 257.349 159.228 253.969 160.003L253.612 158.927Z" fill="#6C63FF"/>
<path d="M252.85 154.378C252.85 154.378 254.528 147.771 257.607 148.159C257.607 148.159 256.464 153.202 252.997 155.392L252.85 154.378Z" fill="#6C63FF"/>
<path d="M252.309 148.938C252.309 148.938 253.906 143.427 256.919 143.093C256.919 143.093 255.894 148.495 252.429 150.351L252.309 148.938Z" fill="#6C63FF"/>
<path d="M251.748 143.877C251.748 143.877 253.793 138.342 255.785 138.141C255.785 138.141 255.011 143.543 251.982 144.764L251.748 143.877Z" fill="#6C63FF"/>
<path d="M251.318 139.159C251.318 139.159 252.476 133.187 254.45 132.621C254.45 132.621 254.363 137.471 251.534 139.594L251.318 139.159Z" fill="#6C63FF"/>
<path d="M250.331 133.002C250.331 133.002 251.607 128.231 253.193 127.449C253.193 127.449 253.086 133.018 250.743 134.132L250.331 133.002Z" fill="#6C63FF"/>
<path d="M249.551 128.961L248.938 120.657C248.938 120.657 252.191 126.819 249.829 130.421L249.551 128.961Z" fill="#6C63FF"/>
<path d="M246.9 120.786C246.9 120.786 244.496 114.796 243.961 114.478C243.961 114.478 248.372 118.265 248.149 123.339L246.9 120.786Z" fill="#6C63FF"/>
<path d="M267.151 185.48C267.151 185.48 263.308 185.125 263.631 190.521C263.631 190.521 267.107 190.951 268.063 186.442L267.151 185.48Z" fill="#6C63FF"/>
<path d="M263.386 181.163C263.386 181.163 258.97 181.316 259.541 186.83C259.541 186.83 263.273 187.351 264.3 182.172L263.386 181.163Z" fill="#6C63FF"/>
<path d="M260.768 177.275C260.768 177.275 256.687 175.549 254.307 180.499C254.307 180.499 258.07 181.922 261.152 178.048L260.768 177.275Z" fill="#6C63FF"/>
<path d="M258.068 172.675C258.068 172.675 253.889 170.831 251.659 175.665C251.659 175.665 255.992 176.972 258.436 173.411L258.068 172.675Z" fill="#6C63FF"/>
<path d="M256.46 168.646C256.46 168.646 252.365 165.024 249.359 168.962C249.359 168.962 253.514 171.911 256.673 169.479L256.46 168.646Z" fill="#6C63FF"/>
<path d="M254.936 163.424C254.936 163.424 250.814 159.718 247.84 163.87C247.84 163.87 252.423 166.866 255.109 164.224L254.936 163.424Z" fill="#6C63FF"/>
<path d="M254.013 158.751C254.013 158.751 250.767 154.051 247.203 155.262C247.203 155.262 250.576 160.243 254.022 159.885L254.013 158.751Z" fill="#6C63FF"/>
<path d="M252.942 154.345C252.942 154.345 249.62 148.393 246.746 149.558C246.746 149.558 249.148 154.138 253.058 155.361L252.942 154.345Z" fill="#6C63FF"/>
<path d="M252.507 148.62C252.507 148.62 249.152 143.964 246.205 144.661C246.205 144.661 248.983 149.406 252.868 149.992L252.507 148.62Z" fill="#6C63FF"/>
<path d="M252.08 143.757C252.08 143.757 249.417 138.491 247.416 138.52C247.416 138.52 248.8 143.799 251.948 144.664L252.08 143.757Z" fill="#6C63FF"/>
<path d="M251.411 139.039C251.411 139.039 248.47 133.715 246.416 133.782C246.416 133.782 247.994 138.371 251.338 139.52L251.411 139.039Z" fill="#6C63FF"/>
<path d="M250.781 133.31C250.781 133.31 248.564 128.895 246.853 128.451C246.853 128.451 248.085 133.887 250.6 134.51L250.781 133.31Z" fill="#6C63FF"/>
<path d="M249.301 128.814L244.469 122.034C244.469 122.034 245.901 128.855 250.019 130.115L249.301 128.814Z" fill="#6C63FF"/>
<path d="M245.877 121.385C245.877 121.385 240.439 117.926 240.216 117.34C240.216 117.34 243.112 122.37 248.161 123.083L245.877 121.385Z" fill="#6C63FF"/>
<path d="M245.496 119.75C245.496 119.75 239.178 114.126 237.623 114.193C237.623 114.193 242.658 114.228 245.643 119.434L245.496 119.75Z" fill="#6C63FF"/>
<path d="M250.754 134.201L250.531 134.239C249.043 125.317 247.169 120.085 245.258 119.501L245.322 119.278C247.345 119.893 249.23 125.05 250.754 134.201Z" fill="#444053"/>
<path d="M253.26 155.559L252.926 155.599C252.824 154.766 252.735 153.91 252.666 153.059C252.062 145.653 251.304 138.859 250.458 133.775L250.643 133.528C251.491 138.62 252.396 145.615 253.002 153.033C253.071 153.879 253.158 154.728 253.26 155.559Z" fill="#444053"/>
<path d="M280.503 195.158C280.443 195.134 274.437 192.724 268.065 186.669C264.333 183.125 261.187 179.013 258.743 174.484C255.689 168.824 253.69 161.798 252.846 154.933L253.202 155.084C255.096 170.495 262.542 180.795 268.352 186.331C274.662 192.332 280.606 194.717 280.662 194.74L280.503 195.158Z" fill="#444053"/>
<g opacity="0.7">
<path opacity="0.7" d="M283.402 177.017C283.402 177.017 286.1 176.126 288.081 177.812C288.081 177.812 287.018 178.971 284.179 178.066L283.402 177.017Z" fill="#6C63FF"/>
<path opacity="0.7" d="M283.099 177.021C283.099 177.021 281.686 179.487 282.945 181.762C282.945 181.762 284.282 180.953 283.972 177.993L283.099 177.021Z" fill="#6C63FF"/>
<path opacity="0.7" d="M280.931 173.705C280.931 173.705 281.711 171.495 286.601 173.618C286.601 173.618 286.234 175.081 284.257 175.286C282.281 175.491 281.622 174.691 280.931 173.705Z" fill="#6C63FF"/>
<path opacity="0.7" d="M280.622 173.604C280.622 173.604 278.282 173.716 278.91 179.011C278.91 179.011 280.419 179.078 281.183 177.244C281.947 175.411 281.37 174.549 280.622 173.604Z" fill="#6C63FF"/>
<path opacity="0.7" d="M278.603 169.619C278.603 169.619 279.314 165.832 284.416 167.614C284.416 167.614 283.879 171.074 279.28 170.76L278.603 169.619Z" fill="#6C63FF"/>
<path opacity="0.7" d="M276.295 164.496C276.295 164.496 278.144 160.486 283.01 163.141C283.01 163.141 282.047 166.784 276.872 165.73L276.295 164.496Z" fill="#6C63FF"/>
<path opacity="0.7" d="M274.949 159.495C274.949 159.495 277.255 155.708 282.078 158.339C282.078 158.339 279.851 161.694 275.089 160.344L274.949 159.495Z" fill="#6C63FF"/>
<path opacity="0.7" d="M273.704 154.619C273.704 154.619 276.021 150.68 280.653 153.302C280.653 153.302 277.901 156.893 273.837 155.432L273.704 154.619Z" fill="#6C63FF"/>
<path opacity="0.7" d="M273.249 150.184C273.249 150.184 275.553 145.225 279.884 147.631C279.884 147.631 277.257 151.997 273.387 151.032L273.249 150.184Z" fill="#6C63FF"/>
<path opacity="0.7" d="M273.12 144.938C273.12 144.938 275.613 139.986 279.893 142.779C279.893 142.779 276.714 147.234 273.251 145.751L273.12 144.938Z" fill="#6C63FF"/>
<path opacity="0.7" d="M273.448 140.177C273.448 140.177 276.567 135.397 280.167 136.52C280.167 136.52 276.921 141.583 273.465 141.311L273.448 140.177Z" fill="#6C63FF"/>
<path opacity="0.7" d="M274.08 135.613C274.08 135.613 277.645 129.806 280.472 131.091C280.472 131.091 277.879 135.566 273.92 136.624L274.08 135.613Z" fill="#6C63FF"/>
<path opacity="0.7" d="M275.17 130.26C275.17 130.26 278.338 125.473 281.31 126.05C281.31 126.05 278.725 130.904 274.867 131.643L275.17 130.26Z" fill="#6C63FF"/>
<path opacity="0.7" d="M276.143 125.259C276.143 125.259 279.741 120.581 281.702 120.987C281.702 120.987 279.356 125.914 276.101 126.175L276.143 125.259Z" fill="#6C63FF"/>
<path opacity="0.7" d="M277.135 120.628C277.135 120.628 280.018 115.282 282.072 115.318C282.072 115.318 280.543 119.922 277.213 121.109L277.135 120.628Z" fill="#6C63FF"/>
<path opacity="0.7" d="M278.024 114.455C278.024 114.455 280.664 110.281 282.411 110C282.411 110 280.651 115.289 278.084 115.661L278.024 114.455Z" fill="#6C63FF"/>
<path opacity="0.7" d="M278.483 110.366L280.37 102.253C280.37 102.253 281.642 109.103 278.313 111.831L278.483 110.366Z" fill="#6C63FF"/>
<path opacity="0.7" d="M278.389 101.774C278.389 101.774 277.874 95.3406 277.46 94.8683C277.46 94.8683 280.548 99.7868 278.824 104.576L278.389 101.774Z" fill="#6C63FF"/>
<path opacity="0.7" d="M278.467 169.559C278.467 169.559 274.902 168.08 273.608 173.328C273.608 173.328 276.796 174.772 279.051 170.751L278.467 169.559Z" fill="#6C63FF"/>
<path opacity="0.7" d="M276.157 164.318C276.157 164.318 271.895 163.153 270.799 168.586C270.799 168.586 274.207 170.194 276.729 165.554L276.157 164.318Z" fill="#6C63FF"/>
<path opacity="0.7" d="M274.815 159.829C274.815 159.829 271.433 156.967 267.686 160.985C267.686 160.985 270.854 163.464 274.951 160.678L274.815 159.829Z" fill="#6C63FF"/>
<path opacity="0.7" d="M273.608 154.634C273.608 154.634 270.164 151.632 266.599 155.581C266.599 155.581 270.346 158.12 273.739 155.447L273.608 154.634Z" fill="#6C63FF"/>
<path opacity="0.7" d="M273.272 150.311C273.272 150.311 270.438 145.633 266.396 148.497C266.396 148.497 269.486 152.552 273.227 151.17L273.272 150.311Z" fill="#6C63FF"/>
<path opacity="0.7" d="M273.37 144.871C273.37 144.871 270.536 140.106 266.463 143.189C266.463 143.189 269.947 147.421 273.296 145.691L273.37 144.871Z" fill="#6C63FF"/>
<path opacity="0.7" d="M273.878 140.133C273.878 140.133 272.178 134.682 268.415 134.787C268.415 134.787 270.153 140.547 273.55 141.229L273.878 140.133Z" fill="#6C63FF"/>
<path opacity="0.7" d="M274.165 135.609C274.165 135.609 272.766 128.937 269.676 129.195C269.676 129.195 270.607 134.283 273.976 136.615L274.165 135.609Z" fill="#6C63FF"/>
<path opacity="0.7" d="M275.457 130.015C275.457 130.015 273.639 124.571 270.616 124.359C270.616 124.359 271.857 129.717 275.392 131.432L275.457 130.015Z" fill="#6C63FF"/>
<path opacity="0.7" d="M276.495 125.244C276.495 125.244 275.519 119.425 273.599 118.857C273.599 118.857 273.352 124.308 276.099 126.072L276.495 125.244Z" fill="#6C63FF"/>
<path opacity="0.7" d="M277.259 120.541C277.259 120.541 276.036 114.582 274.056 114.037C274.056 114.037 274.196 118.886 277.048 120.978L277.259 120.541Z" fill="#6C63FF"/>
<path opacity="0.7" d="M278.36 114.892C278.36 114.892 277.558 110.018 276.057 109.085C276.057 109.085 275.611 114.64 277.839 115.99L278.36 114.892Z" fill="#6C63FF"/>
<path opacity="0.7" d="M278.289 110.143L275.691 102.23C275.691 102.23 275.023 109.167 278.587 111.597L278.289 110.143Z" fill="#6C63FF"/>
<path opacity="0.7" d="M277.23 102.041C277.23 102.041 273.058 97.116 273.026 96.4945C273.026 96.4945 274.303 102.159 278.901 104.34L277.23 102.041Z" fill="#6C63FF"/>
<path opacity="0.7" d="M277.353 100.368C277.353 100.368 272.993 93.1175 271.489 92.7165C271.489 92.7165 276.284 94.2513 277.576 100.103L277.353 100.368Z" fill="#6C63FF"/>
<path opacity="0.7" d="M278.075 115.712L277.852 115.681C279.084 106.724 278.855 101.168 277.202 100.043L277.329 99.8581C279.082 101.054 279.338 106.536 278.075 115.712Z" fill="#444053"/>
<path opacity="0.7" d="M274.109 136.874L273.777 136.814C273.929 135.987 274.098 135.145 274.285 134.31C275.914 127.059 277.213 120.35 277.915 115.244L278.166 115.061C277.462 120.185 276.244 127.124 274.615 134.386C274.428 135.203 274.258 136.041 274.109 136.874Z" fill="#444053"/>
<path opacity="0.7" d="M288.339 182.773C288.29 182.733 283.273 178.645 278.982 170.967C276.474 166.474 274.695 161.612 273.71 156.561C272.478 150.248 272.659 142.946 273.898 136.141L274.192 136.39C271.418 151.667 275.462 163.718 279.369 170.733C283.602 178.338 288.566 182.383 288.617 182.423L288.339 182.773Z" fill="#444053"/>
</g>
<path d="M442.879 259.362C442.879 259.362 433.459 258.794 434.571 265.394C434.571 265.394 434.348 266.559 435.406 267.089C435.406 267.089 435.424 266.599 436.373 266.766C436.711 266.823 437.054 266.84 437.396 266.815C437.858 266.783 438.297 266.602 438.648 266.298V266.298C438.648 266.298 441.295 265.205 442.324 260.879C442.324 260.879 443.086 259.934 443.057 259.691L441.466 260.36C441.466 260.36 442.01 261.507 441.582 262.458C441.582 262.458 441.531 260.402 441.226 260.453C441.163 260.464 440.399 260.852 440.399 260.852C440.399 260.852 441.335 262.857 440.622 264.3C440.622 264.3 440.889 261.839 440.1 260.995L438.986 261.65C438.986 261.65 440.078 263.712 439.338 265.394C439.338 265.394 439.528 262.812 438.75 261.808L437.737 262.598C437.737 262.598 438.764 264.632 438.138 266.027C438.138 266.027 438.055 263.022 437.518 262.794C437.518 262.794 436.627 263.576 436.496 263.908C436.496 263.908 437.197 265.383 436.763 266.163C436.763 266.163 436.496 264.158 436.275 264.158C436.275 264.158 435.384 265.483 435.299 266.385C435.299 266.385 435.337 265.033 436.061 264.024C435.552 264.12 435.081 264.363 434.709 264.724C434.709 264.724 434.847 263.786 436.268 263.703C436.268 263.703 436.999 262.699 437.195 262.636C437.195 262.636 435.767 262.518 434.903 262.901C434.903 262.901 435.665 262.01 437.456 262.418L438.456 261.6C438.456 261.6 436.578 261.344 435.783 261.627C435.783 261.627 436.698 260.845 438.726 261.416L439.815 260.765C439.815 260.765 438.216 260.42 437.262 260.542C437.262 260.542 438.269 259.999 440.136 260.587L440.916 260.237C440.916 260.237 439.742 260.014 439.399 259.97C439.056 259.925 439.038 259.838 439.038 259.838C439.78 259.715 440.542 259.799 441.239 260.084C441.239 260.084 442.908 259.466 442.879 259.362Z" fill="#6C63FF"/>
<path opacity="0.1" d="M436.391 268.791C440.072 268.791 443.057 268.286 443.057 267.664C443.057 267.041 440.072 266.537 436.391 266.537C432.709 266.537 429.725 267.041 429.725 267.664C429.725 268.286 432.709 268.791 436.391 268.791Z" fill="#6C63FF"/>
<path d="M460.947 241.971C460.947 241.971 455.638 241.653 456.269 245.373C456.236 245.561 456.264 245.755 456.348 245.927C456.433 246.098 456.569 246.239 456.739 246.328C456.739 246.328 456.75 246.052 457.284 246.146C457.475 246.179 457.669 246.188 457.861 246.174C458.122 246.157 458.369 246.054 458.566 245.883V245.883C458.566 245.883 460.058 245.266 460.64 242.826C460.64 242.826 461.07 242.294 461.052 242.158L460.161 242.541C460.161 242.541 460.466 243.187 460.225 243.724C460.225 243.724 460.196 242.564 460.025 242.593C459.989 242.593 459.559 242.815 459.559 242.815C459.559 242.815 460.085 243.942 459.688 244.76C459.688 244.76 459.84 243.372 459.394 242.898L458.764 243.265C458.764 243.265 459.379 244.428 458.962 245.377C458.962 245.377 459.069 243.922 458.63 243.354L458.06 243.8C458.06 243.8 458.637 244.947 458.283 245.733C458.283 245.733 458.236 244.04 457.933 243.911C457.716 244.095 457.523 244.303 457.356 244.533C457.356 244.533 457.752 245.366 457.507 245.805C457.507 245.805 457.356 244.675 457.233 244.671C457.233 244.671 456.734 245.419 456.683 245.932C456.707 245.456 456.855 244.995 457.113 244.595C456.825 244.649 456.56 244.786 456.349 244.989C456.349 244.989 456.427 244.461 457.24 244.415C457.24 244.415 457.652 243.847 457.761 243.813C457.761 243.813 456.957 243.746 456.469 243.963C456.469 243.963 456.899 243.464 457.908 243.689L458.474 243.23C458.474 243.23 457.414 243.085 456.966 243.245C456.966 243.245 457.483 242.8 458.626 243.125L459.241 242.757C458.767 242.654 458.283 242.612 457.799 242.633C457.799 242.633 458.367 242.327 459.419 242.659L459.864 242.461C459.864 242.461 459.196 242.332 459.009 242.312C458.822 242.292 458.804 242.236 458.804 242.236C459.223 242.166 459.653 242.214 460.047 242.374C460.047 242.374 460.963 242.031 460.947 241.971Z" fill="#6C63FF"/>
<path opacity="0.1" d="M457.291 247.288C459.367 247.288 461.05 247.004 461.05 246.653C461.05 246.303 459.367 246.019 457.291 246.019C455.215 246.019 453.533 246.303 453.533 246.653C453.533 247.004 455.215 247.288 457.291 247.288Z" fill="#6C63FF"/>
<path d="M429.602 245.201C429.602 245.201 423.19 244.813 423.948 249.306C423.909 249.534 423.942 249.768 424.044 249.976C424.147 250.183 424.312 250.353 424.516 250.46C424.516 250.46 424.516 250.128 425.173 250.238C425.404 250.276 425.638 250.288 425.871 250.273C426.185 250.25 426.483 250.127 426.722 249.921V249.921C426.722 249.921 428.524 249.177 429.226 246.23C429.226 246.23 429.745 245.589 429.723 245.424L428.642 245.885C428.642 245.885 429.012 246.667 428.72 247.315C428.72 247.315 428.687 245.914 428.477 245.947C428.435 245.947 427.916 246.217 427.916 246.217C427.916 246.217 428.551 247.578 428.072 248.565C428.072 248.565 428.255 246.89 427.718 246.315L426.956 246.76C426.956 246.76 427.698 248.164 427.194 249.311C427.194 249.311 427.323 247.553 426.795 246.861L426.105 247.397C426.105 247.397 426.804 248.781 426.379 249.732C426.379 249.732 426.323 247.687 425.955 247.531C425.955 247.531 425.352 248.063 425.26 248.282C425.26 248.282 425.737 249.286 425.441 249.817C425.441 249.817 425.26 248.456 425.111 248.449C425.111 248.449 424.509 249.351 424.443 249.97C424.473 249.398 424.652 248.844 424.962 248.362C424.615 248.428 424.295 248.594 424.042 248.839C424.042 248.839 424.135 248.199 425.111 248.144C425.111 248.144 425.608 247.46 425.741 247.417C425.741 247.417 424.77 247.337 424.182 247.598C424.182 247.598 424.699 246.994 425.917 247.268L426.599 246.714C426.599 246.714 425.323 246.538 424.779 246.731C424.779 246.731 425.403 246.199 426.784 246.587L427.526 246.141C427.526 246.141 426.437 245.905 425.786 245.99C425.786 245.99 426.472 245.622 427.742 246.021L428.275 245.802C428.275 245.802 427.477 245.647 427.243 245.622C427.009 245.598 426.998 245.533 426.998 245.533C427.504 245.449 428.023 245.507 428.497 245.7C428.497 245.7 429.622 245.272 429.602 245.201Z" fill="#6C63FF"/>
<path opacity="0.1" d="M425.187 251.619C427.693 251.619 429.725 251.276 429.725 250.852C429.725 250.429 427.693 250.086 425.187 250.086C422.68 250.086 420.648 250.429 420.648 250.852C420.648 251.276 422.68 251.619 425.187 251.619Z" fill="#6C63FF"/>
<path opacity="0.1" d="M375.979 247.531L353.63 256.176L320.965 268.8C319.733 266.512 317.915 263.383 315.664 259.667C307.929 246.847 295.127 226.908 283.734 209.386C270.892 189.643 259.842 172.972 259.842 172.972L267.842 170.653L333.192 151.703L375.979 247.531Z" fill="black"/>
<path d="M376.424 245.972L354.076 254.617L321.41 267.241C320.178 264.953 318.36 261.823 316.11 258.108C308.375 245.288 295.573 225.349 284.179 207.827C271.338 188.084 260.287 171.412 260.287 171.412L268.288 169.094L333.637 150.144L376.424 245.972Z" fill="white"/>
<path opacity="0.1" d="M376.424 245.972L354.076 254.617C341.594 257.217 328.857 258.388 316.11 258.108C308.375 245.288 295.573 225.349 284.179 207.827L268.288 169.094L333.637 150.144L376.424 245.972Z" fill="black"/>
<path d="M393.051 240.594C393.051 240.594 358.331 261.128 306.497 256.495L265.169 155.766L284.973 152.364L353.432 140.609L392.276 238.647L393.051 240.594Z" fill="#6C63FF"/>
<path opacity="0.1" d="M392.276 238.647C384.099 239.048 374.644 239.011 365.126 237.877C354.829 236.669 344.483 234.17 335.593 229.595C328.17 225.77 321.822 221.615 316.286 216.628C301.891 203.681 292.982 185.161 284.981 152.364L353.441 140.609L392.276 238.647Z" fill="black"/>
<path d="M417.743 233.016C417.743 233.016 392.14 238.033 366.105 234.943C355.807 233.729 345.45 231.236 336.571 226.661C329.148 222.836 322.8 218.682 317.264 213.694C299.441 197.656 290.037 173.103 280.336 123.497C280.336 123.497 322.89 133.764 364.933 111.274C364.933 111.274 379.113 199.77 417.743 233.016Z" fill="white"/>
<path opacity="0.1" d="M366.105 234.943C355.807 233.729 345.449 231.236 336.571 226.661C329.148 222.836 322.8 218.682 317.264 213.694C332.434 212.462 334.615 204.169 334.615 204.169C345.862 222.016 366.105 234.943 366.105 234.943Z" fill="black"/>
<path opacity="0.3" d="M302.341 141.71C302.341 141.71 325.2 144.318 346.595 132.298L348.061 137.005C348.061 137.005 327.593 147.21 302.341 147.21V141.71Z" fill="#6C63FF"/>
<path opacity="0.3" d="M302.441 165.32C302.441 165.32 329.165 163.172 358.915 148.849L359.921 151.141C359.921 151.141 348.972 164.866 302.441 168.452V165.32Z" fill="black"/>
<path opacity="0.3" d="M305.115 174.012C305.115 174.012 332.149 172.182 362.246 159.987L363.263 161.939C363.263 161.939 352.19 173.638 305.115 176.694V174.012Z" fill="black"/>
<path opacity="0.3" d="M307.565 183.813C307.565 183.813 335.118 181.984 365.791 169.789L366.828 171.74C366.828 171.74 355.526 183.433 307.565 186.495V183.813Z" fill="black"/>
<path opacity="0.3" d="M310.461 192.053C310.461 192.053 337.703 190.224 368.03 178.031L369.056 179.982C369.056 179.982 357.897 191.675 310.461 194.738V192.053Z" fill="black"/>
<path opacity="0.1" d="M313.135 200.866C313.135 200.866 340.791 198.817 371.579 185.159L372.621 187.344C372.621 187.344 361.29 200.443 313.135 203.871V200.866Z" fill="black"/>
<path d="M433.533 191.523L433.294 191.3C433.909 191.176 434.488 191.12 434.488 191.12C434.488 191.12 432.379 183.488 428.821 180.942C427.06 179.683 425.595 177.587 424.559 175.79C422.67 172.539 420.549 169.429 418.211 166.485L417.57 165.676L417.293 165.324C417.679 164.741 418.151 164.186 418.098 163.509C418.097 163.505 418.097 163.5 418.098 163.496C418.1 163.46 418.1 163.424 418.098 163.389C418.091 163.305 418.076 163.222 418.053 163.141L418.029 163.179C417.728 162.306 416.571 161.921 415.714 161.44C413.709 160.31 412.851 157.842 412.423 155.548C412.089 153.766 411.813 151.761 410.418 150.614C409.527 149.876 408.315 149.633 407.417 148.901C406.566 148.206 406.091 147.152 405.557 146.183C404.665 144.568 403.489 143.064 401.936 142.1C400.383 141.135 398.412 140.763 396.707 141.409C396.055 141.659 395.462 142.046 394.816 142.316C393.212 142.984 391.374 142.895 389.785 143.601C387.829 144.47 386.557 146.39 385.394 148.212C384.792 149.154 383.848 150.533 383.311 151.921C383.311 151.872 383.311 151.825 383.311 151.776C383.053 152.388 382.913 153.042 382.896 153.705C382.886 153.988 382.917 154.27 382.988 154.543C383.228 155.434 383.946 155.926 384.797 156.269C384.846 156.553 384.912 156.833 384.993 157.109C385.378 158.377 386.063 159.533 386.99 160.479C387.917 161.426 389.058 162.135 390.318 162.547C390.391 162.573 390.467 162.591 390.54 162.614C390.602 162.79 390.692 162.955 390.806 163.104C391.516 163.995 392.942 163.741 393.869 163.092C393.907 163.068 393.942 163.037 393.978 163.01C393.984 163.136 393.998 163.262 394.018 163.386C394.038 163.493 394.054 163.609 394.076 163.705C394.912 168.207 397.05 170.637 397.05 170.637C397.05 170.637 397.249 170.936 397.572 171.43C397.402 173.914 398.536 176.177 399.846 177.926C398.717 178.579 396.282 179.857 394.776 179.75C394.776 179.75 389.242 180.465 388.6 180.107C388.511 180.058 388.426 180.125 388.346 180.276C386.822 179.347 381.95 176.67 381.533 180.107C381.156 183.225 385.597 183.624 387.711 183.64C387.615 184.553 387.562 185.284 387.562 185.284L396.654 184.662L401.388 183.965C400.865 184.658 400.274 185.275 399.697 185.575C399.697 185.575 395.417 189.039 394.678 189.07C394.573 189.07 394.54 189.175 394.555 189.342C392.755 189.342 387.156 189.603 388.709 192.721C390.119 195.548 394.089 193.592 395.885 192.512C396.309 193.334 396.669 193.978 396.669 193.978L404.006 188.754L405.594 187.418C406.133 187.392 406.665 187.289 407.174 187.112C407.174 187.132 407.19 187.153 407.196 187.17C407.253 187.334 407.296 187.503 407.323 187.674C407.769 190.233 406.272 196.203 406.272 196.203C406.272 196.203 402.979 204.599 404.561 205.744C406.143 206.889 404.973 211.721 404.973 211.721C405.249 212.185 405.567 212.623 405.922 213.03V213.03C406.09 213.224 406.275 213.401 406.477 213.558C406.403 213.758 406.342 213.963 406.294 214.171C406.052 215.2 406.144 216.28 406.555 217.254C407.642 219.891 406.98 223.714 406.98 223.714L404.846 238.131C403.821 237.975 402.498 237.846 402.005 238.131C401.25 238.556 401.497 240.701 403.251 241.624C402.718 242.031 402.102 242.315 401.446 242.454C399.887 242.811 398.79 243.038 398.069 243.176C398.022 243.176 394.326 242.361 393.377 242.9C392.427 243.439 392.884 246.428 395.584 247.161C398.227 247.876 408.081 248.926 410.919 248.498L411.1 248.467C413.513 247.99 411.394 244.82 411.126 244.435C411.109 244.306 411.093 244.17 411.075 244.023C411.037 243.693 411.004 243.314 410.979 242.909C413.671 243.156 416.326 243.276 417.545 243.094C417.603 243.094 417.656 243.076 417.705 243.065C419.842 242.642 417.971 239.839 417.73 239.501C417.72 239.415 417.708 239.323 417.697 239.227V239.202C417.697 239.138 417.681 239.069 417.674 239.002C417.668 238.935 417.674 238.888 417.656 238.828C417.639 238.768 417.656 238.721 417.641 238.665C417.632 238.555 417.623 238.442 417.614 238.324C417.614 238.278 417.614 238.229 417.614 238.18C417.614 238.091 417.603 238.002 417.599 237.91C417.599 237.861 417.599 237.812 417.599 237.761C417.599 237.627 417.599 237.489 417.585 237.351C417.585 237.313 417.585 237.275 417.585 237.237C417.585 237.126 417.585 237.015 417.585 236.899C417.585 236.845 417.585 236.792 417.585 236.736C417.585 236.618 417.585 236.5 417.585 236.38C417.585 236.34 417.585 236.302 417.585 236.262C417.585 236.113 417.599 235.959 417.607 235.805L417.621 235.64C417.621 235.527 417.639 235.418 417.65 235.302C417.65 235.246 417.65 235.19 417.668 235.135C417.685 234.979 417.705 234.823 417.728 234.665C417.728 234.618 417.743 234.571 417.75 234.524C417.77 234.406 417.79 234.286 417.812 234.166C417.812 234.108 417.835 234.048 417.848 233.987C417.875 233.858 417.904 233.729 417.935 233.6C417.935 233.564 417.951 233.529 417.959 233.493C418 233.337 418.044 233.183 418.091 233.03C418.106 232.976 418.124 232.923 418.142 232.869C418.18 232.753 418.22 232.646 418.262 232.526L418.316 232.384C418.376 232.232 418.441 232.083 418.508 231.938C418.525 231.9 418.545 231.862 418.565 231.824C418.621 231.709 418.681 231.602 418.744 231.481L418.819 231.35C418.904 231.207 418.991 231.065 419.087 230.929C421.537 227.436 422.184 220.7 422.123 219.234C422.063 217.768 422.415 214.728 422.854 214.278C423.148 213.977 424.859 211.605 425.882 209.8C426.067 209.471 426.227 209.161 426.354 208.885C427.081 208.633 427.562 208.439 427.562 208.439C427.306 207.504 427.183 206.537 427.196 205.568C427.214 203.672 427.736 201.175 429.888 199.148C433.065 196.154 433.508 193.187 433.55 192.047C433.55 191.966 433.55 191.895 433.55 191.835C433.544 191.626 433.533 191.523 433.533 191.523Z" fill="url(#paint2_linear)"/>
<path d="M425.067 210.206C424.204 211.746 423.237 213.225 422.17 214.632C421.751 215.077 421.415 218.087 421.473 219.533C421.531 220.978 420.918 227.643 418.577 231.096C416.235 234.549 417.438 240.516 417.438 240.516L413.702 241.826H409.213L406.12 240.902L405.305 238.652C405.305 238.652 406.392 238.485 409.092 237.843C409.841 237.691 410.52 237.298 411.025 236.724C411.529 236.15 411.833 235.427 411.888 234.665L413.784 221.426C413.784 221.426 414.344 218.085 413.421 215.772C413.161 215.122 413.054 214.42 413.106 213.721C413.159 213.023 413.37 212.345 413.724 211.741L413.784 211.647C413.784 211.647 416.71 209.337 419.691 207.891C422.331 206.617 425.009 206.011 425.768 208.272C425.866 208.564 425.546 209.315 425.067 210.206Z" fill="#A5636D"/>
<path opacity="0.05" d="M425.067 210.206C424.204 211.746 423.237 213.225 422.17 214.632C421.751 215.077 421.415 218.087 421.473 219.533C421.531 220.978 420.918 227.643 418.577 231.096C416.928 233.531 417.037 237.211 417.24 239.173C417.327 239.995 417.434 240.51 417.434 240.51L413.697 241.82H409.213L406.12 240.902L405.305 238.652C405.305 238.652 405.577 238.61 406.196 238.489C406.815 238.369 407.756 238.164 409.106 237.843C409.852 237.688 410.528 237.294 411.03 236.72C411.532 236.147 411.834 235.425 411.888 234.665L413.784 221.426C413.784 221.426 414.344 218.085 413.421 215.772C413.161 215.122 413.054 214.42 413.106 213.721C413.159 213.023 413.37 212.345 413.724 211.741L413.784 211.647C413.784 211.647 416.71 209.337 419.691 207.891C422.331 206.617 425.009 206.011 425.768 208.272C425.866 208.564 425.546 209.315 425.067 210.206Z" fill="black"/>
<path opacity="0.1" d="M417.438 240.519L413.702 241.828H409.213L406.12 240.902L405.305 238.652C405.305 238.652 405.577 238.61 406.196 238.489C406.152 238.898 406.26 239.309 406.498 239.644C406.737 239.979 407.09 240.215 407.49 240.307L409.246 240.367C409.493 240.367 409.743 240.381 409.988 240.381C412.457 240.382 414.91 239.975 417.247 239.175C417.336 239.997 417.438 240.519 417.438 240.519Z" fill="black"/>
<path d="M409.244 240.746L407.486 240.686C407.486 240.686 405.846 240.338 406.247 238.478C406.247 238.478 403.084 237.761 402.275 238.235C401.466 238.71 401.856 241.327 404.142 241.969C406.37 242.595 414.716 243.515 417.115 243.138L417.269 243.112C419.443 242.666 417.269 239.547 417.269 239.547C414.689 240.43 411.969 240.836 409.244 240.746Z" fill="#BEBED0"/>
<path d="M420.069 210.718C419.951 210.954 419.824 211.199 419.679 211.455C418.577 213.46 416.808 215.984 416.498 216.312C416.026 216.815 415.649 220.21 415.709 221.849C415.769 223.489 415.083 231 412.441 234.898C411.089 236.903 410.783 239.632 410.806 241.828C410.812 242.573 410.856 243.316 410.937 244.056C411.035 244.963 411.16 245.528 411.16 245.528L406.945 247.005H401.872L398.38 245.967L397.467 243.419C397.467 243.419 397.772 243.37 398.458 243.234C399.145 243.098 400.214 242.871 401.742 242.51C402.586 242.336 403.349 241.891 403.917 241.244C404.485 240.597 404.827 239.782 404.89 238.924L407.027 223.983C407.027 223.983 407.658 220.208 406.619 217.601C406.227 216.634 406.14 215.57 406.37 214.552C406.494 213.98 406.72 213.435 407.038 212.943C407.038 212.943 407.854 212.302 409.083 211.453C409.627 211.079 410.258 210.665 410.935 210.246C413.911 208.404 417.826 206.524 419.702 207.894C420.115 208.206 420.418 208.642 420.566 209.139C420.642 209.397 420.43 209.983 420.069 210.718Z" fill="#A5636D"/>
<path opacity="0.1" d="M411.149 245.531L406.933 247.008H401.872L398.38 245.97L397.467 243.421C397.467 243.421 397.772 243.372 398.458 243.236C398.415 243.538 398.446 243.846 398.549 244.133C398.652 244.42 398.825 244.678 399.051 244.882C399.402 245.181 399.847 245.348 400.308 245.355L401.905 245.406C402.184 245.406 402.464 245.422 402.743 245.422C405.531 245.421 408.299 244.96 410.937 244.058C411.035 244.965 411.149 245.531 411.149 245.531Z" fill="black"/>
<path d="M401.903 245.785L400.308 245.731C399.846 245.723 399.402 245.557 399.049 245.259C398.643 244.898 398.294 244.274 398.521 243.225C398.521 243.225 394.956 242.417 394.036 242.951C393.116 243.486 393.566 246.442 396.144 247.166C398.668 247.872 408.079 248.91 410.788 248.487L410.959 248.456C413.41 247.952 410.959 244.428 410.959 244.428C408.048 245.428 404.979 245.888 401.903 245.785V245.785Z" fill="#BEBED0"/>
<path opacity="0.1" d="M425.066 210.206C423.54 210.738 421.299 211.444 420.069 211.473C419.942 211.478 419.814 211.472 419.688 211.455V211.455C418.828 211.337 416.17 211.527 413.733 211.745C412.755 211.832 411.815 211.923 411.037 212.003C409.879 212.124 409.081 212.211 409.081 212.211V211.455C409.625 211.081 410.255 210.667 410.932 210.248C413.909 208.406 417.823 206.526 419.699 207.896C422.339 206.622 425.017 206.016 425.777 208.277C425.866 208.564 425.545 209.315 425.066 210.206Z" fill="black"/>
<path d="M432.39 192.637C432.347 193.766 431.924 196.698 428.89 199.66C425.022 203.436 426.662 208.858 426.662 208.858C426.662 208.858 422.05 210.669 420.06 210.718C419.933 210.723 419.806 210.717 419.679 210.7C418.485 210.533 413.744 210.972 411.019 211.248C409.861 211.369 409.063 211.455 409.063 211.455V195.417L430.436 190.229L432.372 192.156C432.389 192.315 432.395 192.476 432.39 192.637Z" fill="#5C5C8E"/>
<g opacity="0.1">
<path opacity="0.1" d="M409.424 211.257L409.072 211.295V211.464C409.072 211.464 409.87 211.377 411.028 211.257C412.984 211.059 415.972 210.78 417.948 210.698C416.58 210.573 412.062 210.99 409.424 211.257Z" fill="black"/>
<path opacity="0.1" d="M432.381 192.165L430.445 190.236L429.155 190.559L430.777 192.174C430.788 192.334 430.788 192.496 430.777 192.657C430.734 193.784 430.311 196.718 427.277 199.68C423.409 203.454 425.049 208.878 425.049 208.878C425.049 208.878 421.232 210.375 419.047 210.685C419.255 210.684 419.463 210.695 419.671 210.718C419.797 210.736 419.924 210.742 420.051 210.738C422.041 210.689 426.653 208.878 426.653 208.878C426.653 208.878 425.004 203.454 428.881 199.68C431.915 196.718 432.338 193.784 432.381 192.657C432.392 192.493 432.392 192.328 432.381 192.165Z" fill="black"/>
</g>
<path d="M389.68 181.307C389.68 181.307 383.219 176.825 382.745 180.862C382.27 184.898 389.68 184.321 389.68 184.321V181.307Z" fill="#A5636D"/>
<path d="M400.82 178.336C400.82 178.336 397.324 180.648 395.391 180.505C395.391 180.505 390.106 181.214 389.491 180.86C388.876 180.505 388.502 185.983 388.502 185.983L397.191 185.37L402.761 184.52C402.761 184.52 405.546 182.822 405.546 181.359C405.546 179.895 400.82 178.336 400.82 178.336Z" fill="#F7CDDD"/>
<path opacity="0.05" d="M400.82 178.336C400.82 178.336 397.324 180.648 395.391 180.505C395.391 180.505 390.106 181.214 389.491 180.86C388.876 180.505 388.502 185.983 388.502 185.983L397.191 185.37L402.761 184.52C402.761 184.52 405.546 182.822 405.546 181.359C405.546 179.895 400.82 178.336 400.82 178.336Z" fill="black"/>
<path d="M395.694 189.999C395.694 189.999 387.836 189.674 389.596 193.341C391.356 197.007 397.311 192.557 397.311 192.557L395.694 189.999Z" fill="#A5636D"/>
<path d="M403.598 182.205C403.598 182.205 397.229 177.44 398.126 171.637C399.024 165.835 403.598 176.079 403.598 176.079V182.205Z" fill="#5C5C8E"/>
<path d="M401.838 155.897C401.836 157.985 401.024 159.99 399.572 161.491C399.219 161.86 398.829 162.192 398.409 162.482C397.607 163.041 396.713 163.455 395.767 163.703C395.391 163.797 395.009 163.864 394.624 163.906C394.348 163.932 394.069 163.948 393.786 163.948C392.883 163.953 391.985 163.802 391.133 163.502C389.738 163.015 388.504 162.154 387.565 161.012C386.627 159.871 386.021 158.493 385.814 157.03C385.607 155.567 385.807 154.076 386.391 152.719C386.975 151.362 387.921 150.191 389.127 149.336C390.332 148.481 391.749 147.974 393.223 147.871C394.697 147.767 396.171 148.072 397.484 148.75C398.796 149.429 399.897 150.455 400.665 151.717C401.433 152.98 401.839 154.429 401.838 155.906V155.897Z" fill="#A5636D"/>
<path opacity="0.1" d="M432.39 192.637C431.668 192.77 430.777 193.011 430.777 193.385C430.777 194.016 420.711 197.413 420.711 197.413C420.711 197.413 421.087 198.29 420.083 199.801C419.078 201.311 410.897 209.99 410.897 209.99L410.924 210.248L411.028 211.248L411.527 216.029C411.527 216.029 408.382 214.897 407.375 215.022C407.049 215.064 406.706 214.855 406.37 214.554C406.494 213.982 406.72 213.437 407.038 212.946C407.038 212.946 407.854 212.304 409.083 211.455V195.417L430.456 190.229L432.392 192.156C432.402 192.316 432.401 192.477 432.39 192.637V192.637Z" fill="black"/>
<path d="M433.294 191.75C433.294 191.75 430.777 192 430.777 192.63C430.777 193.261 420.711 196.658 420.711 196.658C420.711 196.658 421.087 197.535 420.083 199.046C419.078 200.556 410.897 209.237 410.897 209.237L411.527 215.274C411.527 215.274 408.382 214.142 407.375 214.267C406.929 214.322 406.428 213.908 406.016 213.425C405.675 213.021 405.371 212.588 405.109 212.13C405.109 212.13 406.243 207.348 404.732 206.216C403.222 205.085 406.368 196.782 406.368 196.782C406.368 196.782 407.789 190.879 407.37 188.347C407.344 188.177 407.304 188.01 407.25 187.848C407.25 187.83 407.239 187.81 407.232 187.792C406.341 185.373 396.681 165.071 396.681 165.071C396.687 164.495 396.727 163.92 396.801 163.349C396.821 163.19 396.848 163.026 396.877 162.859C396.926 162.558 396.991 162.261 397.073 161.968C397.124 161.78 397.185 161.594 397.255 161.413C397.554 160.647 398.011 160.056 398.692 160.043C398.692 160.043 399.448 159.208 401.219 158.98C402.515 158.811 404.367 158.98 406.873 160.043C412.784 162.556 414.17 162.685 414.17 162.685L417.14 166.583L417.75 167.383C419.988 170.301 422.014 173.375 423.812 176.583C424.801 178.365 426.203 180.434 427.883 181.679C431.28 184.203 433.294 191.75 433.294 191.75Z" fill="#F7CDDD"/>
<path opacity="0.1" d="M411.242 177.204C411.242 177.204 419.641 179.28 422.896 184.515L411.242 177.204Z" fill="black"/>
<path opacity="0.1" d="M413.838 186.402C413.838 186.402 415.426 197.065 414.985 197.867C414.544 198.669 413.838 186.402 413.838 186.402Z" fill="black"/>
<path opacity="0.1" d="M413.27 191.875C412.659 192.675 410.18 198.856 410.18 198.856L410.895 209.237L411.525 215.274C411.525 215.274 408.382 214.142 407.375 214.267C406.929 214.322 406.426 213.908 406.016 213.425C406.668 209.889 408.065 202.492 408.317 202.349C408.649 202.16 410.349 196.217 410.438 194.553C410.527 192.889 412.889 189.18 412.889 189.18C412.889 189.18 413.885 191.075 413.27 191.875Z" fill="black"/>
<path opacity="0.1" d="M410.897 181.686C410.741 182.156 410.5 184.894 410.5 184.894C410.327 187.304 408.495 188.093 407.37 188.347C407.344 188.177 407.304 188.01 407.25 187.848C406.495 185.711 396.681 165.079 396.681 165.079C396.691 164.033 396.822 162.991 397.073 161.974C399.209 161.346 402.591 162.313 402.591 162.313C403.569 162.184 406.76 168.526 406.76 168.526C406.76 168.526 408.885 173.382 409.119 174.043C409.353 174.705 409.119 175.79 409.213 176.168C409.306 176.547 410.3 176.872 410.44 177.394C410.581 177.915 410.489 178.953 410.583 179.138C410.676 179.323 411.055 181.214 410.897 181.686Z" fill="black"/>
<path d="M410.142 181.307C409.986 181.78 409.745 184.515 409.745 184.515C409.602 186.52 408.31 187.411 407.232 187.792C406.746 187.966 406.237 188.067 405.721 188.093L404.204 189.411L397.197 194.568C397.197 194.568 394.586 189.741 395.295 189.714C396.003 189.688 400.089 186.257 400.089 186.257C401.339 185.589 402.591 183.361 403.173 182.216C403.139 182.08 403.114 181.941 403.097 181.802C402.845 179.666 397.56 171.486 397.56 171.486C397.56 171.486 395.517 169.082 394.722 164.629C394.7 164.527 394.684 164.422 394.664 164.315C394.642 164.177 394.628 164.037 394.624 163.897C394.528 162.184 395.776 161.56 397.255 161.413C398.028 161.352 398.805 161.375 399.572 161.484C400.337 161.58 401.094 161.729 401.838 161.93C402.471 161.845 404.03 164.476 405.053 166.34C405.603 167.352 406 168.14 406 168.14C406 168.14 408.125 172.998 408.359 173.658C408.593 174.317 408.359 175.407 408.453 175.783C408.546 176.159 409.54 176.489 409.68 177.01C409.821 177.532 409.729 178.57 409.823 178.755C409.917 178.939 410.3 180.835 410.142 181.307Z" fill="#F7CDDD"/>
<path opacity="0.1" d="M418.269 170.423C416.932 171.789 414.774 171.793 413.04 171.092C411.307 170.39 409.839 169.134 408.232 168.156C407.19 167.519 406.085 166.997 405.058 166.34C404.906 166.242 404.759 166.144 404.612 166.042C403.427 165.204 402.4 164.128 401.172 163.369C400.351 162.823 399.395 162.514 398.409 162.478C397.956 162.474 397.507 162.568 397.093 162.754C397.016 162.785 396.942 162.821 396.87 162.863C396.466 163.095 396.092 163.375 395.756 163.698C395.408 164.01 395.076 164.342 394.711 164.634C394.689 164.531 394.673 164.427 394.653 164.32C394.631 164.181 394.617 164.041 394.613 163.901C394.337 163.928 394.058 163.943 393.775 163.943C392.872 163.949 391.974 163.798 391.122 163.498C391.122 163.464 391.122 163.431 391.102 163.398C390.801 161.812 390.257 160.132 388.981 159.241C388.241 158.724 387.06 158.513 386.036 158.127C385.68 156.891 385.627 155.588 385.879 154.327C386.131 153.066 386.681 151.883 387.484 150.879C388.287 149.874 389.319 149.076 390.494 148.552C391.669 148.028 392.952 147.793 394.236 147.867C395.52 147.941 396.768 148.321 397.875 148.976C398.982 149.631 399.916 150.542 400.598 151.632C401.281 152.721 401.693 153.959 401.799 155.241C401.905 156.522 401.702 157.811 401.208 158.998C402.504 158.829 404.356 158.998 406.862 160.061C412.773 162.573 414.159 162.703 414.159 162.703L417.128 166.601C416.808 167.091 416.444 167.574 416.411 168.147C416.355 169.196 417.378 169.929 418.269 170.423Z" fill="black"/>
<path d="M388.99 158.481C390.266 159.372 390.81 161.05 391.113 162.634C391.206 163.128 391.296 163.649 391.599 164.041C392.267 164.919 393.639 164.672 394.524 164.041C395.408 163.411 396.106 162.455 397.093 162.01C398.403 161.417 399.944 161.849 401.172 162.618C402.4 163.386 403.427 164.462 404.612 165.291C405.759 166.1 407.038 166.677 408.232 167.405C409.839 168.383 411.307 169.646 413.04 170.341C414.773 171.036 416.939 171.034 418.267 169.673C417.376 169.178 416.353 168.448 416.422 167.387C416.491 166.327 417.725 165.536 417.643 164.449C417.561 163.362 416.282 162.937 415.364 162.402C413.448 161.288 412.63 158.838 412.22 156.577C411.902 154.808 411.639 152.832 410.318 151.696C409.464 150.965 408.312 150.727 407.452 150.003C406.639 149.315 406.187 148.275 405.67 147.314C404.817 145.717 403.696 144.232 402.215 143.276C400.733 142.32 398.848 141.939 397.222 142.594C396.598 142.841 396.03 143.225 395.415 143.485C393.882 144.154 392.129 144.058 390.612 144.755C388.742 145.615 387.528 147.513 386.416 149.315C385.476 150.859 383.611 153.581 384.139 155.585C384.665 157.624 387.604 157.515 388.99 158.481Z" fill="#4C3E42"/>
<g opacity="0.1">
<path opacity="0.1" d="M417.641 164.326C417.634 164.244 417.62 164.162 417.598 164.081C417.26 164.614 416.839 165.131 416.799 165.754C416.79 165.899 416.802 166.043 416.834 166.184C417.211 165.585 417.694 165.022 417.641 164.326Z" fill="black"/>
<path opacity="0.1" d="M413.417 168.715C411.683 168.02 410.217 166.757 408.611 165.779C407.415 165.05 406.136 164.474 404.988 163.665C403.803 162.827 402.776 161.751 401.548 160.992C400.321 160.232 398.781 159.791 397.469 160.381C396.482 160.827 395.787 161.774 394.9 162.415C394.014 163.057 392.655 163.306 391.975 162.415C391.672 162.023 391.583 161.502 391.489 161.007C391.189 159.424 390.643 157.746 389.368 156.855C387.98 155.886 385.042 155.995 384.509 153.959C384.42 153.595 384.397 153.218 384.44 152.846C384.099 153.754 383.923 154.668 384.131 155.463C384.665 157.508 387.604 157.399 388.99 158.359C390.266 159.25 390.81 160.929 391.113 162.513C391.206 163.008 391.296 163.529 391.596 163.921C392.265 164.799 393.637 164.552 394.524 163.91C395.411 163.268 396.103 162.324 397.093 161.878C398.403 161.288 399.944 161.72 401.172 162.489C402.4 163.257 403.427 164.333 404.612 165.162C405.759 165.973 407.038 166.547 408.232 167.276C409.839 168.256 411.307 169.519 413.04 170.214C414.773 170.909 416.939 170.905 418.267 169.546C417.923 169.361 417.597 169.146 417.293 168.902C416.086 169.345 414.644 169.207 413.417 168.715Z" fill="black"/>
</g>
<path d="M373.985 183.951L391.808 177.295C392.017 177.217 392.238 177.181 392.461 177.189C392.683 177.196 392.902 177.248 393.105 177.34C393.307 177.432 393.49 177.564 393.642 177.726C393.793 177.889 393.912 178.08 393.989 178.289V178.289C394.067 178.498 394.103 178.719 394.095 178.942C394.087 179.164 394.036 179.383 393.943 179.586C393.851 179.788 393.719 179.97 393.556 180.122C393.393 180.274 393.202 180.392 392.993 180.47L375.17 187.128L371.351 186.745L373.985 183.951Z" fill="#5C5C8E"/>
<path opacity="0.1" d="M393.448 177.754C393.605 178.176 393.589 178.643 393.402 179.052C393.215 179.461 392.873 179.78 392.452 179.937L374.629 186.593L371.759 186.306L371.347 186.752L375.166 187.135L392.989 180.476C393.197 180.399 393.389 180.281 393.552 180.129C393.715 179.977 393.846 179.795 393.939 179.592C394.031 179.39 394.083 179.171 394.091 178.949C394.099 178.726 394.063 178.504 393.985 178.296V178.296C393.854 177.944 393.61 177.647 393.292 177.449C393.353 177.546 393.405 177.648 393.448 177.754Z" fill="white"/>
<path d="M373.985 183.951L375.172 187.128L372.038 186.814L371.351 186.745L372.289 185.751L373.985 183.951Z" fill="#EFC8C4"/>
<path d="M372.287 185.751C372.361 185.805 372.423 185.873 372.47 185.952C372.499 185.998 372.515 186.052 372.515 186.107C372.515 186.162 372.499 186.215 372.47 186.261C372.418 186.311 372.36 186.352 372.296 186.384C372.224 186.432 372.163 186.495 372.119 186.57C372.075 186.644 372.049 186.728 372.042 186.814L371.356 186.745L372.287 185.751Z" fill="#727A9C"/>
<rect x="-89.2444" y="326.044" width="149.689" height="95.2889" rx="134" fill="url(#paint3_linear)"/>
</g>
<defs>
<linearGradient id="paint0_linear" x1="613.755" y1="-3.83118" x2="347.259" y2="338.804" gradientUnits="userSpaceOnUse">
<stop stop-color="#EDEBEF" stop-opacity="0.24"/>
<stop offset="1" stop-color="#FBFBFB"/>
</linearGradient>
<linearGradient id="paint1_linear" x1="617.415" y1="-9.59098" x2="369.54" y2="309.103" gradientUnits="userSpaceOnUse">
<stop stop-color="#9963FF"/>
<stop offset="1" stop-color="#4838BD"/>
</linearGradient>
<linearGradient id="paint2_linear" x1="408.01" y1="248.585" x2="408.01" y2="141.079" gradientUnits="userSpaceOnUse">
<stop stop-color="#808080" stop-opacity="0.25"/>
<stop offset="0.54" stop-color="#808080" stop-opacity="0.12"/>
<stop offset="1" stop-color="#808080" stop-opacity="0.1"/>
</linearGradient>
<linearGradient id="paint3_linear" x1="101.903" y1="115.927" x2="-42.1423" y2="175.313" gradientUnits="userSpaceOnUse">
<stop stop-color="#FAFAFA"/>
<stop offset="1" stop-color="#E9E9E9"/>
</linearGradient>
<clipPath id="clip0">
<rect width="1440" height="1024" fill="white" transform="scale(0.355556)"/>
</clipPath>
</defs>
</svg>
