<svg width="80" height="80" viewBox="0 0 80 80" fill="none" xmlns="http://www.w3.org/2000/svg">
<path d="M38.7442 68.2898C37.4178 68.2898 36.1457 67.7567 35.2078 66.8078C34.2699 65.8589 33.743 64.5718 33.743 63.2299V35.3998C33.743 34.0578 33.2161 32.7708 32.2782 31.8219C31.3403 30.873 30.0683 30.3398 28.7419 30.3398H11.2378C12.5642 30.3398 13.8362 30.873 14.7741 31.8219C15.712 32.7708 16.239 34.0578 16.239 35.3998V63.2299C16.239 64.5718 16.7659 65.8589 17.7038 66.8078C18.6417 67.7567 19.9137 68.2898 21.2401 68.2898H38.7442Z" fill="url(#paint0_linear)"/>
<path d="M16.239 35.3998C16.239 34.0578 15.7121 32.7708 14.7742 31.8219C13.8363 30.873 12.5642 30.3398 11.2379 30.3398C9.91147 30.3398 8.6394 30.873 7.7015 31.8219C6.7636 32.7708 6.23669 34.0578 6.23669 35.3998V41.2098C6.23669 41.5148 6.35645 41.8074 6.56961 42.023C6.78277 42.2387 7.07187 42.3598 7.37332 42.3598H16.2687L16.239 35.3998Z" fill="#553FC9" stroke="#4550E5" stroke-linejoin="round"/>
<path d="M38.7442 68.2898C37.4178 68.2898 36.1457 67.7567 35.2078 66.8078C34.2699 65.8589 33.743 64.5718 33.743 63.2299V35.3998C33.743 34.0579 33.2161 32.7708 32.2782 31.8219C31.3403 30.873 30.0683 30.3398 28.7419 30.3398H11.2378C12.5642 30.3398 13.8362 30.873 14.7741 31.8219C15.712 32.7708 16.239 34.0579 16.239 35.3998V63.2299C16.239 64.5718 16.7659 65.8589 17.7038 66.8078C18.6417 67.7567 19.9137 68.2898 21.2401 68.2898H38.7442Z" stroke="#4550E5" stroke-linejoin="round"/>
<path d="M38.7442 68.2898C39.4388 68.2847 40.1247 68.1334 40.7583 67.8453C41.3918 67.5573 41.9591 67.1389 42.4241 66.6167C42.889 66.0946 43.2413 65.4802 43.4586 64.8127C43.6759 64.1452 43.7533 63.4392 43.686 62.7398C43.5311 61.4734 42.9223 60.3086 41.9749 59.4662C41.0276 58.6239 39.8077 58.1625 38.5465 58.1698H24.6105C24.5009 58.1807 24.3967 58.2234 24.3105 58.2926C24.2242 58.3619 24.1595 58.4548 24.1241 58.5602C24.0886 58.6657 24.084 58.7793 24.1106 58.8874C24.1373 58.9955 24.1941 59.0935 24.2744 59.1698C25.105 59.8122 25.7158 60.7018 26.0208 61.7136C26.3258 62.7253 26.3097 63.8084 25.9749 64.8104C25.64 65.8125 25.0032 66.6832 24.1539 67.3001C23.3046 67.917 22.2856 68.2491 21.2401 68.2498L38.7442 68.2898Z" fill="#895DF2" stroke="#4550E5" stroke-linejoin="round"/>
<path d="M29.9972 37.9302H20.6176" stroke="white" stroke-linecap="round" stroke-linejoin="round"/>
<path d="M29.9972 41.73H20.6176" stroke="white" stroke-linecap="round" stroke-linejoin="round"/>
<path d="M28.3467 45.5198H23.3456" stroke="white" stroke-linecap="round" stroke-linejoin="round"/>
<path d="M28.3464 49.3198H24.6005" stroke="white" stroke-linecap="round" stroke-linejoin="round"/>
<path d="M44.5657 43.16L39.2681 37.79L43.6861 31.53L50.7529 38.69L44.5657 43.16Z" fill="#D6DAFF"/>
<path d="M50.7627 38.6904L43.6859 31.5304L63.6807 13.6904C64.3745 13.0641 65.2801 12.7322 66.2094 12.7635C67.1387 12.7948 68.0203 13.187 68.6714 13.8586C69.3225 14.5302 69.693 15.4297 69.706 16.3704C69.719 17.311 69.3735 18.2206 68.7411 18.9104L50.7627 38.6904Z" fill="#D6DAFF"/>
<path d="M38.1117 50.23C37.7996 50.6523 37.3958 50.9965 36.9313 51.2357C36.4669 51.475 35.9543 51.6031 35.4332 51.61C33.7727 51.61 31.2029 51.87 29.5029 53C30.6099 51.31 30.8471 48.72 30.8669 47C30.8756 46.472 31.004 45.9531 31.2422 45.4833C31.4804 45.0135 31.822 44.6052 32.2407 44.29L37.9436 40L42.3617 44.47L38.1117 50.23Z" fill="white"/>
<path d="M42.3616 44.5L37.9337 40.03L39.268 37.79L44.5657 43.16L42.3616 44.5Z" fill="white" stroke="#4550E5" stroke-linejoin="round"/>
<path d="M38.1117 50.23C37.7996 50.6523 37.3958 50.9965 36.9313 51.2357C36.4669 51.475 35.9543 51.6031 35.4332 51.61C33.7727 51.61 31.2029 51.87 29.5029 53C30.6099 51.31 30.8471 48.72 30.8669 47C30.8756 46.472 31.004 45.9532 31.2422 45.4833C31.4804 45.0135 31.822 44.6052 32.2407 44.29L37.9436 40L42.3617 44.47L38.1117 50.23Z" stroke="#4550E5" stroke-linejoin="round"/>
<path d="M44.5657 43.16L39.2681 37.79L43.6861 31.53L50.7529 38.69L44.5657 43.16Z" stroke="#4550E5" stroke-linejoin="round"/>
<path d="M36.1746 48.0799C35.9394 48.3162 35.6214 48.4488 35.29 48.4488C34.9585 48.4488 34.6405 48.3162 34.4054 48.0799C34.2886 47.9627 34.1958 47.8233 34.1325 47.6697C34.0692 47.5161 34.0366 47.3513 34.0366 47.1849C34.0366 47.0184 34.0692 46.8537 34.1325 46.7C34.1958 46.5464 34.2886 46.407 34.4054 46.2899C34.6457 46.0837 34.9539 45.9765 35.2687 45.9896C35.5835 46.0027 35.882 46.1351 36.1048 46.3605C36.3276 46.5859 36.4584 46.8879 36.4714 47.2064C36.4843 47.5249 36.3784 47.8367 36.1746 48.0799Z" fill="#D6DAFF" stroke="#4550E5" stroke-linejoin="round"/>
<path d="M34.4053 48.0803L29.9873 52.5503" stroke="#4550E5" stroke-linejoin="round"/>
<path d="M67.2784 20.5198L68.079 21.3198C68.5334 21.7816 68.795 22.4024 68.8097 23.0538C68.8244 23.7052 68.5911 24.3375 68.1581 24.8198L60.4883 33.3198" stroke="#4550E5" stroke-linecap="round" stroke-linejoin="round"/>
<path d="M45.5638 29.8501L43.6859 31.5301L50.7528 38.6901L52.4528 36.8201L45.5638 29.8501Z" fill="white" stroke="#4550E5" stroke-linejoin="round"/>
<path d="M50.7627 38.6904L43.6859 31.5304L63.6807 13.6904C64.3745 13.0641 65.28 12.7322 66.2094 12.7635C67.1387 12.7948 68.0203 13.187 68.6714 13.8586C69.3225 14.5302 69.693 15.4297 69.706 16.3704C69.719 17.311 69.3735 18.2206 68.7412 18.9104L50.7627 38.6904Z" stroke="#4550E5" stroke-linejoin="round"/>
<defs>
<linearGradient id="paint0_linear" x1="24.991" y1="30.3398" x2="24.991" y2="68.2898" gradientUnits="userSpaceOnUse">
<stop stop-color="#8C5FF5"/>
<stop offset="1" stop-color="#4D3AC3"/>
</linearGradient>
</defs>
</svg>
