<svg width="460" height="339" viewBox="0 0 460 339" fill="none" xmlns="http://www.w3.org/2000/svg">
<path opacity="0.1" d="M4.95483 162.528C12.2185 190.575 27.5821 214.819 51.8611 226.572C102.334 250.996 216.165 238.4 301.12 223.94C345.066 216.461 383.692 195.822 411.751 166.777L4.95483 162.528Z" fill="#6C63FF"/>
<path opacity="0.1" d="M450.457 30.5097H403.844C401.632 30.5097 399.817 28.8719 399.817 26.8707C399.817 24.8695 401.632 23.2275 403.844 23.2275H411.906C409.69 23.2275 407.879 21.5898 407.879 19.5844C407.879 17.579 409.69 15.9454 411.906 15.9454H406.152C403.936 15.9454 402.121 14.3076 402.121 12.3022C402.121 10.2968 403.936 8.66325 406.152 8.66325H430.481C425.083 6.39463 418.772 4.78194 411.5 3.93382C345.158 -3.76611 321.472 1.32679 313.117 6.56174C302.703 13.1681 291.135 17.7521 279.02 20.0732C238.089 27.7063 161.543 36.8894 92.1643 17.1486C57.682 7.31795 32.0523 23.9085 16.6929 51.6417H458.553C457.976 43.5824 456.249 36.1374 453.079 29.624C452.328 30.203 451.406 30.5148 450.457 30.5097V30.5097Z" fill="#6C63FF"/>
<path opacity="0.1" d="M1.00316 103.987C-0.787257 120.298 -0.178642 136.784 2.80966 152.919L412.065 166.451C423.331 154.777 432.902 141.583 440.501 127.254L1.00316 103.987ZM162.869 138.893H154.811C157.027 138.893 158.842 140.535 158.842 142.537C158.842 144.538 157.027 146.176 154.811 146.176H108.197C105.985 146.176 104.17 144.538 104.17 142.537C104.17 140.535 105.985 138.893 108.197 138.893H116.259C114.043 138.893 112.232 137.256 112.232 135.254C112.232 133.253 114.043 131.611 116.259 131.611H110.501C108.285 131.611 106.47 129.974 106.47 127.972C106.47 125.971 108.285 124.329 110.501 124.329H157.115C159.331 124.329 161.142 125.967 161.142 127.972C161.142 129.978 159.331 131.611 157.115 131.611H162.869C165.085 131.611 166.896 133.249 166.896 135.254C166.896 137.26 165.085 138.893 162.869 138.893Z" fill="#6C63FF"/>
<path opacity="0.1" d="M458.57 51.8921L11.7628 61.7102C6.32654 74.3401 2.72191 88.6203 1.06177 103.419H450.742C453.668 94.7607 455.84 85.8662 457.232 76.8344C458.574 68.1401 459.109 59.7299 458.57 51.8921ZM91.7797 84.0831H83.7216C85.9379 84.0831 87.7528 85.725 87.7528 87.7263C87.7528 89.7275 85.9379 91.3694 83.7216 91.3694H37.1081C34.896 91.3694 33.0811 89.7275 33.0811 87.7263C33.0811 85.725 34.896 84.0831 37.1081 84.0831H45.1704C42.9541 84.0831 41.1434 82.4453 41.1434 80.4441C41.1434 78.4429 42.9541 76.8009 45.1704 76.8009H39.4122C37.1959 76.8009 35.381 75.1632 35.381 73.162C35.381 71.1607 37.1959 69.5188 39.4122 69.5188H86.0257C88.242 69.5188 90.0527 71.1566 90.0527 73.162C90.0527 75.1674 88.242 76.8009 86.0257 76.8009H91.7797C93.996 76.8009 95.8067 78.4429 95.8067 80.4441C95.8067 82.4453 93.996 84.0831 91.7797 84.0831Z" fill="#6C63FF"/>
<path opacity="0.1" d="M227.94 326.329C331.17 326.329 414.854 318.637 414.854 309.149C414.854 299.661 331.17 291.969 227.94 291.969C124.711 291.969 41.0264 299.661 41.0264 309.149C41.0264 318.637 124.711 326.329 227.94 326.329Z" fill="#6C63FF"/>
<g opacity="0.1">
<path opacity="0.1" d="M353.245 118.719C353.331 118.555 353.407 118.386 353.471 118.213C353.943 116.901 353.734 115.46 353.739 114.064C353.738 113.599 353.782 113.135 353.868 112.677C353.482 113.503 353.295 114.407 353.32 115.318C353.316 116.442 353.45 117.62 353.245 118.719Z" fill="black"/>
<path opacity="0.1" d="M413.391 169.288C413.231 169.588 413.161 169.928 413.19 170.266C414.135 169.334 416.268 169.882 417.012 168.683C417.185 168.386 417.253 168.04 417.204 167.701C416.234 168.62 414.102 168.073 413.391 169.288Z" fill="black"/>
<path opacity="0.1" d="M407.248 176.433C407.168 176.85 407.089 177.297 406.989 177.732C409.548 178.53 412.504 176.479 412.922 173.888C411.906 175.881 409.397 177.214 407.248 176.433Z" fill="black"/>
</g>
<path opacity="0.1" d="M357.414 316.665C356.197 316.711 349.281 316.665 349.281 316.665C349.18 316.559 349.085 316.448 348.997 316.331C350.765 315.729 354.588 314.827 357.414 316.665Z" fill="black"/>
<path opacity="0.1" d="M377.198 316.665C375.981 316.711 369.065 316.665 369.065 316.665C368.963 316.559 368.868 316.448 368.78 316.331C370.541 315.729 374.363 314.827 377.198 316.665Z" fill="black"/>
<path d="M339.705 179.583C341.783 179.583 343.468 178.442 343.468 177.034C343.468 175.627 341.783 174.486 339.705 174.486C337.626 174.486 335.941 175.627 335.941 177.034C335.941 178.442 337.626 179.583 339.705 179.583Z" fill="#575A89"/>
<path d="M217.03 318.896C288.278 318.896 346.036 261.19 346.036 190.007C346.036 118.823 288.278 61.1172 217.03 61.1172C145.782 61.1172 88.0244 118.823 88.0244 190.007C88.0244 261.19 145.782 318.896 217.03 318.896Z" fill="url(#paint0_linear)"/>
<path d="M284.719 254.777C284.719 275.124 252.704 256.515 218.381 256.515C184.057 256.515 149.341 274.355 149.341 254.009C149.341 242.406 160.406 226.271 176.279 214.552C188.239 205.72 202.925 199.395 217.678 199.395C232.85 199.395 247.711 206.242 259.566 215.643C274.529 227.495 284.719 243.422 284.719 254.777Z" fill="#444053"/>
<path d="M259.562 215.634C241.318 212.889 208.32 209.543 176.28 214.544C188.239 205.712 202.925 199.386 217.678 199.386C232.846 199.386 247.707 206.234 259.562 215.634Z" fill="#F6F8FB"/>
<path opacity="0.05" d="M149.341 99.0234C149.341 99.0234 110.48 123.845 110.798 162.67C111.116 201.496 149.341 99.0234 149.341 99.0234Z" fill="black"/>
<path opacity="0.1" d="M448.739 304.991C454.958 304.991 460 304.14 460 303.09C460 302.041 454.958 301.189 448.739 301.189C442.519 301.189 437.477 302.041 437.477 303.09C437.477 304.14 442.519 304.991 448.739 304.991Z" fill="#6C63FF"/>
<path opacity="0.1" d="M19.5616 336.615C25.7811 336.615 30.823 335.764 30.823 334.714C30.823 333.664 25.7811 332.813 19.5616 332.813C13.3422 332.813 8.30029 333.664 8.30029 334.714C8.30029 335.764 13.3422 336.615 19.5616 336.615Z" fill="#6C63FF"/>
<path opacity="0.1" d="M84.9342 339C91.1537 339 96.1955 338.149 96.1955 337.099C96.1955 336.049 91.1537 335.198 84.9342 335.198C78.7147 335.198 73.6729 336.049 73.6729 337.099C73.6729 338.149 78.7147 339 84.9342 339Z" fill="#6C63FF"/>
<path d="M171.165 173.106C173.62 172.969 185.174 172.1 192.513 167.917C193.692 167.225 195.023 166.833 196.389 166.777C198.723 166.71 201.407 167.683 199.689 173.131C196.904 182.043 180.733 192.07 170.697 191.514C161.046 190.98 149.596 187.094 142.035 173.432C141.311 172.118 140.954 170.633 141.003 169.133C141.09 166.376 142.094 162.921 147.275 166.773C154.275 171.974 167.556 172.96 170.22 173.106C170.535 173.123 170.85 173.123 171.165 173.106V173.106Z" fill="#444053"/>
<path d="M263.999 173.106C266.454 172.969 278.008 172.1 285.347 167.917C286.525 167.225 287.857 166.833 289.223 166.777C291.556 166.71 294.241 167.683 292.522 173.131C289.737 182.043 273.567 192.07 263.531 191.514C253.879 190.98 242.43 187.094 234.869 173.432C234.145 172.118 233.788 170.633 233.836 169.133C233.924 166.376 234.928 162.921 240.109 166.773C247.109 171.974 260.39 172.96 263.054 173.106C263.369 173.123 263.684 173.123 263.999 173.106V173.106Z" fill="#444053"/>
<defs>
<linearGradient id="paint0_linear" x1="217.03" y1="61.1172" x2="217.03" y2="318.896" gradientUnits="userSpaceOnUse">
<stop stop-color="#8A5BF2"/>
<stop offset="1" stop-color="#4A39BE"/>
</linearGradient>
</defs>
</svg>
