<svg width="22" height="23" viewBox="0 0 22 23" fill="none" xmlns="http://www.w3.org/2000/svg">
<path d="M21.6655 20.9494L16.2421 15.2561C17.6366 13.5829 18.4006 11.4778 18.4006 9.28624C18.4006 4.16589 14.2733 0 9.2003 0C4.12733 0 0 4.16589 0 9.28624C0 14.4066 4.12733 18.5725 9.2003 18.5725C11.1048 18.5725 12.9196 17.9927 14.4713 16.8921L19.9358 22.6286C20.1643 22.868 20.4715 23 20.8007 23C21.1123 23 21.4079 22.8801 21.6323 22.6621C22.1091 22.199 22.1243 21.431 21.6655 20.9494ZM9.2003 2.4225C12.95 2.4225 16.0005 5.50149 16.0005 9.28624C16.0005 13.071 12.95 16.15 9.2003 16.15C5.45058 16.15 2.40008 13.071 2.40008 9.28624C2.40008 5.50149 5.45058 2.4225 9.2003 2.4225Z" fill="#F0F0F0"/>
</svg>
