<svg width="1440" height="1024" viewBox="0 0 1440 1024" fill="none" xmlns="http://www.w3.org/2000/svg">
<g clip-path="url(#clip0)">
<path d="M-357.848 961L-357.848 170L214.5 170C432.928 170 610 347.071 610 565.5V565.5C610 783.929 432.929 961 214.5 961L-357.848 961Z" fill="url(#paint0_linear)"/>
<path d="M-373 875.349L-373 258.201L218.648 258.201C389.069 258.201 527.222 396.354 527.222 566.775V566.775C527.222 737.195 389.069 875.349 218.648 875.349L-373 875.349Z" fill="url(#paint1_linear)"/>
<path d="M578.859 572.791C578.859 572.791 572.361 568.136 565.638 571.011C565.638 571.011 567.518 575.009 575.896 574.958L578.859 572.791Z" fill="#6C63FF"/>
<path d="M579.667 573.06C579.667 573.06 581.403 580.86 576.115 585.922C576.115 585.922 573.182 582.621 576.516 574.94L579.667 573.06Z" fill="#6C63FF"/>
<path d="M588.258 565.962C588.258 565.962 588.02 559.377 573.107 560.987C573.107 560.987 572.875 565.223 578.001 567.428C583.126 569.633 585.583 568.048 588.258 565.962Z" fill="#6C63FF"/>
<path d="M589.179 565.949C589.179 565.949 595.376 568.205 589.248 581.9C589.248 581.9 585.15 580.816 584.63 575.259C584.11 569.702 586.378 567.866 589.179 565.949Z" fill="#6C63FF"/>
<path d="M597.933 556.959C597.933 556.959 599.186 546.183 583.997 546.709C583.997 546.709 582.55 556.452 595.157 559.452L597.933 556.959Z" fill="#6C63FF"/>
<path d="M608.416 545.143C608.416 545.143 606.806 532.82 591.498 535.883C591.498 535.883 591.034 546.471 605.809 547.969L608.416 545.143Z" fill="#6C63FF"/>
<path d="M616.217 532.807C616.217 532.807 613.197 520.722 598.046 523.742C598.046 523.742 601.179 534.611 615.133 534.975L616.217 532.807Z" fill="#6C63FF"/>
<path d="M623.643 520.759C623.643 520.759 620.716 508.229 606.098 511.412C606.098 511.412 610.484 523.359 622.621 522.833L623.643 520.759Z" fill="#6C63FF"/>
<path d="M628.574 509.232C628.574 509.232 626.537 493.989 612.909 496.821C612.909 496.821 616.305 510.748 627.509 511.393L628.574 509.232Z" fill="#6C63FF"/>
<path d="M633.317 495.254C633.317 495.254 630.767 479.873 616.932 483.789C616.932 483.789 621.744 498.418 632.283 497.328L633.317 495.254Z" fill="#6C63FF"/>
<path d="M636.425 482.217C636.425 482.217 632.039 466.767 621.437 466.773C621.437 466.773 625.917 483.062 635.423 485.243L636.425 482.217Z" fill="#6C63FF"/>
<path d="M638.568 469.423C638.568 469.423 633.85 450.841 625.19 451.931C625.19 451.931 628.405 466.115 638.155 472.274L638.568 469.423Z" fill="#6C63FF"/>
<path d="M640.091 454.124C640.091 454.124 635.598 438.624 627.126 437.685C627.126 437.685 630.009 452.877 639.752 458.096L640.091 454.124Z" fill="#6C63FF"/>
<path d="M641.67 439.89C641.67 439.89 635.918 424.321 630.316 423.757C630.316 423.757 632.49 438.95 641.012 442.383L641.67 439.89Z" fill="#6C63FF"/>
<path d="M642.879 426.62C642.879 426.62 639.621 409.824 634.069 408.232C634.069 408.232 634.314 421.871 642.272 427.842L642.879 426.62Z" fill="#6C63FF"/>
<path d="M645.655 409.304C645.655 409.304 642.065 395.884 637.603 393.685C637.603 393.685 637.904 409.348 644.496 412.48L645.655 409.304Z" fill="#6C63FF"/>
<path d="M647.848 397.939L649.571 374.583C649.571 374.583 640.423 391.912 647.065 402.043L647.848 397.939Z" fill="#6C63FF"/>
<path d="M655.305 374.946C655.305 374.946 662.066 358.099 663.57 357.203C663.57 357.203 651.163 367.854 651.79 382.126L655.305 374.946Z" fill="#6C63FF"/>
<path d="M598.347 556.896C598.347 556.896 609.156 555.9 608.247 571.074C608.247 571.074 598.472 572.283 595.784 559.603L598.347 556.896Z" fill="#6C63FF"/>
<path d="M608.936 544.755C608.936 544.755 621.356 545.187 619.752 560.693C619.752 560.693 609.256 562.159 606.367 547.593L608.936 544.755Z" fill="#6C63FF"/>
<path d="M616.299 533.822C616.299 533.822 627.778 528.967 634.47 542.888C634.47 542.888 623.887 546.891 615.221 535.996L616.299 533.822Z" fill="#6C63FF"/>
<path d="M623.893 520.885C623.893 520.885 635.648 515.697 641.92 529.292C641.92 529.292 629.733 532.97 622.859 522.952L623.893 520.885Z" fill="#6C63FF"/>
<path d="M628.417 509.551C628.417 509.551 639.934 499.364 648.387 510.441C648.387 510.441 636.701 518.736 627.816 511.894L628.417 509.551Z" fill="#6C63FF"/>
<path d="M632.703 494.866C632.703 494.866 644.295 484.441 652.661 496.119C652.661 496.119 639.771 504.545 632.215 497.115L632.703 494.866Z" fill="#6C63FF"/>
<path d="M635.297 481.722C635.297 481.722 644.427 468.502 654.453 471.911C654.453 471.911 644.966 485.919 635.272 484.911L635.297 481.722Z" fill="#6C63FF"/>
<path d="M638.311 469.329C638.311 469.329 647.654 452.589 655.737 455.866C655.737 455.866 648.983 468.747 637.986 472.186L638.311 469.329Z" fill="#6C63FF"/>
<path d="M639.533 453.228C639.533 453.228 648.97 440.134 657.26 442.095C657.26 442.095 649.446 455.44 638.518 457.087L639.533 453.228Z" fill="#6C63FF"/>
<path d="M640.736 439.552C640.736 439.552 648.224 424.741 653.851 424.822C653.851 424.822 649.96 439.671 641.106 442.101L640.736 439.552Z" fill="#6C63FF"/>
<path d="M642.616 426.282C642.616 426.282 650.887 411.309 656.665 411.497C656.665 411.497 652.228 424.403 642.823 427.635L642.616 426.282Z" fill="#6C63FF"/>
<path d="M644.39 410.168C644.39 410.168 650.624 397.751 655.437 396.504C655.437 396.504 651.971 411.791 644.897 413.545L644.39 410.168Z" fill="#6C63FF"/>
<path d="M648.55 397.525L662.141 378.455C662.141 378.455 658.112 397.638 646.532 401.184L648.55 397.525Z" fill="#6C63FF"/>
<path d="M658.181 376.631C658.181 376.631 673.476 366.902 674.103 365.254C674.103 365.254 665.957 379.401 651.758 381.405L658.181 376.631Z" fill="#6C63FF"/>
<path d="M659.252 372.033C659.252 372.033 677.023 356.214 681.396 356.402C681.396 356.402 667.235 356.502 658.839 371.143L659.252 372.033Z" fill="#6C63FF"/>
<path d="M644.465 412.674L645.091 412.781C649.277 387.689 654.547 372.973 659.923 371.331L659.741 370.705C654.052 372.434 648.751 386.938 644.465 412.674Z" fill="#444053"/>
<path d="M637.415 472.744L638.355 472.857C638.643 470.514 638.894 468.108 639.088 465.714C640.786 444.883 642.917 425.775 645.298 411.478L644.778 410.782C642.39 425.104 639.846 444.777 638.142 465.639C637.948 468.02 637.703 470.407 637.415 472.744Z" fill="#444053"/>
<path d="M560.794 584.118C560.963 584.049 577.856 577.27 595.777 560.242C606.272 550.275 615.121 538.708 621.994 525.972C630.585 510.052 636.206 490.292 638.581 470.983L637.578 471.409C632.252 514.751 611.311 543.721 594.969 559.29C577.224 576.168 560.506 582.878 560.349 582.94L560.794 584.118Z" fill="#444053"/>
<g opacity="0.7">
<path opacity="0.7" d="M552.642 533.095C552.642 533.095 545.054 530.589 539.483 535.332C539.483 535.332 542.472 538.59 550.455 536.046L552.642 533.095Z" fill="#6C63FF"/>
<path opacity="0.7" d="M553.494 533.108C553.494 533.108 557.467 540.043 553.927 546.44C553.927 546.44 550.167 544.166 551.038 535.839L553.494 533.108Z" fill="#6C63FF"/>
<path opacity="0.7" d="M559.591 523.779C559.591 523.779 557.398 517.564 543.644 523.535C543.644 523.535 544.678 527.651 550.236 528.227C555.794 528.804 557.649 526.555 559.591 523.779Z" fill="#6C63FF"/>
<path opacity="0.7" d="M560.462 523.497C560.462 523.497 567.041 523.81 565.274 538.703C565.274 538.703 561.032 538.89 558.883 533.734C556.734 528.578 558.357 526.154 560.462 523.497Z" fill="#6C63FF"/>
<path opacity="0.7" d="M566.139 512.289C566.139 512.289 564.14 501.638 549.791 506.65C549.791 506.65 551.301 516.38 564.234 515.497L566.139 512.289Z" fill="#6C63FF"/>
<path opacity="0.7" d="M572.631 497.879C572.631 497.879 567.43 486.602 553.745 494.07C553.745 494.07 556.452 504.314 571.008 501.35L572.631 497.879Z" fill="#6C63FF"/>
<path opacity="0.7" d="M576.416 483.814C576.416 483.814 569.93 473.164 556.364 480.563C556.364 480.563 562.63 489.998 576.021 486.201L576.416 483.814Z" fill="#6C63FF"/>
<path opacity="0.7" d="M579.918 470.1C579.918 470.1 573.401 459.023 560.374 466.397C560.374 466.397 568.113 476.497 579.542 472.387L579.918 470.1Z" fill="#6C63FF"/>
<path opacity="0.7" d="M581.196 457.626C581.196 457.626 574.717 443.68 562.536 450.446C562.536 450.446 569.924 462.726 580.808 460.013L581.196 457.626Z" fill="#6C63FF"/>
<path opacity="0.7" d="M581.56 442.872C581.56 442.872 574.548 428.945 562.511 436.801C562.511 436.801 571.453 449.331 581.19 445.159L581.56 442.872Z" fill="#6C63FF"/>
<path opacity="0.7" d="M580.639 429.484C580.639 429.484 571.866 416.039 561.74 419.196C561.74 419.196 570.87 433.437 580.589 432.673L580.639 429.484Z" fill="#6C63FF"/>
<path opacity="0.7" d="M578.859 416.646C578.859 416.646 568.834 400.313 560.882 403.928C560.882 403.928 568.176 416.515 579.311 419.491L578.859 416.646Z" fill="#6C63FF"/>
<path opacity="0.7" d="M575.795 401.591C575.795 401.591 566.885 388.128 558.526 389.75C558.526 389.75 565.795 403.402 576.647 405.482L575.795 401.591Z" fill="#6C63FF"/>
<path opacity="0.7" d="M573.057 387.526C573.057 387.526 562.937 374.37 557.423 375.51C557.423 375.51 564.021 389.368 573.176 390.101L573.057 387.526Z" fill="#6C63FF"/>
<path opacity="0.7" d="M570.269 374.501C570.269 374.501 562.16 359.465 556.383 359.565C556.383 359.565 560.682 372.515 570.049 375.855L570.269 374.501Z" fill="#6C63FF"/>
<path opacity="0.7" d="M567.768 357.141C567.768 357.141 560.343 345.4 555.43 344.611C555.43 344.611 560.38 359.484 567.599 360.53L567.768 357.141Z" fill="#6C63FF"/>
<path opacity="0.7" d="M566.477 345.638L561.17 322.821C561.17 322.821 557.592 342.086 566.954 349.761L566.477 345.638Z" fill="#6C63FF"/>
<path opacity="0.7" d="M566.741 321.474C566.741 321.474 568.188 303.38 569.354 302.052C569.354 302.052 560.669 315.885 565.519 329.355L566.741 321.474Z" fill="#6C63FF"/>
<path opacity="0.7" d="M566.521 512.12C566.521 512.12 576.547 507.96 580.188 522.72C580.188 522.72 571.221 526.78 564.88 515.472L566.521 512.12Z" fill="#6C63FF"/>
<path opacity="0.7" d="M573.019 497.378C573.019 497.378 585.006 494.102 588.089 509.382C588.089 509.382 578.502 513.905 571.409 500.855L573.019 497.378Z" fill="#6C63FF"/>
<path opacity="0.7" d="M576.791 484.754C576.791 484.754 586.303 476.703 596.843 488.005C596.843 488.005 587.932 494.979 576.409 487.141L576.791 484.754Z" fill="#6C63FF"/>
<path opacity="0.7" d="M580.187 470.144C580.187 470.144 589.875 461.699 599.9 472.806C599.9 472.806 589.361 479.949 579.818 472.431L580.187 470.144Z" fill="#6C63FF"/>
<path opacity="0.7" d="M581.134 457.983C581.134 457.983 589.104 444.827 600.471 452.884C600.471 452.884 591.78 464.286 581.259 460.402L581.134 457.983Z" fill="#6C63FF"/>
<path opacity="0.7" d="M580.858 442.684C580.858 442.684 588.828 429.283 600.283 437.954C600.283 437.954 590.483 449.858 581.065 444.99L580.858 442.684Z" fill="#6C63FF"/>
<path opacity="0.7" d="M579.429 429.358C579.429 429.358 584.21 414.028 594.793 414.322C594.793 414.322 589.906 430.524 580.35 432.441L579.429 429.358Z" fill="#6C63FF"/>
<path opacity="0.7" d="M578.621 416.634C578.621 416.634 582.556 397.87 591.247 398.597C591.247 398.597 588.628 412.906 579.154 419.466L578.621 416.634Z" fill="#6C63FF"/>
<path opacity="0.7" d="M574.987 400.902C574.987 400.902 580.1 385.591 588.603 384.995C588.603 384.995 585.113 400.063 575.169 404.887L574.987 400.902Z" fill="#6C63FF"/>
<path opacity="0.7" d="M572.067 387.483C572.067 387.483 574.811 371.118 580.213 369.521C580.213 369.521 580.908 384.851 573.182 389.813L572.067 387.483Z" fill="#6C63FF"/>
<path opacity="0.7" d="M569.918 374.257C569.918 374.257 573.358 357.498 578.928 355.963C578.928 355.963 578.533 369.602 570.513 375.485L569.918 374.257Z" fill="#6C63FF"/>
<path opacity="0.7" d="M566.822 358.369C566.822 358.369 569.078 344.661 573.301 342.036C573.301 342.036 574.554 357.661 568.288 361.457L566.822 358.369Z" fill="#6C63FF"/>
<path opacity="0.7" d="M567.023 345.012L574.329 322.758C574.329 322.758 576.209 342.267 566.183 349.103L567.023 345.012Z" fill="#6C63FF"/>
<path opacity="0.7" d="M569.999 322.226C569.999 322.226 581.736 308.374 581.823 306.626C581.823 306.626 578.233 322.558 565.3 328.691L569.999 322.226Z" fill="#6C63FF"/>
<path opacity="0.7" d="M569.654 317.521C569.654 317.521 581.917 297.128 586.146 296C586.146 296 572.662 300.317 569.028 316.775L569.654 317.521Z" fill="#6C63FF"/>
<path opacity="0.7" d="M567.624 360.674L568.251 360.587C564.786 335.395 565.431 319.77 570.081 316.606L569.723 316.086C564.792 319.45 564.071 334.868 567.624 360.674Z" fill="#444053"/>
<path opacity="0.7" d="M578.778 420.192L579.711 420.023C579.285 417.699 578.809 415.331 578.283 412.981C573.702 392.589 570.049 373.718 568.075 359.359L567.367 358.845C569.347 373.255 572.775 392.77 577.355 413.194C577.882 415.494 578.358 417.849 578.778 420.192Z" fill="#444053"/>
<path opacity="0.7" d="M538.757 549.284C538.894 549.171 553.005 537.675 565.074 516.079C572.127 503.442 577.131 489.767 579.899 475.563C583.364 457.808 582.857 437.271 579.373 418.131L578.546 418.833C586.347 461.799 574.974 495.693 563.984 515.421C552.078 536.81 538.117 548.188 537.973 548.301L538.757 549.284Z" fill="#444053"/>
</g>
<path d="M104.114 764.69C104.114 764.69 130.606 763.092 127.48 781.656C127.48 781.656 128.106 784.932 125.13 786.423C125.13 786.423 125.08 785.045 122.41 785.515C121.461 785.675 120.495 785.721 119.534 785.653C118.234 785.562 116.999 785.052 116.013 784.199V784.199C116.013 784.199 108.569 781.123 105.674 768.956C105.674 768.956 103.531 766.3 103.612 765.617L108.086 767.497C108.086 767.497 106.557 770.723 107.76 773.398C107.76 773.398 107.905 767.616 108.763 767.76C108.938 767.791 111.088 768.881 111.088 768.881C111.088 768.881 108.456 774.52 110.461 778.579C110.461 778.579 109.709 771.657 111.927 769.282L115.06 771.124C115.06 771.124 111.99 776.926 114.07 781.656C114.07 781.656 113.538 774.394 115.725 771.569L118.576 773.793C118.576 773.793 115.687 779.513 117.448 783.435C117.448 783.435 117.679 774.983 119.19 774.344C119.19 774.344 121.696 776.543 122.066 777.477C122.066 777.477 120.092 781.624 121.314 783.817C121.314 783.817 122.066 778.179 122.686 778.179C122.686 778.179 125.192 781.906 125.431 784.444C125.431 784.444 125.324 780.641 123.288 777.803C124.721 778.072 126.043 778.756 127.091 779.77C127.091 779.77 126.703 777.132 122.705 776.9C122.705 776.9 120.65 774.075 120.098 773.9C120.098 773.9 124.115 773.567 126.546 774.645C126.546 774.645 124.403 772.139 119.365 773.286L116.552 770.986C116.552 770.986 121.834 770.266 124.071 771.061C124.071 771.061 121.496 768.862 115.793 770.466L112.729 768.637C112.729 768.637 117.228 767.666 119.91 768.01C119.91 768.01 117.078 766.482 111.827 768.136L109.634 767.152C109.634 767.152 112.936 766.525 113.901 766.4C114.866 766.275 114.916 766.031 114.916 766.031C112.829 765.682 110.685 765.921 108.725 766.72C108.725 766.72 104.032 764.984 104.114 764.69Z" fill="#6C63FF"/>
<path opacity="0.1" d="M122.36 791.21C112.006 791.21 103.612 789.791 103.612 788.04C103.612 786.289 112.006 784.87 122.36 784.87C132.714 784.87 141.108 786.289 141.108 788.04C141.108 789.791 132.714 791.21 122.36 791.21Z" fill="#6C63FF"/>
<path d="M53.2961 715.778C53.2961 715.778 68.2281 714.883 66.4548 725.345C66.5461 725.875 66.4674 726.421 66.23 726.904C65.9925 727.386 65.6084 727.782 65.1326 728.033C65.1326 728.033 65.1013 727.256 63.5974 727.519C63.0618 727.612 62.5168 727.64 61.9745 727.601C61.2425 727.551 60.5469 727.263 59.9945 726.78V726.78C59.9945 726.78 55.7963 725.044 54.1608 718.184C54.1608 718.184 52.9515 716.687 53.0016 716.305L55.508 717.382C55.508 717.382 54.6496 719.199 55.3263 720.709C55.3263 720.709 55.4078 717.445 55.8903 717.526C55.9905 717.526 57.1998 718.153 57.1998 718.153C57.1998 718.153 55.7211 721.323 56.8364 723.622C56.8364 723.622 56.4103 719.719 57.6635 718.385L59.4368 719.418C59.4368 719.418 57.7074 722.689 58.8792 725.358C58.8792 725.358 58.5784 721.267 59.8128 719.669L61.4169 720.922C61.4169 720.922 59.794 724.149 60.7903 726.36C60.7903 726.36 60.9219 721.599 61.7741 721.235C62.3827 721.751 62.9275 722.338 63.3969 722.983C63.3969 722.983 62.2816 725.326 62.9708 726.561C62.9708 726.561 63.397 723.384 63.7416 723.372C63.7416 723.372 65.1452 725.477 65.2893 726.918C65.2219 725.581 64.8048 724.284 64.0799 723.159C64.8891 723.311 65.6362 723.696 66.2292 724.268C66.2292 724.268 66.0099 722.783 63.7228 722.651C63.7228 722.651 62.5636 721.054 62.2566 720.96C62.2566 720.96 64.5186 720.772 65.8908 721.379C65.8908 721.379 64.6815 719.976 61.843 720.609L60.2514 719.318C60.2514 719.318 63.234 718.911 64.4935 719.362C64.4935 719.362 63.0398 718.109 59.8253 719.024L58.0959 717.99C59.4265 717.699 60.7892 717.581 62.15 717.639C62.15 717.639 60.5522 716.781 57.5946 717.714L56.3414 717.157C56.3414 717.157 58.2212 716.793 58.7475 716.737C59.2739 716.681 59.324 716.524 59.324 716.524C58.145 716.328 56.9348 716.462 55.8276 716.912C55.8276 716.912 53.2522 715.948 53.2961 715.778Z" fill="#6C63FF"/>
<path opacity="0.1" d="M63.5786 730.733C57.7405 730.733 53.0078 729.934 53.0078 728.948C53.0078 727.962 57.7405 727.162 63.5786 727.162C69.4167 727.162 74.1494 727.962 74.1494 728.948C74.1494 729.934 69.4167 730.733 63.5786 730.733Z" fill="#6C63FF"/>
<path d="M141.453 724.863C141.453 724.863 159.487 723.773 157.356 736.409C157.467 737.05 157.372 737.709 157.085 738.292C156.798 738.875 156.333 739.352 155.758 739.655C155.758 739.655 155.758 738.721 153.91 739.028C153.262 739.136 152.604 739.17 151.948 739.128C151.065 739.064 150.226 738.717 149.555 738.138V738.138C149.555 738.138 144.486 736.046 142.512 727.757C142.512 727.757 141.052 725.953 141.115 725.489L144.154 726.786C144.154 726.786 143.113 728.985 143.934 730.808C143.934 730.808 144.028 726.868 144.617 726.962C144.736 726.962 146.196 727.72 146.196 727.72C146.196 727.72 144.41 731.548 145.758 734.323C145.758 734.323 145.244 729.612 146.754 727.995L148.897 729.248C148.897 729.248 146.81 733.195 148.226 736.422C148.226 736.422 147.863 731.479 149.348 729.53L151.291 731.04C151.291 731.04 149.323 734.931 150.52 737.606C150.52 737.606 150.676 731.855 151.71 731.416C151.71 731.416 153.408 732.913 153.665 733.527C153.665 733.527 152.324 736.353 153.158 737.844C153.158 737.844 153.665 734.016 154.085 733.997C154.085 733.997 155.777 736.535 155.965 738.276C155.881 736.667 155.377 735.108 154.505 733.753C155.48 733.938 156.379 734.404 157.093 735.094C157.093 735.094 156.83 733.296 154.085 733.139C154.085 733.139 152.688 731.216 152.312 731.096C152.312 731.096 155.044 730.871 156.698 731.604C156.698 731.604 155.244 729.906 151.817 730.677L149.899 729.117C149.899 729.117 153.49 728.622 155.019 729.167C155.019 729.167 153.264 727.669 149.379 728.76L147.293 727.507C147.293 727.507 150.357 726.843 152.187 727.081C152.187 727.081 150.257 726.047 146.685 727.168L145.187 726.554C145.187 726.554 147.431 726.116 148.089 726.047C148.747 725.978 148.778 725.796 148.778 725.796C147.356 725.56 145.896 725.722 144.561 726.266C144.561 726.266 141.397 725.063 141.453 724.863Z" fill="#6C63FF"/>
<path opacity="0.1" d="M153.872 742.912C146.823 742.912 141.108 741.948 141.108 740.757C141.108 739.567 146.823 738.602 153.872 738.602C160.921 738.602 166.636 739.567 166.636 740.757C166.636 741.948 160.921 742.912 153.872 742.912Z" fill="#6C63FF"/>
<path opacity="0.1" d="M292.27 731.416L355.124 755.731L446.997 791.235C450.462 784.801 455.575 775.998 461.904 765.548C483.659 729.493 519.664 673.414 551.708 624.133C587.826 568.606 618.905 521.718 618.905 521.718L596.404 515.196L412.609 461.899L292.27 731.416Z" fill="black"/>
<path d="M291.017 727.031L353.871 751.345L445.744 786.849C449.209 780.415 454.322 771.613 460.651 761.163C482.406 725.107 518.411 669.029 550.455 619.748C586.573 564.22 617.652 517.332 617.652 517.332L595.151 510.811L411.356 457.514L291.017 727.031Z" fill="white"/>
<path opacity="0.1" d="M291.017 727.031L353.871 751.345C388.977 758.657 424.8 761.95 460.651 761.163C482.406 725.107 518.411 669.029 550.455 619.748L595.151 510.81L411.356 457.514L291.017 727.031Z" fill="black"/>
<path d="M244.253 711.907C244.253 711.907 341.903 769.658 487.689 756.627L603.923 473.327L548.225 463.76L355.682 430.699L246.434 706.431L244.253 711.907Z" fill="#6C63FF"/>
<path opacity="0.1" d="M246.434 706.431C269.43 707.559 296.023 707.452 322.792 704.263C351.753 700.868 380.853 693.838 405.854 680.97C426.733 670.213 444.585 658.528 460.156 644.501C500.641 608.088 525.698 556 548.2 463.76L355.657 430.699L246.434 706.431Z" fill="black"/>
<path d="M174.807 690.593C174.807 690.593 246.816 704.702 320.041 696.012C349.002 692.598 378.133 685.587 403.103 672.719C423.982 661.962 441.834 650.277 457.405 636.25C507.533 591.141 533.982 522.088 561.264 382.571C561.264 382.571 441.583 411.446 323.337 348.194C323.337 348.194 283.454 597.087 174.807 690.593Z" fill="white"/>
<path opacity="0.1" d="M320.041 696.012C349.003 692.598 378.133 685.587 403.103 672.719C423.982 661.962 441.834 650.277 457.405 636.25C414.739 632.785 408.605 609.46 408.605 609.46C376.974 659.656 320.041 696.012 320.041 696.012Z" fill="black"/>
<path opacity="0.3" d="M499.375 433.794C499.375 433.794 435.085 441.13 374.912 407.324L370.789 420.562C370.789 420.562 428.355 449.262 499.375 449.262V433.794Z" fill="#6C63FF"/>
<path opacity="0.3" d="M499.095 500.198C499.095 500.198 423.933 494.157 340.261 453.874L337.431 460.318C337.431 460.318 368.225 498.921 499.095 509.006V500.198Z" fill="black"/>
<path opacity="0.3" d="M491.575 524.642C491.575 524.642 415.54 519.498 330.894 485.199L328.032 490.687C328.032 490.687 359.177 523.592 491.575 532.187V524.642Z" fill="black"/>
<path opacity="0.3" d="M484.683 552.209C484.683 552.209 407.191 547.064 320.924 512.765L318.006 518.254C318.006 518.254 349.793 551.14 484.683 559.753V552.209Z" fill="black"/>
<path opacity="0.3" d="M476.537 575.384C476.537 575.384 399.919 570.24 314.625 535.946L311.741 541.434C311.741 541.434 343.124 574.321 476.537 582.934V575.384Z" fill="black"/>
<path opacity="0.1" d="M469.018 600.171C469.018 600.171 391.234 594.409 304.643 555.994L301.715 562.141C301.715 562.141 333.583 598.981 469.018 608.621V600.171Z" fill="black"/>
<path d="M130.399 573.893L131.07 573.267C129.341 572.916 127.711 572.759 127.711 572.759C127.711 572.759 133.645 551.295 143.652 544.134C148.602 540.595 152.725 534.699 155.639 529.643C160.95 520.501 166.917 511.755 173.491 503.474L175.296 501.2L176.073 500.21C174.989 498.568 173.66 497.008 173.811 495.104C173.813 495.092 173.813 495.079 173.811 495.066C173.804 494.966 173.804 494.866 173.811 494.766C173.829 494.53 173.871 494.297 173.936 494.07L174.005 494.177C174.851 491.721 178.103 490.637 180.515 489.284C186.155 486.107 188.567 479.166 189.77 472.712C190.71 467.7 191.487 462.062 195.41 458.835C197.916 456.762 201.325 456.079 203.85 454.018C206.243 452.063 207.578 449.099 209.082 446.374C211.588 441.832 214.897 437.603 219.264 434.89C223.632 432.177 229.177 431.131 233.971 432.948C235.807 433.65 237.473 434.74 239.291 435.498C243.802 437.378 248.972 437.127 253.439 439.113C258.941 441.556 262.519 446.957 265.79 452.082C267.481 454.732 270.138 458.61 271.648 462.513C271.648 462.375 271.648 462.244 271.648 462.106C272.373 463.825 272.768 465.666 272.814 467.531C272.843 468.325 272.757 469.118 272.557 469.887C271.88 472.393 269.862 473.778 267.469 474.742C267.33 475.54 267.146 476.328 266.917 477.104C265.834 480.669 263.907 483.92 261.3 486.582C258.694 489.245 255.483 491.239 251.942 492.397C251.735 492.473 251.522 492.523 251.315 492.585C251.141 493.081 250.889 493.546 250.569 493.964C248.571 496.47 244.56 495.755 241.954 493.932C241.847 493.863 241.747 493.776 241.647 493.7C241.629 494.055 241.591 494.409 241.534 494.759C241.477 495.06 241.434 495.386 241.371 495.655C239.021 508.317 233.006 515.152 233.006 515.152C233.006 515.152 232.448 515.992 231.539 517.382C232.016 524.368 228.826 530.733 225.142 535.651C228.319 537.487 235.167 541.083 239.403 540.782C239.403 540.782 254.968 542.794 256.773 541.785C257.023 541.647 257.261 541.835 257.487 542.261C261.773 539.648 275.477 532.118 276.649 541.785C277.708 550.556 265.219 551.677 259.273 551.721C259.542 554.29 259.693 556.345 259.693 556.345L234.121 554.597L220.806 552.636C222.278 554.584 223.939 556.32 225.562 557.166C225.562 557.166 237.599 566.908 239.679 566.996C239.974 566.996 240.067 567.29 240.024 567.76C245.087 567.76 260.833 568.493 256.466 577.264C252.499 585.214 241.333 579.714 236.283 576.675C235.092 578.987 234.077 580.797 234.077 580.797L213.443 566.106L208.975 562.347C207.461 562.274 205.965 561.985 204.533 561.489C204.533 561.545 204.489 561.601 204.47 561.651C204.311 562.112 204.191 562.586 204.113 563.067C202.86 570.266 207.071 587.056 207.071 587.056C207.071 587.056 216.332 610.669 211.883 613.89C207.434 617.11 210.724 630.699 210.724 630.699C209.947 632.005 209.054 633.238 208.054 634.383V634.383C207.583 634.927 207.061 635.424 206.494 635.867C206.701 636.431 206.872 637.006 207.008 637.59C207.688 640.485 207.431 643.521 206.275 646.261C203.217 653.679 205.078 664.43 205.078 664.43L211.081 704.977C213.963 704.539 217.685 704.175 219.07 704.977C221.194 706.174 220.499 712.207 215.567 714.801C217.065 715.947 218.798 716.745 220.643 717.138C225.029 718.14 228.112 718.779 230.142 719.168C230.274 719.168 240.669 716.875 243.338 718.391C246.008 719.907 244.723 728.315 237.129 730.376C229.697 732.387 201.983 735.338 194 734.135L193.492 734.047C186.706 732.707 192.665 723.791 193.417 722.708C193.467 722.344 193.511 721.962 193.561 721.549C193.668 720.621 193.762 719.556 193.831 718.416C186.261 719.111 178.792 719.45 175.364 718.936C175.202 718.936 175.051 718.886 174.913 718.855C168.904 717.664 174.168 709.783 174.844 708.83C174.874 708.588 174.905 708.331 174.938 708.06V707.991C174.938 707.809 174.982 707.615 175.001 707.427C175.02 707.239 175.001 707.108 175.051 706.938C175.101 706.769 175.051 706.638 175.095 706.481C175.12 706.172 175.145 705.852 175.17 705.522C175.17 705.391 175.17 705.253 175.17 705.115C175.17 704.865 175.202 704.614 175.214 704.357C175.214 704.219 175.214 704.082 175.214 703.937C175.214 703.562 175.214 703.173 175.252 702.785C175.252 702.678 175.252 702.572 175.252 702.465C175.252 702.152 175.252 701.839 175.252 701.513C175.252 701.362 175.252 701.212 175.252 701.055C175.252 700.723 175.252 700.391 175.252 700.053C175.252 699.94 175.252 699.834 175.252 699.721C175.252 699.301 175.214 698.869 175.189 698.437L175.151 697.973C175.151 697.654 175.101 697.347 175.07 697.021C175.07 696.864 175.07 696.708 175.02 696.551C174.97 696.112 174.913 695.674 174.851 695.229C174.851 695.097 174.807 694.966 174.788 694.834C174.732 694.502 174.675 694.164 174.613 693.826C174.613 693.663 174.55 693.494 174.512 693.324C174.437 692.961 174.356 692.598 174.268 692.234C174.268 692.134 174.224 692.034 174.199 691.934C174.086 691.495 173.961 691.063 173.829 690.63C173.785 690.48 173.735 690.33 173.685 690.179C173.579 689.854 173.466 689.553 173.347 689.215L173.196 688.814C173.027 688.388 172.846 687.968 172.658 687.561C172.607 687.454 172.551 687.347 172.495 687.241C172.338 686.915 172.169 686.614 171.993 686.276L171.78 685.907C171.542 685.506 171.298 685.105 171.028 684.722C164.136 674.899 162.319 655.953 162.488 651.831C162.657 647.708 161.667 639.157 160.433 637.891C159.605 637.045 154.793 630.373 151.917 625.298C151.397 624.371 150.946 623.5 150.589 622.723C148.546 622.015 147.192 621.47 147.192 621.47C147.912 618.84 148.258 616.121 148.22 613.395C148.17 608.063 146.704 601.04 140.651 595.339C131.715 586.918 130.468 578.573 130.349 575.366C130.349 575.14 130.349 574.94 130.349 574.77C130.368 574.182 130.399 573.893 130.399 573.893Z" fill="url(#paint2_linear)"/>
<path d="M154.21 626.439C156.635 630.771 159.357 634.93 162.356 638.887C163.534 640.14 164.48 648.604 164.317 652.67C164.155 656.736 165.878 675.481 172.463 685.192C179.049 694.903 175.665 711.687 175.665 711.687L186.173 715.371H198.799L207.497 712.771L209.79 706.443C209.79 706.443 206.732 705.974 199.138 704.169C197.031 703.74 195.123 702.635 193.703 701.021C192.283 699.407 191.43 697.373 191.274 695.229L185.942 657.996C185.942 657.996 184.369 648.598 186.963 642.095C187.694 640.265 187.997 638.292 187.849 636.326C187.701 634.361 187.107 632.456 186.111 630.755L185.942 630.492C185.942 630.492 177.714 623.995 169.33 619.929C161.905 616.346 154.373 614.641 152.237 621C151.961 621.821 152.863 623.933 154.21 626.439Z" fill="#A5636D"/>
<path opacity="0.05" d="M154.21 626.439C156.635 630.771 159.357 634.93 162.356 638.887C163.534 640.14 164.48 648.604 164.317 652.67C164.155 656.736 165.878 675.481 172.463 685.192C177.1 692.04 176.793 702.39 176.223 707.909C175.979 710.221 175.678 711.669 175.678 711.669L186.186 715.352H198.799L207.497 712.771L209.79 706.443C209.79 706.443 209.026 706.324 207.284 705.986C205.542 705.648 202.897 705.071 199.1 704.169C197.001 703.733 195.1 702.624 193.688 701.011C192.276 699.398 191.428 697.368 191.274 695.229L185.942 657.996C185.942 657.996 184.369 648.598 186.963 642.095C187.694 640.265 187.997 638.292 187.849 636.326C187.701 634.361 187.107 632.456 186.111 630.755L185.942 630.492C185.942 630.492 177.714 623.995 169.33 619.929C161.905 616.346 154.373 614.641 152.237 621C151.961 621.821 152.863 623.933 154.21 626.439Z" fill="black"/>
<path opacity="0.1" d="M175.665 711.694L186.173 715.377H198.799L207.497 712.771L209.79 706.443C209.79 706.443 209.026 706.324 207.284 705.986C207.407 707.136 207.104 708.291 206.433 709.233C205.763 710.175 204.77 710.838 203.643 711.098L198.705 711.268C198.01 711.268 197.308 711.305 196.619 711.305C189.674 711.309 182.776 710.164 176.204 707.916C175.954 710.228 175.665 711.694 175.665 711.694Z" fill="black"/>
<path d="M198.712 712.333L203.656 712.164C203.656 712.164 208.268 711.186 207.14 705.955C207.14 705.955 216.037 703.938 218.312 705.272C220.587 706.606 219.49 713.968 213.061 715.772C206.795 717.533 183.322 720.12 176.574 719.061L176.142 718.986C170.026 717.733 176.142 708.962 176.142 708.962C183.398 711.445 191.046 712.588 198.712 712.333Z" fill="#BEBED0"/>
<path d="M168.265 627.88C168.597 628.544 168.954 629.233 169.362 629.953C172.463 635.592 177.439 642.69 178.31 643.611C179.638 645.027 180.697 654.575 180.528 659.186C180.359 663.797 182.288 684.923 189.72 695.887C193.523 701.525 194.382 709.2 194.319 715.377C194.301 717.471 194.177 719.562 193.95 721.643C193.674 724.192 193.323 725.784 193.323 725.784L205.178 729.937H219.446L229.265 727.018L231.834 719.851C231.834 719.851 230.976 719.713 229.046 719.331C227.116 718.949 224.108 718.309 219.809 717.295C217.438 716.804 215.29 715.554 213.693 713.734C212.095 711.914 211.134 709.623 210.956 707.208L204.946 665.188C204.946 665.188 203.173 654.569 206.093 647.239C207.195 644.518 207.44 641.525 206.795 638.662C206.446 637.053 205.809 635.521 204.915 634.138C204.915 634.138 202.622 632.334 199.163 629.947C197.634 628.894 195.861 627.729 193.956 626.551C185.584 621.37 174.575 616.082 169.299 619.935C168.135 620.813 167.283 622.04 166.868 623.438C166.655 624.164 167.25 625.812 168.265 627.88Z" fill="#A5636D"/>
<path opacity="0.1" d="M193.354 725.79L205.21 729.944H219.446L229.265 727.024L231.834 719.857C231.834 719.857 230.976 719.719 229.046 719.337C229.169 720.186 229.081 721.053 228.791 721.86C228.5 722.667 228.015 723.391 227.379 723.967C226.391 724.806 225.141 725.276 223.845 725.295L219.352 725.439C218.569 725.439 217.779 725.483 216.996 725.483C209.155 725.481 201.368 724.186 193.95 721.649C193.674 724.199 193.354 725.79 193.354 725.79Z" fill="black"/>
<path d="M219.358 726.504L223.845 726.354C225.142 726.332 226.393 725.863 227.385 725.026C228.525 724.011 229.509 722.257 228.87 719.306C228.87 719.306 238.896 717.031 241.484 718.535C244.071 720.039 242.806 728.352 235.556 730.389C228.456 732.375 201.989 735.294 194.369 734.104L193.887 734.016C186.994 732.6 193.887 722.689 193.887 722.689C202.074 725.501 210.706 726.794 219.358 726.504V726.504Z" fill="#BEBED0"/>
<path opacity="0.1" d="M154.211 626.439C158.503 627.936 164.807 629.922 168.265 630.003C168.623 630.017 168.982 630 169.337 629.953V629.953C171.756 629.621 179.231 630.154 186.086 630.768C188.837 631.012 191.481 631.269 193.668 631.495C196.926 631.833 199.169 632.077 199.169 632.077V629.953C197.641 628.901 195.867 627.735 193.962 626.558C185.591 621.376 174.582 616.089 169.306 619.942C161.88 616.358 154.349 614.654 152.212 621.013C151.961 621.821 152.863 623.933 154.211 626.439Z" fill="black"/>
<path d="M133.614 577.026C133.733 580.202 134.924 588.447 143.458 596.78C154.336 607.399 149.724 622.648 149.724 622.648C149.724 622.648 162.695 627.742 168.29 627.88C168.648 627.893 169.007 627.877 169.362 627.829C172.72 627.36 186.054 628.594 193.718 629.371C196.976 629.709 199.219 629.953 199.219 629.953V584.845L139.109 570.253L133.664 575.673C133.617 576.122 133.6 576.574 133.614 577.026Z" fill="#5C5C8E"/>
<g opacity="0.1">
<path opacity="0.1" d="M198.204 629.396L199.194 629.502V629.978C199.194 629.978 196.951 629.734 193.693 629.396C188.191 628.838 179.788 628.055 174.23 627.823C178.078 627.472 190.785 628.644 198.204 629.396Z" fill="black"/>
<path opacity="0.1" d="M133.639 575.698L139.084 570.272L142.712 571.181L138.151 575.723C138.12 576.175 138.12 576.63 138.151 577.082C138.27 580.252 139.46 588.504 147.995 596.836C158.872 607.449 154.261 622.705 154.261 622.705C154.261 622.705 164.994 626.915 171.141 627.786C170.555 627.784 169.969 627.815 169.387 627.88C169.032 627.929 168.673 627.948 168.315 627.936C162.72 627.798 149.749 622.705 149.749 622.705C149.749 622.705 154.386 607.449 143.483 596.836C134.949 588.504 133.758 580.252 133.639 577.082C133.607 576.621 133.607 576.159 133.639 575.698Z" fill="black"/>
</g>
<path d="M253.734 545.162C253.734 545.162 271.905 532.557 273.24 543.909C274.574 555.261 253.734 553.639 253.734 553.639V545.162Z" fill="#A5636D"/>
<path d="M222.403 536.804C222.403 536.804 232.235 543.307 237.674 542.906C237.674 542.906 252.537 544.899 254.266 543.903C255.996 542.906 257.048 558.312 257.048 558.312L232.611 556.589L216.946 554.196C216.946 554.196 209.113 549.422 209.113 545.306C209.113 541.19 222.403 536.804 222.403 536.804Z" fill="#F7CDDD"/>
<path opacity="0.05" d="M222.403 536.804C222.403 536.804 232.235 543.307 237.674 542.906C237.674 542.906 252.537 544.899 254.266 543.903C255.996 542.906 257.048 558.312 257.048 558.312L232.611 556.589L216.946 554.196C216.946 554.196 209.113 549.422 209.113 545.306C209.113 541.19 222.403 536.804 222.403 536.804Z" fill="black"/>
<path d="M236.822 569.608C236.822 569.608 258.922 568.693 253.972 579.006C249.022 589.318 232.273 576.8 232.273 576.8L236.822 569.608Z" fill="#A5636D"/>
<path d="M214.59 547.687C214.59 547.687 232.504 534.286 229.979 517.965C227.454 501.645 214.59 530.458 214.59 530.458V547.687Z" fill="#5C5C8E"/>
<path d="M219.54 473.696C219.547 479.567 221.831 485.207 225.913 489.428C226.906 490.465 228.002 491.399 229.184 492.216C231.439 493.788 233.955 494.951 236.615 495.649C237.672 495.913 238.746 496.103 239.83 496.219C240.607 496.294 241.39 496.338 242.186 496.338C244.727 496.353 247.251 495.929 249.648 495.085C253.572 493.716 257.044 491.293 259.682 488.082C262.321 484.872 264.025 480.997 264.607 476.883C265.19 472.768 264.629 468.573 262.986 464.756C261.343 460.939 258.681 457.648 255.292 455.243C251.902 452.838 247.916 451.412 243.771 451.122C239.625 450.831 235.479 451.686 231.787 453.594C228.095 455.503 224.999 458.39 222.839 461.94C220.679 465.49 219.538 469.566 219.54 473.721V473.696Z" fill="#A5636D"/>
<path opacity="0.1" d="M133.614 577.026C135.644 577.402 138.151 578.078 138.151 579.131C138.151 580.904 166.461 590.458 166.461 590.458C166.461 590.458 165.402 592.927 168.228 597.174C171.054 601.422 194.062 625.831 194.062 625.831L193.987 626.558L193.693 629.371L192.289 642.815C192.289 642.815 201.137 639.633 203.969 639.984C204.884 640.103 205.849 639.514 206.795 638.668C206.446 637.059 205.809 635.527 204.915 634.145C204.915 634.145 202.622 632.34 199.163 629.953V584.845L139.053 570.253L133.608 575.673C133.579 576.123 133.581 576.576 133.614 577.026V577.026Z" fill="black"/>
<path d="M131.07 574.532C131.07 574.532 138.151 575.234 138.151 577.007C138.151 578.78 166.46 588.334 166.46 588.334C166.46 588.334 165.402 590.803 168.228 595.051C171.053 599.298 194.062 623.713 194.062 623.713L192.289 640.692C192.289 640.692 201.137 637.509 203.969 637.86C205.222 638.016 206.632 636.851 207.791 635.492C208.749 634.357 209.603 633.139 210.342 631.852C210.342 631.852 207.152 618.4 211.4 615.218C215.649 612.035 206.801 588.685 206.801 588.685C206.801 588.685 202.803 572.083 203.981 564.959C204.054 564.483 204.168 564.013 204.32 563.556C204.32 563.506 204.351 563.45 204.37 563.399C206.876 556.596 234.046 499.496 234.046 499.496C234.029 497.876 233.916 496.259 233.708 494.653C233.651 494.208 233.576 493.744 233.494 493.274C233.357 492.43 233.173 491.593 232.943 490.768C232.799 490.24 232.628 489.719 232.429 489.208C231.59 487.053 230.305 485.393 228.388 485.355C228.388 485.355 226.263 483.006 221.282 482.367C217.635 481.891 212.428 482.367 205.379 485.355C188.755 492.422 184.858 492.786 184.858 492.786L176.505 503.75L174.788 505.999C168.495 514.206 162.797 522.853 157.738 531.874C154.956 536.886 151.015 542.706 146.29 546.208C136.734 553.306 131.07 574.532 131.07 574.532Z" fill="#F7CDDD"/>
<path opacity="0.1" d="M193.091 533.622C193.091 533.622 169.468 539.461 160.314 554.184L193.091 533.622Z" fill="black"/>
<path opacity="0.1" d="M185.791 559.49C185.791 559.49 181.324 589.481 182.564 591.736C183.805 593.992 185.791 559.49 185.791 559.49Z" fill="black"/>
<path opacity="0.1" d="M187.389 574.883C189.106 577.133 196.08 594.518 196.08 594.518L194.068 623.713L192.295 640.692C192.295 640.692 201.137 637.509 203.969 637.86C205.222 638.016 206.638 636.851 207.791 635.492C205.955 625.549 202.026 604.743 201.318 604.342C200.385 603.809 195.604 587.094 195.353 582.414C195.102 577.734 188.46 567.303 188.46 567.303C188.46 567.303 185.659 572.634 187.389 574.883Z" fill="black"/>
<path opacity="0.1" d="M194.062 546.227C194.501 547.549 195.178 555.249 195.178 555.249C195.666 562.027 200.817 564.245 203.981 564.959C204.054 564.483 204.168 564.013 204.32 563.556C206.444 557.548 234.046 499.521 234.046 499.521C234.017 496.577 233.647 493.646 232.943 490.787C226.934 489.021 217.422 491.74 217.422 491.74C214.671 491.376 205.698 509.213 205.698 509.213C205.698 509.213 199.721 522.871 199.063 524.731C198.405 526.592 199.063 529.643 198.799 530.708C198.536 531.773 195.742 532.688 195.347 534.154C194.952 535.62 195.209 538.54 194.946 539.06C194.683 539.58 193.617 544.899 194.062 546.227Z" fill="black"/>
<path d="M196.187 545.162C196.625 546.49 197.302 554.184 197.302 554.184C197.703 559.822 201.337 562.328 204.37 563.399C205.737 563.888 207.169 564.173 208.619 564.245L212.886 567.954L232.592 582.458C232.592 582.458 239.936 568.881 237.944 568.806C235.951 568.731 224.459 559.083 224.459 559.083C220.944 557.203 217.422 550.938 215.787 547.718C215.881 547.334 215.952 546.945 216 546.553C216.708 540.544 231.571 517.539 231.571 517.539C231.571 517.539 237.317 510.779 239.554 498.255C239.617 497.967 239.661 497.673 239.717 497.372C239.78 496.982 239.818 496.589 239.83 496.194C240.099 491.376 236.59 489.622 232.43 489.208C230.257 489.036 228.071 489.103 225.913 489.409C223.762 489.68 221.633 490.098 219.54 490.662C217.761 490.424 213.375 497.823 210.498 503.067C208.951 505.911 207.835 508.129 207.835 508.129C207.835 508.129 201.858 521.793 201.2 523.648C200.542 525.502 201.2 528.566 200.936 529.624C200.673 530.683 197.879 531.61 197.484 533.076C197.089 534.543 197.346 537.462 197.083 537.982C196.82 538.502 195.742 543.834 196.187 545.162Z" fill="#F7CDDD"/>
<path opacity="0.1" d="M173.328 514.551C177.088 518.391 183.159 518.404 188.034 516.43C192.909 514.457 197.039 510.923 201.557 508.173C204.489 506.381 207.597 504.915 210.486 503.067C210.912 502.791 211.325 502.515 211.739 502.227C215.072 499.872 217.961 496.846 221.414 494.709C223.723 493.173 226.412 492.306 229.183 492.203C230.459 492.192 231.723 492.457 232.887 492.98C233.102 493.068 233.312 493.17 233.513 493.287C234.65 493.939 235.702 494.728 236.646 495.636C237.624 496.514 238.557 497.447 239.585 498.268C239.648 497.98 239.692 497.685 239.748 497.384C239.811 496.995 239.849 496.601 239.861 496.207C240.638 496.282 241.421 496.326 242.217 496.326C244.758 496.34 247.283 495.916 249.68 495.073C249.68 494.979 249.68 494.885 249.736 494.791C250.582 490.33 252.111 485.606 255.701 483.1C257.782 481.647 261.103 481.051 263.985 479.967C264.984 476.491 265.135 472.826 264.426 469.279C263.717 465.732 262.169 462.407 259.911 459.581C257.652 456.755 254.75 454.512 251.446 453.038C248.142 451.565 244.533 450.904 240.922 451.111C237.31 451.319 233.801 452.388 230.687 454.23C227.574 456.072 224.947 458.633 223.027 461.698C221.107 464.764 219.95 468.245 219.651 471.849C219.353 475.454 219.923 479.078 221.313 482.417C217.666 481.941 212.459 482.417 205.41 485.406C188.786 492.473 184.889 492.836 184.889 492.836L176.536 503.8C177.439 505.178 178.46 506.538 178.554 508.148C178.711 511.099 175.834 513.16 173.328 514.551Z" fill="black"/>
<path d="M255.676 480.964C252.086 483.47 250.557 488.187 249.705 492.642C249.442 494.033 249.191 495.499 248.339 496.601C246.459 499.07 242.599 498.374 240.112 496.601C237.624 494.828 235.663 492.141 232.887 490.887C229.202 489.221 224.866 490.436 221.414 492.598C217.961 494.759 215.073 497.785 211.739 500.116C208.512 502.39 204.915 504.013 201.557 506.061C197.039 508.812 192.91 512.364 188.035 514.319C183.16 516.274 177.069 516.267 173.335 512.439C175.841 511.048 178.717 508.994 178.523 506.011C178.329 503.029 174.857 500.805 175.089 497.748C175.321 494.69 178.918 493.494 181.499 491.99C186.888 488.858 189.188 481.966 190.341 475.607C191.237 470.633 191.976 465.075 195.692 461.88C198.092 459.825 201.331 459.155 203.75 457.119C206.037 455.183 207.309 452.257 208.763 449.557C211.163 445.065 214.314 440.886 218.481 438.198C222.648 435.511 227.949 434.439 232.524 436.281C234.278 436.977 235.876 438.054 237.605 438.787C241.916 440.667 246.848 440.397 251.115 442.358C256.372 444.777 259.787 450.114 262.914 455.183C265.558 459.525 270.803 467.18 269.318 472.819C267.839 478.552 259.574 478.245 255.676 480.964Z" fill="#4C3E42"/>
<g opacity="0.1">
<path opacity="0.1" d="M175.095 497.403C175.115 497.17 175.155 496.94 175.215 496.714C176.167 498.211 177.351 499.665 177.464 501.419C177.488 501.825 177.455 502.232 177.364 502.628C176.305 500.943 174.945 499.358 175.095 497.403Z" fill="black"/>
<path opacity="0.1" d="M186.976 509.745C191.851 507.791 195.974 504.238 200.492 501.488C203.856 499.439 207.453 497.817 210.68 495.542C214.014 493.187 216.902 490.161 220.355 488.024C223.807 485.888 228.137 484.648 231.828 486.308C234.604 487.561 236.559 490.223 239.053 492.028C241.547 493.832 245.369 494.534 247.28 492.028C248.132 490.925 248.383 489.459 248.646 488.068C249.492 483.614 251.027 478.896 254.611 476.39C258.515 473.665 266.78 473.972 268.277 468.246C268.527 467.221 268.593 466.16 268.472 465.113C269.43 467.669 269.925 470.238 269.343 472.474C267.839 478.226 259.574 477.919 255.676 480.619C252.086 483.125 250.557 487.849 249.705 492.303C249.442 493.694 249.191 495.16 248.345 496.263C246.465 498.731 242.606 498.036 240.112 496.232C237.618 494.427 235.669 491.771 232.887 490.518C229.202 488.858 224.866 490.073 221.414 492.235C217.961 494.396 215.073 497.422 211.739 499.753C208.512 502.033 204.915 503.649 201.557 505.698C197.039 508.455 192.91 512.007 188.035 513.962C183.16 515.916 177.069 515.904 173.335 512.082C174.301 511.563 175.217 510.957 176.073 510.272C179.469 511.518 183.523 511.13 186.976 509.745Z" fill="black"/>
</g>
<path d="M297.878 552.598L247.75 533.878C247.163 533.659 246.539 533.556 245.914 533.578C245.288 533.599 244.672 533.744 244.103 534.004C243.533 534.263 243.02 534.632 242.593 535.09C242.166 535.548 241.834 536.086 241.615 536.673V536.673C241.396 537.259 241.295 537.883 241.317 538.509C241.34 539.135 241.485 539.75 241.745 540.319C242.005 540.889 242.375 541.402 242.833 541.828C243.291 542.255 243.829 542.587 244.416 542.806L294.544 561.532L305.284 560.455L297.878 552.598Z" fill="#5C5C8E"/>
<path opacity="0.1" d="M243.138 535.169C242.696 536.355 242.742 537.667 243.267 538.818C243.793 539.97 244.753 540.865 245.939 541.309L296.067 560.029L304.138 559.221L305.297 560.474L294.557 561.551L244.429 542.825C243.842 542.606 243.304 542.274 242.846 541.847C242.388 541.42 242.018 540.908 241.758 540.338C241.498 539.769 241.352 539.153 241.33 538.528C241.308 537.902 241.409 537.278 241.628 536.691V536.691C241.995 535.704 242.681 534.866 243.576 534.311C243.404 534.583 243.257 534.87 243.138 535.169Z" fill="white"/>
<path d="M297.878 552.598L294.538 561.532L303.354 560.649L305.284 560.455L302.646 557.661L297.878 552.598Z" fill="#EFC8C4"/>
<path d="M302.653 557.661C302.445 557.812 302.271 558.004 302.139 558.224C302.056 558.355 302.012 558.506 302.012 558.66C302.012 558.814 302.056 558.965 302.139 559.095C302.283 559.234 302.448 559.351 302.628 559.44C302.831 559.574 303.001 559.752 303.125 559.962C303.249 560.171 303.323 560.406 303.342 560.649L305.272 560.455L302.653 557.661Z" fill="#727A9C"/>
</g>
<defs>
<linearGradient id="paint0_linear" x1="-357.848" y1="565.5" x2="610" y2="565.5" gradientUnits="userSpaceOnUse">
<stop stop-color="#EDEBEF" stop-opacity="0.24"/>
<stop offset="1" stop-color="#FBFBFB"/>
</linearGradient>
<linearGradient id="paint1_linear" x1="-373" y1="566.775" x2="527.222" y2="566.775" gradientUnits="userSpaceOnUse">
<stop stop-color="#9963FF"/>
<stop offset="1" stop-color="#4838BD"/>
</linearGradient>
<linearGradient id="paint2_linear" x1="202.183" y1="734.379" x2="202.183" y2="432.021" gradientUnits="userSpaceOnUse">
<stop stop-color="#808080" stop-opacity="0.25"/>
<stop offset="0.54" stop-color="#808080" stop-opacity="0.12"/>
<stop offset="1" stop-color="#808080" stop-opacity="0.1"/>
</linearGradient>
<clipPath id="clip0">
<rect width="1440" height="1024" fill="white"/>
</clipPath>
</defs>
</svg>
