<svg width="360" height="640" viewBox="0 0 360 640" fill="none" xmlns="http://www.w3.org/2000/svg">
<g clip-path="url(#clip0)">
<path d="M300.469 -75L572 136.384L419.104 333.141C360.798 408.174 252.747 421.68 177.766 363.308V363.308C102.784 304.936 89.2666 196.79 147.573 121.757L300.469 -75Z" fill="url(#paint0_linear)"/>
<path d="M333.858 -57.3615L545.71 107.563L387.67 310.94C342.179 369.481 257.876 380.019 199.375 334.476V334.476C140.874 288.933 130.327 204.556 175.818 146.015L333.858 -57.3615Z" fill="url(#paint1_linear)"/>
<path d="M107.919 213.897C107.919 213.897 110.132 212.317 112.421 213.293C112.421 213.293 111.781 214.649 108.928 214.632L107.919 213.897Z" fill="#6C63FF"/>
<path d="M107.644 213.988C107.644 213.988 107.053 216.634 108.854 218.351C108.854 218.351 109.852 217.231 108.717 214.626L107.644 213.988Z" fill="#6C63FF"/>
<path d="M104.718 211.58C104.718 211.58 104.799 209.346 109.878 209.892C109.878 209.892 109.957 211.329 108.211 212.077C106.466 212.825 105.629 212.288 104.718 211.58Z" fill="#6C63FF"/>
<path d="M104.404 211.576C104.404 211.576 102.294 212.341 104.381 216.987C104.381 216.987 105.777 216.619 105.954 214.734C106.131 212.849 105.358 212.226 104.404 211.576Z" fill="#6C63FF"/>
<path d="M101.423 208.526C101.423 208.526 100.997 204.87 106.169 205.049C106.169 205.049 106.662 208.354 102.369 209.372L101.423 208.526Z" fill="#6C63FF"/>
<path d="M97.8535 204.517C97.8535 204.517 98.4019 200.337 103.615 201.376C103.615 201.376 103.773 204.968 98.7412 205.476L97.8535 204.517Z" fill="#6C63FF"/>
<path d="M95.1968 200.333C95.1968 200.333 96.2253 196.233 101.385 197.257C101.385 197.257 100.318 200.945 95.5659 201.068L95.1968 200.333Z" fill="#6C63FF"/>
<path d="M92.668 196.246C92.668 196.246 93.6645 191.995 98.6429 193.075C98.6429 193.075 97.1491 197.128 93.0158 196.949L92.668 196.246Z" fill="#6C63FF"/>
<path d="M90.9888 192.335C90.9888 192.335 91.6823 187.164 96.3235 188.125C96.3235 188.125 95.1669 192.85 91.3515 193.068L90.9888 192.335Z" fill="#6C63FF"/>
<path d="M89.3733 187.594C89.3733 187.594 90.2418 182.376 94.9534 183.704C94.9534 183.704 93.3146 188.667 89.7254 188.297L89.3733 187.594Z" fill="#6C63FF"/>
<path d="M88.3149 183.171C88.3149 183.171 89.8087 177.93 93.4192 177.932C93.4192 177.932 91.8935 183.458 88.6564 184.197L88.3149 183.171Z" fill="#6C63FF"/>
<path d="M87.5852 178.831C87.5852 178.831 89.192 172.527 92.1411 172.897C92.1411 172.897 91.0464 177.709 87.726 179.798L87.5852 178.831Z" fill="#6C63FF"/>
<path d="M87.0667 173.641C87.0667 173.641 88.5967 168.383 91.4817 168.064C91.4817 168.064 90.5001 173.218 87.1819 174.988L87.0667 173.641Z" fill="#6C63FF"/>
<path d="M86.5288 168.812C86.5288 168.812 88.4877 163.531 90.3954 163.339C90.3954 163.339 89.655 168.493 86.7529 169.658L86.5288 168.812Z" fill="#6C63FF"/>
<path d="M86.1169 164.311C86.1169 164.311 87.2266 158.613 89.1172 158.073C89.1172 158.073 89.034 162.7 86.3239 164.725L86.1169 164.311Z" fill="#6C63FF"/>
<path d="M85.1716 158.436C85.1716 158.436 86.3944 153.884 87.9137 153.138C87.9137 153.138 87.8113 158.451 85.5664 159.514L85.1716 158.436Z" fill="#6C63FF"/>
<path d="M84.425 154.581L83.8381 146.658C83.8381 146.658 86.9536 152.536 84.6917 155.973L84.425 154.581Z" fill="#6C63FF"/>
<path d="M81.8856 146.781C81.8856 146.781 79.5832 141.066 79.071 140.762C79.071 140.762 83.2962 144.375 83.0828 149.217L81.8856 146.781Z" fill="#6C63FF"/>
<path d="M101.283 208.505C101.283 208.505 97.6016 208.167 97.911 213.314C97.911 213.314 101.24 213.724 102.155 209.423L101.283 208.505Z" fill="#6C63FF"/>
<path d="M97.6764 204.386C97.6764 204.386 93.447 204.532 93.9933 209.793C93.9933 209.793 97.5676 210.29 98.5513 205.349L97.6764 204.386Z" fill="#6C63FF"/>
<path d="M95.169 200.677C95.169 200.677 91.2597 199.03 88.9807 203.752C88.9807 203.752 92.5849 205.11 95.536 201.415L95.169 200.677Z" fill="#6C63FF"/>
<path d="M92.5828 196.288C92.5828 196.288 88.5796 194.529 86.4436 199.14C86.4436 199.14 90.594 200.388 92.9349 196.99L92.5828 196.288Z" fill="#6C63FF"/>
<path d="M91.0419 192.444C91.0419 192.444 87.1198 188.988 84.2412 192.745C84.2412 192.745 88.2209 195.559 91.2468 193.238L91.0419 192.444Z" fill="#6C63FF"/>
<path d="M89.5826 187.462C89.5826 187.462 85.6349 183.925 82.7861 187.887C82.7861 187.887 87.1755 190.745 89.749 188.225L89.5826 187.462Z" fill="#6C63FF"/>
<path d="M88.6991 183.003C88.6991 183.003 85.59 178.519 82.1758 179.675C82.1758 179.675 85.4065 184.427 88.7076 184.085L88.6991 183.003Z" fill="#6C63FF"/>
<path d="M87.6726 178.799C87.6726 178.799 84.491 173.12 81.7383 174.232C81.7383 174.232 84.0386 178.601 87.7836 179.768L87.6726 178.799Z" fill="#6C63FF"/>
<path d="M87.2565 173.337C87.2565 173.337 84.0429 168.895 81.2197 169.56C81.2197 169.56 83.8807 174.087 87.6022 174.646L87.2565 173.337Z" fill="#6C63FF"/>
<path d="M86.8469 168.697C86.8469 168.697 84.2969 163.673 82.3806 163.701C82.3806 163.701 83.7058 168.738 86.721 169.562L86.8469 168.697Z" fill="#6C63FF"/>
<path d="M86.2065 164.196C86.2065 164.196 83.3898 159.116 81.4224 159.18C81.4224 159.18 82.9332 163.558 86.1361 164.655L86.2065 164.196Z" fill="#6C63FF"/>
<path d="M85.6026 158.73C85.6026 158.73 83.4794 154.517 81.8406 154.094C81.8406 154.094 83.0206 159.28 85.4298 159.875L85.6026 158.73Z" fill="#6C63FF"/>
<path d="M84.1858 154.441L79.5574 147.971C79.5574 147.971 80.9295 154.479 84.8729 155.682L84.1858 154.441Z" fill="#6C63FF"/>
<path d="M80.9061 147.353C80.9061 147.353 75.6973 144.052 75.4839 143.493C75.4839 143.493 78.2579 148.292 83.0933 148.972L80.9061 147.353Z" fill="#6C63FF"/>
<path d="M80.5412 145.793C80.5412 145.793 74.4895 140.426 73 140.49C73 140.49 77.8226 140.524 80.682 145.491L80.5412 145.793Z" fill="#6C63FF"/>
<path d="M85.5771 159.58L85.3637 159.616C83.9382 151.104 82.1436 146.112 80.3127 145.555L80.3746 145.342C82.3122 145.929 84.1175 150.849 85.5771 159.58Z" fill="#444053"/>
<path d="M87.9779 179.957L87.6578 179.996C87.5597 179.201 87.4743 178.385 87.4081 177.573C86.8299 170.506 86.1043 164.024 85.2935 159.174L85.4706 158.938C86.2836 163.796 87.1499 170.47 87.7304 177.547C87.7965 178.355 87.8797 179.165 87.9779 179.957Z" fill="#444053"/>
<path d="M114.071 217.739C114.013 217.716 108.26 215.416 102.157 209.64C98.5834 206.258 95.57 202.335 93.2292 198.014C90.3037 192.614 88.3896 185.91 87.5808 179.36L87.9222 179.505C89.736 194.208 96.8675 204.035 102.433 209.316C108.476 215.042 114.169 217.318 114.222 217.34L114.071 217.739Z" fill="#444053"/>
<g opacity="0.7">
<path opacity="0.7" d="M116.847 200.43C116.847 200.43 119.432 199.58 121.329 201.189C121.329 201.189 120.311 202.294 117.592 201.432L116.847 200.43Z" fill="#6C63FF"/>
<path opacity="0.7" d="M116.557 200.435C116.557 200.435 115.204 202.788 116.41 204.957C116.41 204.957 117.69 204.186 117.394 201.361L116.557 200.435Z" fill="#6C63FF"/>
<path opacity="0.7" d="M114.481 197.27C114.481 197.27 115.228 195.162 119.912 197.187C119.912 197.187 119.56 198.584 117.667 198.779C115.774 198.975 115.142 198.212 114.481 197.27Z" fill="#6C63FF"/>
<path opacity="0.7" d="M114.184 197.175C114.184 197.175 111.944 197.281 112.546 202.333C112.546 202.333 113.99 202.396 114.722 200.647C115.454 198.898 114.901 198.076 114.184 197.175Z" fill="#6C63FF"/>
<path opacity="0.7" d="M112.251 193.372C112.251 193.372 112.932 189.759 117.818 191.46C117.818 191.46 117.304 194.76 112.9 194.461L112.251 193.372Z" fill="#6C63FF"/>
<path opacity="0.7" d="M110.04 188.484C110.04 188.484 111.811 184.659 116.472 187.192C116.472 187.192 115.55 190.667 110.593 189.662L110.04 188.484Z" fill="#6C63FF"/>
<path opacity="0.7" d="M108.751 183.713C108.751 183.713 110.96 180.1 115.58 182.61C115.58 182.61 113.446 185.81 108.886 184.523L108.751 183.713Z" fill="#6C63FF"/>
<path opacity="0.7" d="M107.559 179.06C107.559 179.06 109.778 175.303 114.214 177.804C114.214 177.804 111.579 181.23 107.687 179.836L107.559 179.06Z" fill="#6C63FF"/>
<path opacity="0.7" d="M107.123 174.829C107.123 174.829 109.33 170.098 113.478 172.393C113.478 172.393 110.962 176.559 107.256 175.639L107.123 174.829Z" fill="#6C63FF"/>
<path opacity="0.7" d="M107 169.824C107 169.824 109.387 165.099 113.487 167.764C113.487 167.764 110.441 172.015 107.125 170.6L107 169.824Z" fill="#6C63FF"/>
<path opacity="0.7" d="M107.313 165.282C107.313 165.282 110.3 160.721 113.749 161.792C113.749 161.792 110.64 166.623 107.33 166.364L107.313 165.282Z" fill="#6C63FF"/>
<path opacity="0.7" d="M107.919 160.927C107.919 160.927 111.333 155.387 114.041 156.613C114.041 156.613 111.557 160.883 107.765 161.892L107.919 160.927Z" fill="#6C63FF"/>
<path opacity="0.7" d="M108.963 155.82C108.963 155.82 111.997 151.253 114.844 151.803C114.844 151.803 112.368 156.434 108.672 157.14L108.963 155.82Z" fill="#6C63FF"/>
<path opacity="0.7" d="M109.895 151.049C109.895 151.049 113.341 146.586 115.219 146.972C115.219 146.972 112.972 151.674 109.854 151.922L109.895 151.049Z" fill="#6C63FF"/>
<path opacity="0.7" d="M110.845 146.63C110.845 146.63 113.606 141.529 115.573 141.563C115.573 141.563 114.11 145.956 110.919 147.089L110.845 146.63Z" fill="#6C63FF"/>
<path opacity="0.7" d="M111.696 140.741C111.696 140.741 114.225 136.758 115.898 136.49C115.898 136.49 114.212 141.536 111.754 141.891L111.696 140.741Z" fill="#6C63FF"/>
<path opacity="0.7" d="M112.136 136.839L113.943 129.099C113.943 129.099 115.162 135.634 111.974 138.237L112.136 136.839Z" fill="#6C63FF"/>
<path opacity="0.7" d="M112.046 128.642C112.046 128.642 111.553 122.504 111.156 122.053C111.156 122.053 114.114 126.746 112.462 131.315L112.046 128.642Z" fill="#6C63FF"/>
<path opacity="0.7" d="M112.121 193.315C112.121 193.315 108.707 191.904 107.467 196.911C107.467 196.911 110.52 198.288 112.68 194.452L112.121 193.315Z" fill="#6C63FF"/>
<path opacity="0.7" d="M109.908 188.314C109.908 188.314 105.826 187.203 104.776 192.386C104.776 192.386 108.041 193.921 110.456 189.494L109.908 188.314Z" fill="#6C63FF"/>
<path opacity="0.7" d="M108.623 184.032C108.623 184.032 105.384 181.301 101.795 185.135C101.795 185.135 104.829 187.5 108.754 184.841L108.623 184.032Z" fill="#6C63FF"/>
<path opacity="0.7" d="M107.467 179.075C107.467 179.075 104.168 176.21 100.753 179.979C100.753 179.979 104.343 182.401 107.593 179.851L107.467 179.075Z" fill="#6C63FF"/>
<path opacity="0.7" d="M107.145 174.95C107.145 174.95 104.43 170.487 100.559 173.22C100.559 173.22 103.519 177.088 107.102 175.77L107.145 174.95Z" fill="#6C63FF"/>
<path opacity="0.7" d="M107.238 169.76C107.238 169.76 104.524 165.214 100.623 168.155C100.623 168.155 103.961 172.194 107.168 170.542L107.238 169.76Z" fill="#6C63FF"/>
<path opacity="0.7" d="M107.725 165.24C107.725 165.24 106.097 160.039 102.493 160.139C102.493 160.139 104.157 165.635 107.411 166.285L107.725 165.24Z" fill="#6C63FF"/>
<path opacity="0.7" d="M108 160.923C108 160.923 106.66 154.558 103.7 154.804C103.7 154.804 104.592 159.658 107.819 161.884L108 160.923Z" fill="#6C63FF"/>
<path opacity="0.7" d="M109.238 155.586C109.238 155.586 107.497 150.392 104.601 150.19C104.601 150.19 105.79 155.302 109.176 156.938L109.238 155.586Z" fill="#6C63FF"/>
<path opacity="0.7" d="M110.232 151.034C110.232 151.034 109.298 145.483 107.458 144.941C107.458 144.941 107.221 150.141 109.852 151.825L110.232 151.034Z" fill="#6C63FF"/>
<path opacity="0.7" d="M110.964 146.547C110.964 146.547 109.793 140.862 107.896 140.341C107.896 140.341 108.03 144.968 110.762 146.964L110.964 146.547Z" fill="#6C63FF"/>
<path opacity="0.7" d="M112.018 141.158C112.018 141.158 111.25 136.507 109.812 135.617C109.812 135.617 109.385 140.917 111.519 142.205L112.018 141.158Z" fill="#6C63FF"/>
<path opacity="0.7" d="M111.95 136.626L109.462 129.077C109.462 129.077 108.822 135.695 112.236 138.014L111.95 136.626Z" fill="#6C63FF"/>
<path opacity="0.7" d="M110.937 128.897C110.937 128.897 106.94 124.198 106.91 123.605C106.91 123.605 108.133 129.009 112.537 131.09L110.937 128.897Z" fill="#6C63FF"/>
<path opacity="0.7" d="M111.054 127.3C111.054 127.3 106.878 120.383 105.438 120C105.438 120 110.03 121.464 111.267 127.048L111.054 127.3Z" fill="#6C63FF"/>
<path opacity="0.7" d="M111.745 141.94L111.532 141.91C112.712 133.364 112.492 128.063 110.909 126.99L111.03 126.814C112.71 127.955 112.955 133.185 111.745 141.94Z" fill="#444053"/>
<path opacity="0.7" d="M107.947 162.13L107.629 162.073C107.774 161.284 107.936 160.481 108.115 159.684C109.675 152.766 110.919 146.365 111.592 141.493L111.833 141.319C111.158 146.207 109.991 152.828 108.431 159.756C108.252 160.536 108.09 161.335 107.947 162.13Z" fill="#444053"/>
<path opacity="0.7" d="M121.576 205.922C121.529 205.884 116.724 201.984 112.614 194.658C110.212 190.371 108.508 185.732 107.565 180.914C106.385 174.891 106.558 167.924 107.744 161.431L108.026 161.669C105.369 176.244 109.242 187.742 112.985 194.435C117.039 201.691 121.794 205.55 121.843 205.589L121.576 205.922Z" fill="#444053"/>
</g>
<path d="M269.593 278.995C269.593 278.995 260.571 278.453 261.636 284.75C261.636 284.75 261.423 285.862 262.436 286.368C262.436 286.368 262.453 285.9 263.362 286.06C263.686 286.114 264.015 286.13 264.342 286.106C264.784 286.075 265.205 285.902 265.541 285.613V285.613C265.541 285.613 268.076 284.57 269.062 280.442C269.062 280.442 269.792 279.541 269.764 279.31L268.24 279.947C268.24 279.947 268.761 281.042 268.351 281.949C268.351 281.949 268.302 279.988 268.01 280.036C267.95 280.047 267.218 280.417 267.218 280.417C267.218 280.417 268.114 282.33 267.432 283.707C267.432 283.707 267.688 281.358 266.932 280.553L265.865 281.178C265.865 281.178 266.911 283.146 266.202 284.75C266.202 284.75 266.384 282.287 265.639 281.329L264.668 282.083C264.668 282.083 265.652 284.024 265.052 285.354C265.052 285.354 264.973 282.487 264.459 282.27C264.459 282.27 263.606 283.016 263.48 283.333C263.48 283.333 264.152 284.74 263.736 285.484C263.736 285.484 263.48 283.571 263.268 283.571C263.268 283.571 262.415 284.835 262.334 285.696C262.334 285.696 262.37 284.406 263.064 283.443C262.575 283.535 262.125 283.767 261.768 284.111C261.768 284.111 261.901 283.216 263.262 283.137C263.262 283.137 263.962 282.179 264.15 282.119C264.15 282.119 262.782 282.007 261.954 282.372C261.954 282.372 262.684 281.522 264.399 281.911L265.357 281.131C265.357 281.131 263.559 280.887 262.797 281.156C262.797 281.156 263.674 280.41 265.616 280.955L266.659 280.334C266.659 280.334 265.127 280.005 264.214 280.121C264.214 280.121 265.178 279.603 266.966 280.164L267.713 279.83C267.713 279.83 266.589 279.618 266.26 279.575C265.931 279.533 265.914 279.45 265.914 279.45C266.625 279.332 267.355 279.413 268.023 279.684C268.023 279.684 269.621 279.095 269.593 278.995Z" fill="#6C63FF"/>
<path opacity="0.1" d="M263.379 287.992C266.906 287.992 269.764 287.51 269.764 286.916C269.764 286.322 266.906 285.841 263.379 285.841C259.853 285.841 256.995 286.322 256.995 286.916C256.995 287.51 259.853 287.992 263.379 287.992Z" fill="#6C63FF"/>
<path d="M286.899 262.403C286.899 262.403 281.814 262.099 282.418 265.648C282.387 265.828 282.414 266.013 282.495 266.177C282.575 266.34 282.706 266.475 282.868 266.56C282.868 266.56 282.879 266.296 283.391 266.386C283.573 266.417 283.759 266.426 283.944 266.413C284.193 266.396 284.43 266.299 284.618 266.135V266.135C284.618 266.135 286.048 265.546 286.605 263.219C286.605 263.219 287.017 262.711 286.999 262.581L286.146 262.947C286.146 262.947 286.438 263.563 286.208 264.075C286.208 264.075 286.18 262.968 286.016 262.996C285.982 262.996 285.57 263.208 285.57 263.208C285.57 263.208 286.073 264.284 285.694 265.064C285.694 265.064 285.839 263.74 285.412 263.287L284.808 263.637C284.808 263.637 285.397 264.747 284.998 265.652C284.998 265.652 285.1 264.264 284.68 263.723L284.134 264.148C284.134 264.148 284.686 265.242 284.347 265.992C284.347 265.992 284.302 264.377 284.012 264.254C283.805 264.429 283.619 264.628 283.459 264.847C283.459 264.847 283.839 265.642 283.604 266.06C283.604 266.06 283.459 264.983 283.342 264.979C283.342 264.979 282.864 265.693 282.815 266.181C282.838 265.728 282.98 265.288 283.227 264.906C282.951 264.958 282.697 265.089 282.495 265.282C282.495 265.282 282.569 264.779 283.348 264.734C283.348 264.734 283.743 264.192 283.848 264.16C283.848 264.16 283.077 264.097 282.61 264.303C282.61 264.303 283.022 263.827 283.989 264.041L284.531 263.603C284.531 263.603 283.515 263.465 283.086 263.618C283.086 263.618 283.581 263.193 284.676 263.504L285.265 263.153C284.811 263.054 284.347 263.014 283.884 263.034C283.884 263.034 284.428 262.743 285.435 263.059L285.862 262.87C285.862 262.87 285.222 262.747 285.043 262.728C284.863 262.709 284.846 262.656 284.846 262.656C285.248 262.589 285.66 262.635 286.037 262.787C286.037 262.787 286.914 262.46 286.899 262.403Z" fill="#6C63FF"/>
<path opacity="0.1" d="M283.397 267.476C285.386 267.476 286.997 267.205 286.997 266.87C286.997 266.536 285.386 266.264 283.397 266.264C281.409 266.264 279.798 266.536 279.798 266.87C279.798 267.205 281.409 267.476 283.397 267.476Z" fill="#6C63FF"/>
<path d="M256.877 265.484C256.877 265.484 250.736 265.115 251.462 269.401C251.424 269.619 251.456 269.842 251.554 270.04C251.652 270.238 251.81 270.4 252.006 270.502C252.006 270.502 252.006 270.186 252.635 270.29C252.856 270.326 253.08 270.338 253.303 270.324C253.604 270.302 253.89 270.184 254.118 269.988V269.988C254.118 269.988 255.845 269.278 256.517 266.466C256.517 266.466 257.014 265.854 256.993 265.697L255.958 266.137C255.958 266.137 256.312 266.883 256.032 267.501C256.032 267.501 256 266.164 255.8 266.196C255.759 266.196 255.262 266.454 255.262 266.454C255.262 266.454 255.87 267.752 255.412 268.694C255.412 268.694 255.586 267.095 255.072 266.547L254.342 266.972C254.342 266.972 255.053 268.311 254.571 269.406C254.571 269.406 254.695 267.729 254.189 267.068L253.527 267.58C253.527 267.58 254.197 268.9 253.79 269.807C253.79 269.807 253.736 267.856 253.384 267.707C253.384 267.707 252.806 268.215 252.719 268.424C252.719 268.424 253.175 269.382 252.891 269.888C252.891 269.888 252.719 268.589 252.576 268.583C252.576 268.583 251.999 269.444 251.935 270.035C251.964 269.489 252.136 268.96 252.433 268.5C252.101 268.563 251.794 268.721 251.551 268.955C251.551 268.955 251.641 268.345 252.576 268.292C252.576 268.292 253.051 267.639 253.179 267.599C253.179 267.599 252.249 267.523 251.686 267.771C251.686 267.771 252.181 267.195 253.348 267.457L254.001 266.927C254.001 266.927 252.778 266.76 252.258 266.944C252.258 266.944 252.855 266.437 254.178 266.806L254.889 266.381C254.889 266.381 253.845 266.156 253.222 266.237C253.222 266.237 253.879 265.886 255.096 266.267L255.606 266.058C255.606 266.058 254.842 265.909 254.618 265.886C254.394 265.863 254.383 265.801 254.383 265.801C254.867 265.721 255.364 265.776 255.819 265.96C255.819 265.96 256.897 265.552 256.877 265.484Z" fill="#6C63FF"/>
<path opacity="0.1" d="M252.648 271.607C255.049 271.607 256.995 271.28 256.995 270.876C256.995 270.473 255.049 270.145 252.648 270.145C250.247 270.145 248.301 270.473 248.301 270.876C248.301 271.28 250.247 271.607 252.648 271.607Z" fill="#6C63FF"/>
<path opacity="0.1" d="M205.517 267.708L184.112 275.956L152.825 288C151.645 285.817 149.903 282.831 147.748 279.286C140.339 267.055 128.078 248.031 117.165 231.314C104.865 212.477 94.2812 196.571 94.2812 196.571L101.944 194.359L164.535 176.278L205.517 267.708Z" fill="black"/>
<path d="M205.944 266.22L184.538 274.468L153.251 286.512C152.071 284.33 150.33 281.344 148.175 277.798C140.766 265.567 128.505 246.544 117.592 229.826C105.292 210.989 94.708 195.083 94.708 195.083L102.371 192.871L164.962 174.791L205.944 266.22Z" fill="white"/>
<path opacity="0.1" d="M205.944 266.22L184.538 274.468C172.583 276.948 160.384 278.066 148.175 277.798C140.766 265.567 128.505 246.544 117.592 229.826L102.371 192.871L164.962 174.791L205.944 266.22Z" fill="black"/>
<path d="M221.869 261.089C221.869 261.089 188.614 280.68 138.967 276.26L99.3835 180.155L118.352 176.91L183.922 165.694L221.126 259.232L221.869 261.089Z" fill="#6C63FF"/>
<path opacity="0.1" d="M221.126 259.232C213.295 259.614 204.239 259.578 195.123 258.496C185.26 257.344 175.35 254.96 166.836 250.594C159.726 246.945 153.646 242.982 148.343 238.223C134.556 225.871 126.023 208.201 118.36 176.91L183.93 165.694L221.126 259.232Z" fill="black"/>
<path d="M245.519 253.859C245.519 253.859 220.996 258.645 196.06 255.697C186.197 254.539 176.276 252.161 167.773 247.795C160.663 244.146 154.583 240.182 149.28 235.424C132.209 220.122 123.202 196.696 113.911 149.368C113.911 149.368 154.668 159.163 194.937 137.706C194.937 137.706 208.519 222.138 245.519 253.859Z" fill="white"/>
<path opacity="0.1" d="M196.059 255.697C186.197 254.539 176.276 252.161 167.773 247.795C160.662 244.146 154.583 240.183 149.28 235.424C163.81 234.249 165.899 226.336 165.899 226.336C176.671 243.364 196.059 255.697 196.059 255.697Z" fill="black"/>
<path opacity="0.3" d="M134.988 166.744C134.988 166.744 156.881 169.233 177.373 157.765L178.777 162.256C178.777 162.256 159.173 171.992 134.988 171.992V166.744Z" fill="#6C63FF"/>
<path opacity="0.3" d="M135.083 189.271C135.083 189.271 160.679 187.221 189.174 173.556L190.137 175.742C190.137 175.742 179.65 188.837 135.083 192.259V189.271Z" fill="black"/>
<path opacity="0.3" d="M137.644 197.563C137.644 197.563 163.537 195.818 192.363 184.183L193.338 186.044C193.338 186.044 182.732 197.207 137.644 200.122V197.563Z" fill="black"/>
<path opacity="0.3" d="M139.991 206.914C139.991 206.914 166.381 205.169 195.759 193.534L196.752 195.396C196.752 195.396 185.927 206.552 139.991 209.474V206.914Z" fill="black"/>
<path opacity="0.3" d="M142.765 214.776C142.765 214.776 168.857 213.031 197.904 201.398L198.886 203.259C198.886 203.259 188.199 214.416 142.765 217.337V214.776Z" fill="black"/>
<path opacity="0.1" d="M145.325 223.185C145.325 223.185 171.815 221.23 201.303 208.199L202.3 210.284C202.3 210.284 191.448 222.781 145.325 226.051V223.185Z" fill="black"/>
<path d="M260.642 214.271L260.413 214.058C261.002 213.939 261.557 213.886 261.557 213.886C261.557 213.886 259.536 206.605 256.128 204.175C254.443 202.975 253.038 200.975 252.046 199.259C250.237 196.158 248.206 193.191 245.967 190.382L245.352 189.611L245.088 189.275C245.457 188.718 245.909 188.189 245.858 187.543C245.857 187.538 245.857 187.534 245.858 187.53C245.86 187.496 245.86 187.462 245.858 187.428C245.852 187.348 245.837 187.269 245.815 187.192L245.792 187.228C245.504 186.395 244.396 186.027 243.575 185.568C241.654 184.491 240.833 182.136 240.423 179.947C240.103 178.246 239.838 176.334 238.502 175.239C237.649 174.536 236.488 174.304 235.628 173.605C234.813 172.942 234.358 171.936 233.846 171.012C232.993 169.471 231.866 168.036 230.379 167.116C228.891 166.196 227.003 165.841 225.37 166.457C224.745 166.695 224.178 167.065 223.559 167.322C222.022 167.96 220.262 167.875 218.74 168.549C216.867 169.378 215.648 171.21 214.535 172.948C213.958 173.847 213.054 175.163 212.539 176.487C212.539 176.44 212.539 176.395 212.539 176.349C212.293 176.932 212.158 177.556 212.142 178.189C212.132 178.458 212.162 178.728 212.23 178.988C212.46 179.838 213.148 180.308 213.963 180.635C214.01 180.906 214.073 181.173 214.15 181.437C214.519 182.646 215.176 183.749 216.063 184.652C216.951 185.555 218.044 186.232 219.25 186.624C219.321 186.65 219.393 186.667 219.464 186.688C219.523 186.856 219.609 187.014 219.718 187.156C220.398 188.006 221.764 187.764 222.652 187.145C222.688 187.122 222.722 187.092 222.756 187.067C222.762 187.187 222.775 187.307 222.795 187.426C222.814 187.528 222.829 187.638 222.85 187.73C223.651 192.025 225.699 194.344 225.699 194.344C225.699 194.344 225.889 194.628 226.198 195.1C226.036 197.47 227.122 199.629 228.377 201.298C227.295 201.92 224.963 203.14 223.52 203.038C223.52 203.038 218.22 203.721 217.605 203.378C217.52 203.332 217.439 203.395 217.362 203.54C215.902 202.654 211.236 200.099 210.837 203.378C210.476 206.354 214.729 206.734 216.754 206.749C216.662 207.62 216.611 208.318 216.611 208.318L225.319 207.725L229.854 207.059C229.352 207.72 228.787 208.309 228.234 208.596C228.234 208.596 224.135 211.901 223.426 211.931C223.326 211.931 223.294 212.031 223.309 212.19C221.585 212.19 216.222 212.439 217.71 215.414C219.061 218.111 222.863 216.245 224.583 215.214C224.988 215.998 225.334 216.613 225.334 216.613L232.361 211.629L233.883 210.354C234.398 210.329 234.908 210.231 235.395 210.062C235.395 210.082 235.41 210.101 235.417 210.118C235.471 210.274 235.512 210.435 235.538 210.598C235.965 213.04 234.531 218.736 234.531 218.736C234.531 218.736 231.377 226.746 232.892 227.839C234.407 228.931 233.287 233.541 233.287 233.541C233.552 233.984 233.856 234.402 234.196 234.791V234.791C234.357 234.975 234.535 235.144 234.728 235.294C234.657 235.485 234.599 235.68 234.553 235.879C234.321 236.861 234.409 237.891 234.802 238.82C235.844 241.337 235.21 244.984 235.21 244.984L233.166 258.739C232.184 258.59 230.916 258.467 230.445 258.739C229.721 259.145 229.958 261.191 231.638 262.071C231.128 262.46 230.537 262.731 229.909 262.864C228.416 263.204 227.366 263.421 226.674 263.552C226.629 263.552 223.089 262.775 222.18 263.289C221.271 263.803 221.709 266.655 224.295 267.355C226.826 268.037 236.264 269.038 238.983 268.63L239.155 268.6C241.466 268.145 239.437 265.121 239.181 264.753C239.164 264.63 239.149 264.5 239.132 264.36C239.096 264.046 239.064 263.684 239.04 263.297C241.618 263.533 244.162 263.648 245.329 263.474C245.384 263.474 245.435 263.457 245.482 263.446C247.529 263.042 245.736 260.369 245.506 260.046C245.496 259.964 245.485 259.876 245.474 259.784V259.761C245.474 259.699 245.459 259.633 245.453 259.57C245.446 259.506 245.453 259.461 245.435 259.404C245.418 259.346 245.435 259.302 245.42 259.249C245.412 259.144 245.403 259.035 245.395 258.924C245.395 258.879 245.395 258.832 245.395 258.785C245.395 258.7 245.384 258.615 245.38 258.528C245.38 258.481 245.38 258.435 245.38 258.386C245.38 258.258 245.38 258.127 245.367 257.995C245.367 257.959 245.367 257.923 245.367 257.886C245.367 257.78 245.367 257.674 245.367 257.563C245.367 257.512 245.367 257.461 245.367 257.408C245.367 257.296 245.367 257.183 245.367 257.068C245.367 257.03 245.367 256.994 245.367 256.955C245.367 256.813 245.38 256.666 245.388 256.52L245.401 256.363C245.401 256.254 245.418 256.15 245.429 256.039C245.429 255.986 245.429 255.933 245.446 255.88C245.463 255.731 245.482 255.583 245.504 255.432C245.504 255.387 245.519 255.342 245.525 255.298C245.544 255.185 245.563 255.07 245.585 254.956C245.585 254.9 245.606 254.843 245.619 254.786C245.645 254.662 245.672 254.539 245.702 254.416C245.702 254.382 245.717 254.348 245.726 254.314C245.764 254.165 245.807 254.018 245.852 253.872C245.866 253.821 245.884 253.77 245.901 253.719C245.937 253.608 245.975 253.506 246.016 253.391L246.067 253.255C246.125 253.111 246.187 252.968 246.251 252.83C246.268 252.794 246.287 252.758 246.306 252.722C246.359 252.611 246.417 252.509 246.477 252.395L246.549 252.269C246.63 252.133 246.714 251.997 246.805 251.867C249.153 248.535 249.772 242.108 249.714 240.71C249.656 239.311 249.993 236.41 250.414 235.981C250.695 235.694 252.334 233.43 253.314 231.709C253.491 231.394 253.645 231.099 253.766 230.835C254.462 230.595 254.923 230.41 254.923 230.41C254.678 229.518 254.56 228.596 254.573 227.671C254.59 225.862 255.089 223.48 257.151 221.546C260.193 218.689 260.618 215.858 260.659 214.77C260.659 214.694 260.659 214.626 260.659 214.568C260.652 214.368 260.642 214.271 260.642 214.271Z" fill="url(#paint2_linear)"/>
<path d="M252.533 232.096C251.707 233.565 250.78 234.976 249.759 236.319C249.358 236.744 249.035 239.615 249.091 240.994C249.146 242.374 248.56 248.733 246.317 252.027C244.074 255.321 245.226 261.015 245.226 261.015L241.648 262.265H237.348L234.386 261.383L233.605 259.236C233.605 259.236 234.647 259.077 237.233 258.464C237.95 258.319 238.6 257.944 239.084 257.396C239.567 256.849 239.858 256.159 239.911 255.432L241.727 242.801C241.727 242.801 242.262 239.613 241.379 237.407C241.13 236.786 241.027 236.117 241.077 235.45C241.128 234.783 241.33 234.137 241.669 233.56L241.727 233.471C241.727 233.471 244.529 231.267 247.384 229.887C249.912 228.672 252.477 228.094 253.205 230.251C253.299 230.529 252.992 231.246 252.533 232.096Z" fill="#A5636D"/>
<path opacity="0.05" d="M252.533 232.096C251.707 233.565 250.78 234.976 249.759 236.319C249.358 236.744 249.035 239.615 249.091 240.994C249.146 242.374 248.56 248.733 246.317 252.027C244.738 254.35 244.842 257.861 245.036 259.733C245.12 260.518 245.222 261.008 245.222 261.008L241.644 262.258H237.348L234.386 261.383L233.605 259.236C233.605 259.236 233.866 259.196 234.459 259.081C235.052 258.966 235.953 258.77 237.246 258.464C237.961 258.317 238.608 257.94 239.089 257.393C239.57 256.846 239.858 256.157 239.911 255.432L241.727 242.801C241.727 242.801 242.262 239.613 241.379 237.407C241.13 236.786 241.027 236.117 241.077 235.45C241.128 234.783 241.33 234.137 241.669 233.56L241.727 233.471C241.727 233.471 244.529 231.267 247.384 229.887C249.912 228.672 252.477 228.094 253.205 230.251C253.299 230.529 252.992 231.246 252.533 232.096Z" fill="black"/>
<path opacity="0.1" d="M245.226 261.017L241.648 262.267H237.348L234.386 261.383L233.605 259.236C233.605 259.236 233.866 259.196 234.459 259.081C234.417 259.471 234.52 259.863 234.748 260.182C234.977 260.502 235.315 260.727 235.699 260.815L237.38 260.872C237.617 260.872 237.856 260.885 238.091 260.885C240.456 260.886 242.805 260.498 245.043 259.735C245.128 260.52 245.226 261.017 245.226 261.017Z" fill="black"/>
<path d="M237.378 261.234L235.694 261.176C235.694 261.176 234.124 260.845 234.508 259.07C234.508 259.07 231.478 258.386 230.703 258.839C229.929 259.291 230.302 261.788 232.491 262.401C234.625 262.998 242.619 263.875 244.917 263.516L245.064 263.491C247.147 263.066 245.064 260.09 245.064 260.09C242.593 260.933 239.989 261.32 237.378 261.234Z" fill="#BEBED0"/>
<path d="M247.746 232.584C247.633 232.81 247.512 233.044 247.373 233.288C246.317 235.201 244.622 237.609 244.326 237.921C243.873 238.401 243.513 241.64 243.57 243.205C243.628 244.769 242.971 251.935 240.44 255.655C239.145 257.568 238.852 260.171 238.874 262.267C238.88 262.977 238.922 263.686 239 264.392C239.094 265.257 239.213 265.797 239.213 265.797L235.176 267.206H230.317L226.973 266.215L226.098 263.784C226.098 263.784 226.39 263.737 227.048 263.608C227.705 263.478 228.729 263.261 230.193 262.917C231.001 262.751 231.732 262.327 232.276 261.709C232.82 261.092 233.147 260.314 233.208 259.495L235.255 245.241C235.255 245.241 235.859 241.638 234.864 239.152C234.489 238.229 234.405 237.214 234.625 236.242C234.744 235.696 234.961 235.177 235.265 234.708C235.265 234.708 236.046 234.096 237.224 233.286C237.745 232.929 238.349 232.533 238.998 232.134C241.848 230.376 245.598 228.582 247.394 229.89C247.791 230.187 248.081 230.604 248.222 231.078C248.295 231.324 248.092 231.883 247.746 232.584Z" fill="#A5636D"/>
<path opacity="0.1" d="M239.202 265.799L235.165 267.208H230.317L226.973 266.218L226.098 263.786C226.098 263.786 226.39 263.74 227.048 263.61C227.006 263.898 227.036 264.192 227.135 264.466C227.234 264.74 227.399 264.985 227.615 265.18C227.952 265.465 228.377 265.625 228.819 265.631L230.349 265.68C230.616 265.68 230.884 265.695 231.151 265.695C233.821 265.694 236.473 265.255 239 264.394C239.094 265.259 239.202 265.799 239.202 265.799Z" fill="black"/>
<path d="M230.347 266.041L228.819 265.99C228.377 265.983 227.951 265.824 227.613 265.54C227.225 265.195 226.89 264.6 227.108 263.599C227.108 263.599 223.693 262.828 222.812 263.338C221.931 263.848 222.362 266.668 224.831 267.359C227.248 268.033 236.262 269.023 238.857 268.619L239.021 268.589C241.368 268.109 239.021 264.747 239.021 264.747C236.233 265.701 233.293 266.139 230.347 266.041V266.041Z" fill="#BEBED0"/>
<path opacity="0.1" d="M252.533 232.096C251.071 232.604 248.924 233.277 247.747 233.305C247.625 233.31 247.503 233.304 247.382 233.288V233.288C246.558 233.175 244.012 233.356 241.678 233.564C240.741 233.647 239.84 233.734 239.096 233.811C237.986 233.926 237.222 234.008 237.222 234.008V233.288C237.743 232.931 238.347 232.536 238.995 232.136C241.846 230.378 245.596 228.585 247.392 229.892C249.921 228.676 252.486 228.098 253.214 230.255C253.299 230.529 252.992 231.246 252.533 232.096Z" fill="black"/>
<path d="M259.547 215.333C259.506 216.411 259.101 219.208 256.195 222.034C252.49 225.637 254.061 230.81 254.061 230.81C254.061 230.81 249.644 232.538 247.738 232.584C247.616 232.589 247.494 232.583 247.373 232.567C246.229 232.408 241.688 232.827 239.079 233.09C237.969 233.205 237.205 233.288 237.205 233.288V217.986L257.676 213.036L259.53 214.874C259.546 215.027 259.552 215.18 259.547 215.333Z" fill="#5C5C8E"/>
<g opacity="0.1">
<path opacity="0.1" d="M237.551 233.099L237.214 233.135V233.296C237.214 233.296 237.978 233.214 239.087 233.099C240.961 232.91 243.822 232.644 245.715 232.565C244.405 232.446 240.077 232.844 237.551 233.099Z" fill="black"/>
<path opacity="0.1" d="M259.538 214.883L257.684 213.042L256.449 213.35L258.002 214.891C258.013 215.045 258.013 215.199 258.002 215.352C257.961 216.428 257.556 219.227 254.65 222.054C250.945 225.654 252.516 230.829 252.516 230.829C252.516 230.829 248.86 232.257 246.767 232.553C246.967 232.552 247.166 232.563 247.365 232.584C247.485 232.601 247.608 232.608 247.729 232.604C249.635 232.557 254.052 230.829 254.052 230.829C254.052 230.829 252.473 225.654 256.186 222.054C259.092 219.227 259.498 216.428 259.538 215.352C259.549 215.196 259.549 215.039 259.538 214.883Z" fill="black"/>
</g>
<path d="M218.64 204.524C218.64 204.524 212.452 200.248 211.997 204.099C211.543 207.95 218.64 207.399 218.64 207.399V204.524Z" fill="#A5636D"/>
<path d="M229.31 201.689C229.31 201.689 225.962 203.895 224.109 203.759C224.109 203.759 219.048 204.435 218.459 204.097C217.87 203.759 217.511 208.985 217.511 208.985L225.834 208.4L231.168 207.589C231.168 207.589 233.836 205.969 233.836 204.573C233.836 203.176 229.31 201.689 229.31 201.689Z" fill="#F7CDDD"/>
<path opacity="0.05" d="M229.31 201.689C229.31 201.689 225.962 203.895 224.109 203.759C224.109 203.759 219.048 204.435 218.459 204.097C217.87 203.759 217.511 208.985 217.511 208.985L225.834 208.4L231.168 207.589C231.168 207.589 233.836 205.969 233.836 204.573C233.836 203.176 229.31 201.689 229.31 201.689Z" fill="black"/>
<path d="M224.4 212.817C224.4 212.817 216.873 212.507 218.559 216.005C220.245 219.503 225.949 215.257 225.949 215.257L224.4 212.817Z" fill="#A5636D"/>
<path d="M231.971 205.38C231.971 205.38 225.87 200.834 226.73 195.298C227.59 189.761 231.971 199.536 231.971 199.536V205.38Z" fill="#5C5C8E"/>
<path d="M230.285 180.28C230.283 182.272 229.505 184.185 228.115 185.617C227.776 185.969 227.403 186.286 227.001 186.563C226.233 187.096 225.376 187.491 224.47 187.728C224.11 187.817 223.744 187.882 223.375 187.921C223.111 187.946 222.844 187.961 222.573 187.961C221.708 187.966 220.848 187.822 220.032 187.536C218.695 187.072 217.513 186.25 216.615 185.161C215.716 184.072 215.136 182.757 214.937 181.361C214.739 179.966 214.93 178.542 215.489 177.248C216.049 175.953 216.956 174.836 218.11 174.021C219.264 173.205 220.621 172.721 222.033 172.622C223.445 172.524 224.857 172.814 226.114 173.461C227.372 174.109 228.426 175.088 229.161 176.292C229.897 177.497 230.286 178.879 230.285 180.289V180.28Z" fill="#A5636D"/>
<path opacity="0.1" d="M259.547 215.333C258.856 215.461 258.002 215.69 258.002 216.047C258.002 216.649 248.361 219.89 248.361 219.89C248.361 219.89 248.722 220.727 247.759 222.168C246.797 223.609 238.961 231.889 238.961 231.889L238.987 232.136L239.087 233.09L239.565 237.651C239.565 237.651 236.552 236.572 235.588 236.691C235.276 236.731 234.947 236.531 234.625 236.244C234.744 235.699 234.961 235.179 235.265 234.71C235.265 234.71 236.046 234.098 237.224 233.288V217.986L257.695 213.036L259.549 214.874C259.559 215.027 259.558 215.18 259.547 215.333V215.333Z" fill="black"/>
<path d="M260.413 214.487C260.413 214.487 258.002 214.725 258.002 215.327C258.002 215.928 248.361 219.169 248.361 219.169C248.361 219.169 248.722 220.007 247.759 221.448C246.797 222.889 238.961 231.171 238.961 231.171L239.565 236.931C239.565 236.931 236.552 235.851 235.588 235.97C235.161 236.023 234.681 235.628 234.286 235.167C233.96 234.782 233.669 234.369 233.417 233.932C233.417 233.932 234.504 229.369 233.057 228.289C231.61 227.21 234.623 219.289 234.623 219.289C234.623 219.289 235.985 213.656 235.583 211.24C235.559 211.078 235.52 210.919 235.468 210.764C235.468 210.747 235.457 210.728 235.451 210.711C234.598 208.403 225.345 189.032 225.345 189.032C225.351 188.483 225.389 187.934 225.46 187.39C225.479 187.239 225.505 187.081 225.533 186.922C225.58 186.635 225.642 186.352 225.721 186.072C225.77 185.893 225.828 185.716 225.896 185.543C226.181 184.812 226.619 184.248 227.272 184.236C227.272 184.236 227.995 183.439 229.692 183.222C230.934 183.06 232.707 183.222 235.108 184.236C240.769 186.633 242.096 186.756 242.096 186.756L244.941 190.476L245.525 191.239C247.668 194.023 249.609 196.956 251.332 200.016C252.279 201.716 253.621 203.691 255.23 204.879C258.484 207.287 260.413 214.487 260.413 214.487Z" fill="#F7CDDD"/>
<path opacity="0.1" d="M239.292 200.609C239.292 200.609 247.337 202.59 250.454 207.584L239.292 200.609Z" fill="black"/>
<path opacity="0.1" d="M241.778 209.385C241.778 209.385 243.3 219.558 242.877 220.324C242.455 221.089 241.778 209.385 241.778 209.385Z" fill="black"/>
<path opacity="0.1" d="M241.234 214.606C240.649 215.369 238.274 221.267 238.274 221.267L238.959 231.171L239.563 236.931C239.563 236.931 236.552 235.851 235.588 235.97C235.161 236.023 234.679 235.628 234.286 235.167C234.911 231.794 236.249 224.736 236.49 224.6C236.808 224.419 238.436 218.749 238.522 217.161C238.607 215.573 240.869 212.035 240.869 212.035C240.869 212.035 241.823 213.843 241.234 214.606Z" fill="black"/>
<path opacity="0.1" d="M238.961 204.885C238.812 205.334 238.582 207.946 238.582 207.946C238.415 210.245 236.661 210.998 235.583 211.24C235.559 211.078 235.52 210.919 235.468 210.764C234.745 208.726 225.345 189.041 225.345 189.041C225.355 188.042 225.481 187.048 225.721 186.078C227.767 185.479 231.006 186.401 231.006 186.401C231.943 186.278 234.999 192.329 234.999 192.329C234.999 192.329 237.034 196.962 237.258 197.593C237.483 198.224 237.258 199.26 237.348 199.621C237.438 199.982 238.389 200.292 238.524 200.79C238.658 201.287 238.571 202.277 238.66 202.454C238.75 202.63 239.113 204.435 238.961 204.885Z" fill="black"/>
<path d="M238.238 204.524C238.089 204.974 237.858 207.584 237.858 207.584C237.721 209.497 236.484 210.347 235.451 210.711C234.985 210.876 234.498 210.973 234.004 210.998L232.551 212.256L225.84 217.176C225.84 217.176 223.339 212.57 224.018 212.545C224.696 212.519 228.61 209.246 228.61 209.246C229.807 208.609 231.006 206.483 231.563 205.391C231.531 205.261 231.507 205.129 231.491 204.996C231.249 202.958 226.188 195.153 226.188 195.153C226.188 195.153 224.231 192.86 223.469 188.612C223.448 188.514 223.433 188.414 223.414 188.312C223.392 188.18 223.379 188.046 223.375 187.912C223.284 186.278 224.479 185.683 225.895 185.543C226.635 185.484 227.38 185.507 228.115 185.611C228.847 185.703 229.572 185.845 230.285 186.036C230.891 185.955 232.385 188.465 233.364 190.244C233.891 191.209 234.271 191.961 234.271 191.961C234.271 191.961 236.307 196.596 236.531 197.226C236.755 197.855 236.531 198.894 236.62 199.253C236.71 199.612 237.662 199.927 237.796 200.424C237.931 200.921 237.843 201.912 237.933 202.088C238.022 202.265 238.389 204.073 238.238 204.524Z" fill="#F7CDDD"/>
<path opacity="0.1" d="M246.022 194.14C244.742 195.442 242.674 195.447 241.014 194.777C239.354 194.108 237.948 192.909 236.409 191.976C235.41 191.368 234.352 190.871 233.368 190.244C233.223 190.15 233.082 190.057 232.942 189.959C231.806 189.16 230.823 188.133 229.647 187.409C228.86 186.888 227.945 186.594 227.001 186.559C226.566 186.555 226.136 186.645 225.74 186.822C225.666 186.852 225.595 186.887 225.526 186.926C225.139 187.147 224.781 187.415 224.459 187.723C224.126 188.021 223.808 188.337 223.459 188.616C223.437 188.518 223.422 188.418 223.403 188.316C223.381 188.184 223.369 188.051 223.365 187.917C223.1 187.942 222.833 187.957 222.562 187.957C221.697 187.962 220.837 187.818 220.021 187.532C220.021 187.5 220.021 187.468 220.002 187.436C219.714 185.923 219.193 184.321 217.97 183.47C217.262 182.977 216.131 182.776 215.149 182.408C214.809 181.229 214.757 179.985 214.999 178.782C215.24 177.579 215.768 176.451 216.537 175.492C217.306 174.534 218.294 173.772 219.419 173.273C220.544 172.773 221.773 172.548 223.003 172.619C224.233 172.689 225.428 173.052 226.489 173.677C227.549 174.302 228.443 175.17 229.097 176.21C229.751 177.25 230.145 178.431 230.247 179.654C230.348 180.877 230.154 182.106 229.681 183.239C230.923 183.077 232.696 183.239 235.097 184.253C240.758 186.65 242.085 186.773 242.085 186.773L244.93 190.493C244.622 190.96 244.275 191.421 244.243 191.968C244.189 192.969 245.169 193.668 246.022 194.14Z" fill="black"/>
<path d="M217.979 182.746C219.201 183.596 219.722 185.196 220.012 186.707C220.102 187.179 220.187 187.676 220.477 188.051C221.118 188.888 222.432 188.652 223.279 188.051C224.126 187.449 224.794 186.537 225.74 186.112C226.994 185.547 228.471 185.959 229.647 186.692C230.823 187.426 231.806 188.452 232.942 189.243C234.04 190.014 235.265 190.565 236.409 191.26C237.948 192.193 239.354 193.398 241.014 194.061C242.674 194.724 244.748 194.722 246.02 193.423C245.167 192.952 244.187 192.254 244.253 191.243C244.319 190.231 245.502 189.477 245.423 188.439C245.344 187.402 244.119 186.996 243.24 186.486C241.405 185.424 240.621 183.086 240.229 180.929C239.924 179.241 239.672 177.356 238.406 176.272C237.589 175.575 236.486 175.348 235.662 174.657C234.883 174 234.45 173.008 233.955 172.092C233.138 170.568 232.064 169.15 230.645 168.238C229.226 167.327 227.421 166.963 225.863 167.588C225.266 167.824 224.722 168.189 224.133 168.438C222.665 169.076 220.985 168.984 219.532 169.65C217.742 170.47 216.579 172.281 215.514 174C214.614 175.473 212.827 178.07 213.333 179.983C213.837 181.927 216.651 181.823 217.979 182.746Z" fill="#4C3E42"/>
<g opacity="0.1">
<path opacity="0.1" d="M245.421 188.323C245.414 188.244 245.4 188.165 245.38 188.089C245.056 188.597 244.652 189.09 244.614 189.685C244.606 189.823 244.617 189.961 244.648 190.095C245.009 189.523 245.472 188.986 245.421 188.323Z" fill="black"/>
<path opacity="0.1" d="M241.375 192.509C239.715 191.846 238.31 190.641 236.772 189.708C235.626 189.013 234.401 188.463 233.302 187.691C232.167 186.892 231.183 185.866 230.007 185.141C228.832 184.416 227.357 183.995 226.1 184.559C225.155 184.984 224.489 185.887 223.64 186.499C222.791 187.111 221.489 187.349 220.838 186.499C220.548 186.125 220.463 185.628 220.373 185.156C220.085 183.645 219.562 182.044 218.341 181.194C217.012 180.27 214.197 180.374 213.687 178.431C213.602 178.084 213.58 177.724 213.621 177.369C213.295 178.236 213.126 179.107 213.325 179.866C213.837 181.817 216.651 181.713 217.979 182.629C219.201 183.479 219.722 185.081 220.012 186.593C220.102 187.064 220.187 187.562 220.475 187.936C221.116 188.773 222.43 188.537 223.279 187.925C224.129 187.313 224.792 186.412 225.74 185.987C226.994 185.424 228.471 185.836 229.647 186.569C230.823 187.302 231.806 188.329 232.942 189.12C234.041 189.893 235.265 190.442 236.409 191.137C237.948 192.072 239.354 193.277 241.014 193.94C242.674 194.603 244.748 194.599 246.02 193.302C245.691 193.126 245.379 192.921 245.088 192.688C243.931 193.111 242.55 192.979 241.375 192.509Z" fill="black"/>
</g>
<path d="M203.607 207.047L220.678 200.696C220.878 200.622 221.09 200.587 221.303 200.594C221.516 200.602 221.726 200.651 221.92 200.739C222.114 200.827 222.289 200.952 222.434 201.107C222.58 201.263 222.693 201.445 222.767 201.644V201.644C222.842 201.843 222.876 202.055 222.869 202.267C222.861 202.479 222.812 202.688 222.723 202.881C222.634 203.074 222.508 203.248 222.352 203.393C222.196 203.538 222.013 203.651 221.813 203.725L204.742 210.077L201.085 209.712L203.607 207.047Z" fill="#5C5C8E"/>
<path opacity="0.1" d="M222.249 201.134C222.399 201.536 222.384 201.981 222.205 202.372C222.026 202.763 221.699 203.066 221.295 203.217L204.224 209.567L201.475 209.293L201.081 209.718L204.738 210.084L221.809 203.731C222.009 203.657 222.192 203.544 222.348 203.399C222.504 203.255 222.63 203.081 222.719 202.888C222.807 202.694 222.857 202.486 222.864 202.273C222.872 202.061 222.838 201.849 222.763 201.65V201.65C222.638 201.315 222.404 201.031 222.099 200.843C222.158 200.935 222.208 201.033 222.249 201.134Z" fill="white"/>
<path d="M203.607 207.047L204.744 210.077L201.742 209.778L201.085 209.712L201.983 208.764L203.607 207.047Z" fill="#EFC8C4"/>
<path d="M201.981 208.764C202.052 208.815 202.111 208.88 202.156 208.955C202.184 208.999 202.199 209.051 202.199 209.103C202.199 209.155 202.184 209.207 202.156 209.251C202.107 209.298 202.051 209.337 201.99 209.368C201.92 209.413 201.862 209.473 201.82 209.545C201.778 209.616 201.753 209.695 201.746 209.778L201.089 209.712L201.981 208.764Z" fill="#727A9C"/>
<rect x="-60" y="607" width="110" height="75" rx="37.5" fill="url(#paint3_linear)"/>
</g>
<defs>
<linearGradient id="paint0_linear" x1="436.234" y1="30.6922" x2="177.474" y2="363.08" gradientUnits="userSpaceOnUse">
<stop stop-color="#EDEBEF" stop-opacity="0.24"/>
<stop offset="1" stop-color="#FBFBFB"/>
</linearGradient>
<linearGradient id="paint1_linear" x1="439.784" y1="25.1009" x2="199.103" y2="334.264" gradientUnits="userSpaceOnUse">
<stop stop-color="#9963FF"/>
<stop offset="1" stop-color="#4838BD"/>
</linearGradient>
<linearGradient id="paint2_linear" x1="236.196" y1="268.713" x2="236.196" y2="166.143" gradientUnits="userSpaceOnUse">
<stop stop-color="#808080" stop-opacity="0.25"/>
<stop offset="0.54" stop-color="#808080" stop-opacity="0.12"/>
<stop offset="1" stop-color="#808080" stop-opacity="0.1"/>
</linearGradient>
<linearGradient id="paint3_linear" x1="38.2024" y1="607" x2="-69.661" y2="648.519" gradientUnits="userSpaceOnUse">
<stop stop-color="#FAFAFA"/>
<stop offset="1" stop-color="#E9E9E9"/>
</linearGradient>
<clipPath id="clip0">
<rect width="360" height="640" fill="white"/>
</clipPath>
</defs>
</svg>
